<mxfile host="app.diagrams.net" agent="Mozilla/5.0 (Windows NT 10.0; Win64; x64) AppleWebKit/537.36 (KHTML, like Gecko) Chrome/129.0.0.0 Safari/537.36 Edg/129.0.0.0" version="24.7.17">
  <diagram name="Page-1" id="ZEGvOb5rooAVTsa7emPt">
    <mxGraphModel dx="1405" dy="888" grid="1" gridSize="10" guides="1" tooltips="1" connect="1" arrows="1" fold="1" page="1" pageScale="1" pageWidth="850" pageHeight="1100" background="#000003" math="0" shadow="0">
      <root>
        <mxCell id="0" />
        <mxCell id="1" parent="0" />
        <mxCell id="jqA3G6PTlr-n26VSu3n4-2" value="" style="shape=image;verticalLabelPosition=bottom;labelBackgroundColor=default;verticalAlign=top;aspect=fixed;imageAspect=0;image=data:image/png,iVBORw0KGgoAAAANSUhEUgAAAPAAAACyCAIAAADzp9WiAAAgAElEQVR4Ae2dbUhb2b7//xcunMOFmRctlD7RJyp9IqVh2pOT0qq1IuIDwZGRSs6p1IrlTO+cjPQMFLnXgq0vRnGkSp0OqNPx3FSdA3Mj1WOxJb44REqES4QIeRG4BiJE0nqJHF8ECfknftvv/Gbtne1DW7VDSthde2Un7qz9Wd/9Xb/1sP9fMvsvWwK/ohL4f7+i35L9KdkSSGaBzkLwqyqBLNC/qsuZ/TFZoLMM/KpKIAv0r+pyZn9MFugsA7+qEsgC/au6nNkfkwU6y8CvqgSyQP+qLmf2x2SBzjLwqyqBLQM6kf33IZfAtq0Emwe0cvmSyWQikchuP9wS4AXdVnBvBtD45bhyLIXl5eVEIpHdfrgloFzWbYL1eweaMgx8l5eX49l/H34JLIt/Uqq2HOv3C7TUY6K89OZfLLaYfX1wJfDm6qX/j8fjAFuq9dYy/R6BpjbjN6MgYrHFhYVXCwuvotGX0ejLyHwk+/qASgCXLBp9ubDwKhZbxDUF1hQvXPetwvp9Ac2fB2FeWloCypH5SDg8NxsKzYZCwTf/Atl/274E3lyr9P+zoVA4PBeZj0SjL4E1PNR20On3ArTU5ng8Dpqj0Zfh8FwwGAwEAj7ftM837fVOZV8fXAng2vn9MyA7Mh9ZWHgF+yGl+tej0FptXlh4FZmPzIZCQNnrnXK7J8afPR9/9nxkdAwvl2t4ZHQsu93OJYArNf7suds94fFMer1TwDocnoMDIdCMRW4+1u9eoSHP9M2x2GJkPhIMBv3+GaDscg27XMNOp7Onty/7+uBKwOl0DgwOuVzD48+eezyTPt90MBgE02wmUtQ+eKD5S5aXl+E0oM1+/4zHMzn+7PnA4FBPb19zS0dT091bt+9he+v2vezrQymBpqa7zS0dPb19A4NDI6NjZFp6j+Xl5a0S6Xep0FrrDN8MbQbNnV3dt27fu37zTnNLx9ffPMq+PqwSaG7paG7puH7zzq3b9zq7up1OJ5meDYUi8xG0EXF/3hKm3zHQ6D1BQxDWORAIwGkMDA6B5lu372Vp/rA4Vs62uaXD0dDY1HRXMu33z8yGQltupt8Z0JRnRHBonX2+abd7wuUa7unta2q6a6zNnV3dsuyyu9uhNOQ5MF3/587rN+80Nd2F9xh/9tzrnQoEArpmejOd9LsEmvIciy3SbHg8k2gCtra1Oxoab92+9/U3j9rv98tt+/1+bY5yQHaXRcQEyuS97rbf7+/s6sYF4mXqePC4uaXj1u17jobG1rb2nt4+l2vY7Z5AAxHGg5HpTTYe7wZoJbIhzUYm6yzLKJveniXACqN7ejDTYNrpdLpcwx7PZCAQmA2F0OHCKB7w2BydfgdA60Y2gsGg1mxAnjsePOar/X5/x4PHKC8ksrvboTR4XTJdlI4Hj7/+5hFEGmZ6YHBIazw2v3X4boBOJpPs4pZmY2R0zOl0SrOhoMzdnxNdzp/TDx53yF2ZVt7K7r7DwhGK84vyl/kr6a+/eXT95h1d48FecYyPheptgki/LdA0G4xsoH/b652i2XA0NF77U1tzS8cvSGXp4ErILemUF4lp4yOz77L0mNhA0RkU45tvg4oj4kGmEcVDxCMafal0tWx3oBnZQDfK0tJSNPoyk9m4/+3g/W8HyTTTSBhvOx48Nj4g++77KwEWvjaBP1r/5866egciHk6nE8ZD6T6kL33fTL+VQuMspdnAgA2PZ5JmA0H4r7959ODhj2A6u/2VlUAm4yFbh/F4nPL3XpneONA0G5DnhYVXWrPBwDMq96/sQmZ/DkoAUTyYaaWrJRye22TjsUGgeQdJJBIcHTobCvn9M0o3yq3b9zoePH7Y89P9bwcf9vz04OGP2devrAQe9vzUfr9fN+IB47GZ/eEbB1pGNiDPGIFEs+FoaLx+8w60GUDjQkqss+kPukwgUve/HXzw8EcD48Gulk2IeGwEaK3ZwABRZcwGernxmx/2/MTXg4c/ZtOoyR90OfDkH/b89N33w/e/HWRXC40Hxkwr/eHvte9w3UDT2qMtiF5uRDbQy40xG+jlvv/t4HffD/PiEWUm+BZKJ5v/oZQDDSTN5MOenzq6nLdu30PEo7Ore2BwyO2e8HqngsEgB5e+766WjQDNMRtLS0swG4FAQEY2YDa+/uYRaEYNxhY5zOdbuJDZ/G1eDrx8330/rJvWNR6Y2KL0h78nnV4f0IrZiMUWGdlwuycweB+Rja+/eXT/28GeH0bwy7W/X+Zn0x9KCSiqRKaZT+PBwaWY2LJpA/HWATQjGzQbmI3i801Ls4HAM8wGrxN/sG6OfDebRhFt53LgRdRNdDx4TOOBwaXSeLzviMf6gNZGNjB+X4lstN/v/+77YUWedX98NvNXVgJ9fx377vthrfHweCbRHx6Zjyj94bjtv6velrUCTbPBZQmUyEZPbx+sc3rC2Q8joJlb5HAXuHM3m5Altp1Lg+emvYLKT6BIy4iH1ni8cye9DqDZFkRkA90oNButbe119Y5bt+/BOvf8MNL31zFyrCQM3lKOzO5+cCXQ99exvr+O3f92EGM8WtvaO7u6tTMAlpaW3kdYek1AK/LMyIbXOzUyOjYwOIQBotdv3vn6m0f4PQQauyCYae2ufCub/hBLAFccZ460MhAPMwC0A/HerUivFWhFnuWQus6u7qamu3X1juaWju++H/7h8fiHeD2y5/xuS+CHx+PffT/c3NJR9cfX02k5A0D2h2NWyztkenWgM8kzJwuiIl77U9v9bwezNL9bLD70b+t48NjR0FhX71CmHsqBeIyevZN24ZqAziTPWJkAZ9zR5ez769gPj8ezr2wJsAR6fhiREQ+s48H54VzoEaKJ7VtivQ6gMaouHJ5DvyDmcnPVGP6GLUnIuoR0dpupBHAX3bTL9N33w4x4cH641klDp9+S5mQyuQrQWr8hx4h2dnXX1Tuu37zTfr9ftglwo1xvwT15+gKlrCSwq7tl5pOnL7KvdZXAD4/HcTwSBlu+td46wBoFka6rdyCExyktchTeu7LRqwNNv6HMsMIgpLp6R/2fO2/dvlf/5068mls66v/cqWyxhBS2X3/zaNWVkzDzWU6jT8/WxGtlMuKDhz9iFxNh0jO73hyAUefaMcfKQCiMmpBbdOT2/DDysOcnBMvYPcTYWb9zCGkmUJM3sMtQj/ysTPOPKgmeFTpl0KcofwjSGOmllEOmwuFh6WIUhYlS/fqbRyzeji5nejZhl5OLzigJXFxsQQJg4DQtzDsMBAJy6bAtUGguhoRoHXpSbJ99WVn9VfmnX+BVYvucL2aWf/oFMpngMSW2z5HJrfwU0rbPviz/9AvbZ1/ypewyv7L6K6aRQI7BtrL6q0wv/DS+W22vZXotiao/NvIwma6s/kp3F5nKW/wGJuRhVX9s1L74/Znekvk4ONN38l18hLtMKGerlBgPQ6Ky+iuINGLSAbHMEgPS791y4EYgB2+wrxt+o9pea6uoKbF9Xlh8rbD4WlFJHbZFJXXGr+KyG2s5QPcwZCpb7haX3djYy1ZRo/0gM1EJi8tulNg+125lFdVNs8byXYMcba3OlANF4FdlOmzVfKkaOJg5/KwiFmvc/VllKmoANIaV+nzTWAsPPeFbptBsEfb09tXVO4rLbqA0QSdpZsKYWvkuiSwqqUOaCXAmd5HW8vdOcsgc2TXOke+iNGSOkiZ88u4kM5V88vTOE0SWaMpbn0zzAN3Ez8iKuyhuKTge93BbRU21vba1rV0CLWccvr08r6lRCA+tDXFAoW0VNeWfflFcdgMKbbyFfhsI+QaqgawS2jQriQK6rBvKW9g1qDCgXH5Kco98maMAvequcZWQ78pqwPS74h6489u4y2pA4nGMLuvMBCQISGOpAyg0gd5shTYGmpYjE9BEmQdocyToMq3FVDdHK+q6h60rU1Ir0+RVZjKtvCt3DdKrgi4PINbkmLrOw5S3iObaE5LdTJ/iMdoEiX+NtVDo8WfPsbIjgYaNfnuRXiXKoXhoGYRWFLqg6KruCwTjrcLiawVFV5lDuN8yQeMuq4Ei9vgTurUIp8QTk0fym2U1yKT6BPrtEwbcS/tOdjeWYK1QPv72NUGhH0CX2D6H5aBCB4NBAr15Cm1sOeChbRU1ujQrmQBayZSsS7a06bfkXn5cnkN+ob2g6Cq2zJcHK4hLuJW0wrqBb1kX9OAbH2GaCYm4TCuYrrqbiW98kO8quK+lVfpavN8oNFdXwqL/HB799vK8uofegEKTDF1QSIxBQpd7UKWlXFFWBUTdv8ITyy+05166orzyC+184ePyxiK/X6FZu0sXxLeYsy6gDQ6WWCvES7hlGh/hdlXQeQCZlogzkwkez8Og0OWffmGg0JtkOdhTqOuhq+218EnFZTcIgTZB/SNJzNEFbtVMXeIlfPwG/kWyy0TupSsX8qoyvUg5fo5ywpmwVnwOOTZOUNd5GHMMUN7AW5J+pkk2oJc4anPku7ppYs1Eie1zA4Wm5cBzht5epFfx0HA2iENjGXOsJuNyDSseGhc+99IVLdAbyCFAJJI5hDVTgh/hKZHOC3lVkuPrN++43RMoRL9/xnLehpf1YqX1YiVZ58eRwPcb3xno5pkArMouCd5Y4j1xb1xVZAVQhF8XcQBt++xLXQ+tzMjaDKAxj9BYoW0VNcpVl7tSFEG83OLdDUBPcMk6v0T+dXIJTLEFuF7vFMd5+f0zn1hKPrGU2Cpqvv7mUU9vX0eXs6Doaia48bdYqaRmbyzNBqgB9OHwnHLJHzz8UVsZYrFF5TCivy5b/+Dhj8r3GOw+ePgja4KEnkAzDi099GYr9No9tGQIaYVjQswEDyDTygcloEzrJgqKrvJreSZAWRKc5thagi3wRX+sbaUT62HPT4FAQF6zYDCI4/ML7ZgxSeXGn6NaZzL3Mn9joPNTRSV1WqC93ilZEwqLr339zSP5E5DWQq/kgHglPL9hoEk2EmuJcmyehzaIckgPzbu55Inpt0kouOOrlMqgZBJlKPH1m3d6evsePPxR2eKhkV7vlCJpbvcED84vtJvPFkHLE4mE2z0B2cafINaSbMq2kmDjUlIu02Q3U0ILdDT6Ujn4ydMXukBD+Em/ArTu7jsEOt3W2j5RDi4xqhuHtn32ZXHZDd7ZlQQ8q+52w5STZuUb+Kepys0tHQqs2outzYnH4y7XcF29w3Qmz3Qm77T5cmX1V7OhEI4cGBxCPYFar4tpBXHdXTZ5lQpQWHxNC3Qymaz6Y6NkmucpfxdtDI8k2XxLySkqqdsA0NR41JDtq9DxeFzbKKRC2ypqcHV5RyZba0yQeIXRNe7yrxBly3nbrdv35EVNJpNe7xSmagaDQbgpHkAzzXzkeL1TGFdosZY0t3S43RPNLR2fWFZ8y3kbf6+Cta6/18V3XZkSaFbUkdExKfP4RfF4nD8tmUyS4/UmFOXmCYTDc8pbBrvbKMpBD52pUQimi8tusPEkE+CMV53YvY+ERBkumTdfj2eyqemu5bztpCmXr9Pmyxj81X6/3+ud8ngmsawgAjvKFnEen2+6/X5/cdmN0+bL5rNFcOH8vah7NEi6Xl+bKVu0umkSryg0ldjvn+ExPT+MgGOSh12KPfITiYTXO1VZ/ZXXOxWNvuRH+v46ZkC8NPEAOtPBFHskDDz0lkU5qNAcbYewHdqwRSV1uK7r2l7IqyINEnqZXhV9fAM8ALbg7BNLiflskfls0Wnz5dPmy7du3/N4Jqm+UOuBwaGvv3lUba/Vvo4cNcPzNbd0jD97Hg7PcYWdhYVXqZy6esdp82VKNc5TMg3NpnIzoTCdKZ+HgXJIvsTU45mEDMdii3QpPt806OzociKBLYnnN/h800RZHvnk6QvST+Fngh83BloBHUDreujNjnIwDk2FlnFoDIaGh7ZerLSs3ILXxfQaD5boE3F+ljQD5eKyG3X1DgB32nz5Ql6VxzOJHyKv3KrpYDA4/uw56u1JU25+QVm/cwjPWIjMRyLzkc6ubkg1f7jEWjFL9P1M6BJvzDd5SiaTT56+oEg3t3SgApDRgqKr8geyzSq/QR7AdDwer6z+ihVAJuQtIhyeYy1iBVA45i5737Q9hVum0AA6Mh9RFBrnCoUmWIQbV1puSeE7SfAvWs7bPrGUVNtr2VEyMjp22nzZ0dAYiy3iiTXwxIFAwGJNH8nZE17vlNc7RW3jpZWJeDw+MjrmaGg0nclzNDS63ROR+Ug0+rK5pQM6DalmZVNo1u5KrCXZTPMj0sNIHDu6nIyjP3n6oqDo6rU/teGcw+G5/EK7PH/gXlB0VX5DPB5HrF1pOj94+CMrgARaflwCrRyDXYn7NlJoemhYDiXKQYUuKqkDW0BZcibTEnRSLj+4dsrlxyHM12/eYfdpODxXUHS13zm0tPIPq5lwnk84PNfUdNdWUXPkqFn3VVpeBdw9nkk0HwkHyC4tryotr+rocrrdE7A0ivdAEJNQbiyhhV7iiEl+OLHZUCj30pWR0THsejyTWqBzL12RRCaTyY4uJ0Fne4P54FK2buXHUcK6KGszDRRaWg4oDot6Y4m1dn1ToVXLgUkKFTUS3I2ljSuD5F5+P2jOL7SzXe92T9gqany+6VhsES9gzbXjUVKJRCIWW2RzEI1CrJ7z9TeP6uodtoqag4dNBw+bEN9QyHa5hvMLyo6fsqKVCb/Ok6RUr5oA67ICMM0Ej5FAt9/vz710hVc999IVnmHPDyPyrWQySeGX38DM/EK79Nwjo2PyLUCPHH4cQOMtudVt1wLoTB4at1CKEX/RxhKrAC0VGsubS8uBtpTtsy+h0GArfVHRG/dmaITkbwNpRdf5DfhzaPwNDA7FYovjz57DS8DpRqMv/f6ZtL8sKMs5du7IUXPOsXPV9tqBwSE+Nk9baopORKMvBwaHqu21Bw+bci9d6ezqRrwMhw0MDpnPFp005TLugdPjrWZVoA0OYCgTx+ReukKekskkgGZOR5eTVdr22ZdaoFEreHwymaSZyb10RQLt8UxKoJFWWqVwNfgGNlsl2awGBUVX16LQG2jkaK/d6sNHcdnwJEJdoGGP0kBb0wMh4GV/kRD56Yv9pueZXG4gkf7+la+VcQzc+ju6nFwctbml4/gp65GjZpjmanstdkG2o6Gxs6v7628eKVuXa1hGqVnQ4fBcT29faXnVSVNuZ1c36QmH56rttdRpeg8yjaCNdouWrgHQ2rckju33+y/kVdH6861o9CXYldcbOUqVYKYCdOrhT/ItmeZfAdBa7km/hNtAobegUbiWru+ikjrq5Wuyf8kxxVtJEH3WBxD/Ggup9CtpHo/vIdAnTbmOhsZAIIDHvni9U6mgxJGj5mp7rdc7xUvb09sH0wwvobs9ctR88LAJWt7a1j4bCoFp1O1EItHvHDKdycsvKCNM8XgcTGfSaQm3TDN6o80k7jKISZ6SyWRnV3fupSsPe37ir0PC759BTWDPSzKZhHu5kFclv4F3gNxLV9rv9/N7oNCSY6b58XB4jplISL2X7j+/0A6gi0rqtFEOemgKB09jY4lVLAcVWjcO/QvLsUIwsV5LgnIuMUUm39ImJMoIMwNlPm/c5Ro+bb5ssZawkZRMJoPBYLW9FjSbzuRV22s7u7oRYJYFFw7PwUbDqID4anutyzWMio1yD4fnSsurco6d45+IxRatFyvRT44+F955JKwGaV24lePJEyzHhbwqR0OjPP9kMulyDQNoeTDFXjfzQl5VZ1c3vycT0LI+aIFW+Ja7BgpNoDfbQ2eKQ+NcC4uvsSPDGGUosfEx8t1f6P2bOkNhtl6s9PmmARk685pbOo4cNSNahysUjb5sarpLmzH+7Dmv3KqJYDDY2dWdX1CGpuHA4BBalsvLy7HYIvJ5B+jp7aPxUJgm3AzOyIaBklYglrsSx/JPv8BbUomTyeT1m3eQLw+m3iuZBF1RaOYrCX48HJ7DW5R53gSYQ6YNFHoLLAefq4KxHEqjEB66sPiaxZrumSPWYI45yJekbizNrzWfLZKOMJFIBINBW0XN8VNWik08Hm9ta885di7n2DnpepPJZDT60uudQqcJuwnx4CZtqA4C39zSQawRBwwEAsdPWS3WEtzH/P6Z46esx09ZodP4gWwfS2q1fGcCnZ/SMoocy3mb3z/DmhmLLVLpCV8ymcTB1ouVSiZB1wVa+n7gy48TaIV47W7upStahR4ZHcOs74WFV5s6p5DiR4VWgE6Hoj/7srD4mkQNaS3c2mOUHH5EWwFYN9ibTXDD4bnOrm7Tmbzjp6w9vX24uj7fdH5B2f4DJxwNjew/C4fnmls6TGfyYJRlEFrx05B5l2t4aWkJhYA6U1fvANb9znSoxNHQeOSomT12J025COShhfqzTsvGwNqCP0BZom85byNPyWSSdUCGkIPBIOuAPDgT0MxnYSaTSY9nkvlMAH1+J4CW/l6LMnIItOKhvd4pZZIsdIGVc2OJtXroTECj8pWWV31iKUGTSGFUu6ullrCSY+ZoPw5WMLQI67RCg3OOnSstr0IpuN0T2IUhSQVi3e6JunrH/gMnCG5+QRnaKO33+xmE9nqnHjz80dHQaKuowcE5x845GhppbBKJhMcziRC1xVoCvuGwE4mEraIm59g5Mo1f8bqBywjP2oBWUMYueQLQyGxu6SAKT56+IOjKwQBdZhJW68VKrULzXUq+FPhweA4HyHep6EpCq9C663JsjGDlU6sAvcY4NBQaQBNrJhQoM+Urh+nugmbTmTy61Vu376VWqgbTuPmSZpjLpaWlpqa7Bw+b9h84gbgHhmQoBaG76/VOORoaQbatomZkdIzdjT29fawbzS0d8NYDg0M4E8k0sX5tQlZ66dMsygimNv0W3OtWBoKe6V0cQI65ywTfWm+CQNsqalImUHddju01Y0UCDRBJLRJyC8+gbLmryzFtxmnzZQy6P2nKrat3wEsA6Lp6RzweD4fnjp+y5hw7F5mPoC+w2l4LIh0NjexL08UXtVf7VjT6srWt/fgp68HDplTHTTg8B3zHnz1nJo0gG6A00wQ6TfCbdq2SUII5OPL19k0FYCzoNZGyDmyIfl1XQ9y17zIHCWULyhX6LedtF/KqCDTDdvTQWxPlyDRjBWM5EOKgXCGIC6pyjp2jrYSmosFEiynpJ/Q0FbJWKNrc2tYO8uLxONqCwWAwHo+Dp6amu4lEwu+fQSDCdCaPsQh8KhgMtra14/xx5vsPnDCfLaq21zoaGgcGhyLzEYXvWGzR0dB48LAp9dOcznS3XDweDwaDCHjDbaOx6GhohE6jB5G/Yo3tYAVuyTHTTODgn8VeUI5jCOg7SShM4zuZCZq1W1tFDbqTCbSu5aBx0mrK2nNWsRxsFDIOrYzlKLF9br1Yuf/Aid/85t8MXh99vPOjj3fu2LkXr127D+3afWjPvhxoJ2Jqym2arEu+YTaq7bXsqLt1+57pTJ7bPRGLLQaDQXRxI3CRc+zc/gMnqu21bBTGYosIw+0/cCLn2DlbRQ0iG51d3XiWl+lMHvnOLygbGEwPb5Jkj4yOQZUdDY0LC69QLNX2WtOZPL9/hsMS6uodR46a8YtkcJpqvUa4137Ya7JX5FzBnV8ij0mzKOh/J7jrfon1YiUVWloObaNw7dQaHLkK0PTQmRqFtpVhSbt2HzKgee1vffTxzt/85t9IvwI9uE+FJvqdQ+wrqat3YIm02VCIw4kA5fFTVpdrmD9+ZHTMdCYPiLtcw6gSjGDgMLd74uBhE3pe0BFz0pTb2ta+sPCKR0bmI9X22j37cmwVNZH5SDwej8UWS8urzGeLwPTS0lI4PGexlsgGInUaFZXNX9K2rgQdC9nVfpzHSI55PKVdzdFzODhGl9e1ZALo4rIb20KhjePQGAm9Z1/O2qnNdCRoxruSbPDN7Y6de12u9HNo9h840dPbh+cKeDyT5rNFqRy8LNaSpqa7sNEgtanp7v4DJ/ILyjhgmqAzEYstpp7rvP/ACcxtSSaT8Xg8PSXWWmI6k4c6gLbL0tISrHl+QVk4PIeHdcDyBoNBPNzJ5RpGDYTXki6LcZ5MDQYFemNdN35XC7pxDqqBrANIK5/iAb+QeUg+tf9NwkChN9tD03JQoRXLgXF2O3buzYTpBvJJM9Rabgn9kaNmoBONvnQ6nbhF7Ni5F2P85aLwsdiiraJmz74caVTQt9LvHOrs6oaZLi2vQmVAy4+WBrg7nU5YFEgyutnBdGl5Fa7KbChkOpOXGksdDs+BaXSPoyFB4yEhlmRTswGolmmZI9MKauvd/VnI3zRYdb+BBFPReRiJlwlUbxxs4KG3rKcQQCszVqrttUUldfkFZW+p0CQYMkzXwYSSb7GWoCBiscWmpruoM3X1jkAggJ4n9oYMDA4dPGz66OOddfUOoBmPxzu7ukvLq+Dj4Wr27MuBoafGl5ZXKVoemY/AV3i9U6gw1Olqey0I9vmmj5+ytra1R6MvY7FFl2uYTeSTplxtg1jxIZL1VdOyMhgcLA9jnSGLb5NgTdD9Eig3gN5GCk0PDacYDs9pFdp6sXJjCk2OpQYrENNpMJFz7NzCwqvl5eXIfCS/oOw3v/m3g4dNI6NjmBO1sPBqYeGVyzWM6VL4E6XlVWjbReYjpjN5H328E90l48+eu90THs+kxzM5MjrW1HQXoINv9AhyADTqQ2dX9/4DJ0ZGxzBpIBp9abGW7NmX09nVjbo0MJgeixcMBiPzkXB47uBhk2zySqZpQnQTBoyu8S2JcqaPGBzDt96yGlisJZxJrfXQW6DQxsNHYTlWjXJkMh5kmrwaJw4eNmE859LSUn5B2Ucf78wvKEMP6sLCK693qrS86je/+bemprsu1zC+ynQmD026ZDKJSa/Kel8gVW49nsm6egfDMhZriRwv4XZPHDlqdrmGocpe79TBw6Y9+3JGRseQU22vTT38HJMMLNYSAA3jwUAetJkBHAbaGY/nW0zIt5jORGwAYuAAACAASURBVOq68oks3U6mHPm1PEZXoZGJL3y9vF1FjTbKsdkeGgptEIcuLL5mvVi5gSiHAu6qwozjO7u6Ea10NDSC5oWFV7HY4sLCq9a2duRgmPLA4NBHH+/cf+BEMBhEPwjaAxJc3TQq8PLy8mwo5Gho3LX7EMjmKBF0pB88bPJ4JqHKTqdzz74c05k8PNYJ0UOvdyoyH0HgRYo0vIdWqgnuGhOsA9rjifvbWBrJrpIGykomdrVvUaGVKVgYnLRlCs04tDI4ab0KLSV5VYh37NwLmLDdsy8HbTWPZ/Kjj3dCepeWluA9Pvp4J3tbkslkaXnVjp176XfR5SGZHn/2vLWtnS1C3g0j8xFUAJiKQCBQWl6FE5Df39nVffyUFQSn5vKkJtXu2LkXwelYbBFzW2ZDodLyKsV1SKCB9TuEW6Fcd1fBnfcKArquakCCmdDK/LZTaDkFS/HQpeXpxWLW2CiUNCsKreyi/0XS/NHHO4+fsiL8jJZcMBhMJBKgGbaVitvUdPejj3cODA5Bv+EEwLTLNZwa3Y+qkul8UtEJp9MJoDFoNtX/go9IpkvLq6rttZH5CIy76Uzert2HsMLB0tJSaXl69P3xU9Zduw/J/iP2mKIPP9OWnfxIcKvV47fMkXzzq1gT+C5xVxJroV8X6K15aBDu73LBc61Cr72nUKFW2WU/IoVZ5uzYuff4KSs6PnbtPoRQMbhR4nGdXd1QaywHA+CWlpZ6evvQIsTfTYWQ8ZQx6DS2EGMeMP7sOfxMNPpyZHQs59i5lI2h94jMR/YfOJEaVB0Ozy0svHK7J+B5sOv1TqFC7ti5V/aMYowU+1wg2KCcaXSIZmJdN5/EvyvVJ9zGCaJPpSfi+GBq7VZdoLemp5BxaFoORaHhoY0bheDD2GBQkgmBQjMP2LFzL5HCTCoK88LCq2p77Ucf70SbbDYUQnsxvU7FSgsSRgXdMfgUfiC3yBwZHaPNaGq6C6bR6ITicmTIyOjYjp17U2NTATH+emdXN2pRfkEZTlsJETI4iARbjegqV7BWdk+bLzOHaV3EZSb1nrgzwZpgDO6q75JsJoyB3mKFZseKotAA+uBhkzaOoQiwdlcia8yxPDK/oAzYOZ1OOSzd75+BgjY13Q0Gg4FAILjyr7WtHZKfX1BGEFkHDBJu9wSqgfQVbvcExoFg9FIymay215aWV6Hm+P0zu3YfOnLUjEUQBwaHKM/sxldoVnbRaY+ZB+Sb+s0EB9AibKLNlxqPCgC+ZVoSjzTh1uKOnFWx1h5grNCbHeWQCq27jAGAPnLUTKClMc2kyrSwmdwFhU2ijDQiaFhajji63RP4qqamu4GVf37/TCAQgGSmPijRTyaTkfmI0+nEoCJ8LdxCaXkVh38gtgPDXVpeRa/s8UyiSxJ/fTYU2rX7kNPpRAMxtTrCjp17cYtYWHiVX1CWSZ4xRJtjobCr8A3zzWYlY38gWGLNtJIg2fwIc5CAzBuIvZZyA9wV7rGLnsLishsybLdlUQ7jZ6ykFxlZmUNKjjNBDIU2Jhh6JreggVhjXGgymZSznQOBwJ59OSmN7+zqDgQCfv8MfBFsQ35BmQw8+/0zYHTHzr2YZ0UPjWGfMOvEGt2BH328s7S8Co0/hgidztcrfDY13UWrNByeS1WVnGPnDh42BQKByHxkYHCIBpqdkYA405YQS7gl/fignElAhTZOkHXdw+S72jRyKOrGSs/DALSBh95shZY9hboLnuP5DEeOmgm01lrATsgtAZUJsktJ27X7EG/ZO3buxbD9ZDI5Mjom1w9AU480+3zTGHqPHm+OysAoOdQorteBVq8cifv0H3+zWEugstBgND2RQ6ZRjWE8IvORXbsPNTXdhfFIDUaF0Ydmw3Zraca8xkxYa/MBOrfAHYfBorChaeBVdFFeNVPyjYOZQ9BlPoEG97pAb5lCG/cUrgXotaiyZFcCzbRsC9bVO4gg4s2dXd1+/4zPN+3zTbtcw/g22Awc6fFMHjlq3rFzLwZP06voJrBwzI6dexmkw01gz76c8WfP4T283ilAjG9obWs/eNjk98/MhkKBQAB/KBgMhsNz6J1RgNadpctMLc3MkfqdyaWQbyAOvkk5E8rci1Wx1h5ArAGuZJo5qdkVALqopE5aDkQ5tlKhdT10QdFVy3kbFDqTNtOkSj2WvoIyTHy1iZxj56C1Ltcw5DmRSPT09iGmEQgEQDNG3skhoFB0/GlHQyO+JBVxQ98H6gPG4vX09mHEKd3znn05bEeicYlxUdDpunrHnn05CwuvMNA0VYs6u7oxigNjQlyu4dlQCBVMAg3g1r4lzboJaraWbxyPP4Q5RFhogVswTeKRL0En/UxosTbOMZ3JS7vnz75MO2nNnMIt6Ck09tD5hXbrxUoFaCnJmcIXq0qywnRT011oYbW9Fol4PH7wsCm/oCwYDEpthlJSehF5OHjYBFuMtQd4VvgrrFFHjpo9nkkMeoaRYFAlHo8jDOd0OhGkQ8xuYDA92wC2vrS8KhAIzIZCPb19u3YfqrbXBoPB2VDoyFEzgCaRpBlTbLirJNAcZCZ2+SUyIZVbmm8lzfYlmZY0a/lWcsg6+dYmtHxz+KgEemsUmlEObdgOncawHIiXraXZZ8Dxnn05cjAnhrwhc9fuQ1j7Ao/wgbNH793Tf/wN8gwh3H/ghBxIFAwGMVkVmYASUoopW9X22pHRMdgqj2cSgu10OtH7jZAFx5G2trXv2n0Ig/phPDC3Befj8Uzu2Zfjdk8gXIgz93gmZ0MhaDnYIp1o1SlbxKRxjDHra/QnCtD7D5yQ9wryTXMiQTdIK6Ab1IqTplwDhZaWgzaSYrSBxCpTsPA3ZE+h0rEChQbQmazFWtwF8ZUJ8k1VxjwUxN127T5UWl4FefZ6p1JrJqUajow8JJNJp9N58LAJ0QkUDaZOEVA8O8fjmcT4ZvSNY3ma2VAoHo+nVleSETqI/a7dh7zeKYg05uQC6PQCtQVliBvOhkLV9tpduw+1trUHg0GXaxhg0QMoHBvvSspZH7QJKdhKmrZE8k2yZU0D2evl2wD946esukBvTU8hoxxahe7s6q621yJsl1prCzaDt/JMdlkxEplUWWKNkZmYYwKyE4kE5Hn82XPIM6SU3KO/Y8fOvVjbADQj+ECHgFA0x1qUlle1trX7/TNNTXcBIiiHEHIA6pGjZryLgAZuC1yGtLWtHauSBoNBug7ExWk5qL6AmChIkt6S70zOxABrWeA4jP2XhJsJnvNaEidNubQcKOQtXpfDYE6hraKGlkMhGLsKvsquLESktfqBfBCJh5ugBYbR98Fg0O+fcbsn4GQYPAa7iFHgJoOeFxrxWGwRa0Wj8xy9ffL0oOuY/coaBQ2mOcZSpamxRz29fVg8MxgMYpwJqhl6DRH6gPADNbBiQAPRMSabq7hr1Ro5ik5zV5dsuhF5XTDyRMItT4kNTXnC8nchX6vQW7Yuh9ZDK5bDAGhAxvYWccmkyixQYg1V27MvBwuusX3mcg0jigfxq6t34G8hgpFIJFrb2hmdwBPcDh42yb6YunoHVyildXO7J0xn8nA5TWfy4JIh2KwJcMPorJkNhUBwtb2WX5Kac+V0Ov3+Gdj3XbsPuVzDgUBALkRGJuS1N06DDG75DUysaktIMxNrxxoDBjmsSp6GZJr5MjOT5djisRwcnCTHclCh4V8VVdaiTE+saAAJzpTA8XJMEkbT42RQVXbs3Ms2BPFKJpM9vX179uU4GhqZ6WhoLC2vYoeLXG4Ui+RitD66/RAHLC2vwsc7u7rxLsaKROYje/bl5Bw7h5qPcdhNTXd9vml0vKMBinVtlFu5JBgrTcqcTGkFGgItEwZwk2aZ0CWbaiIvFq+gbE3yT4Nj7iJx/JQ1HYFeWdFTG+WQYTtevrdJrNIo1HpoRaHRKFSAVlA2kGRJsLZ3l4HVPftyDh42MYS8Z18OGlu0vGBaKYhEIkFvjc/GYot4MAV6+DCeCacHDU4kEmjA7dmXA5fsdDqx/gGAbm1r37MvJ7+gDBrs98/g4+y5TI3iqKt3eL1TgUDA0dC4Z19OU9Ndv38GE2ZpoMmr0qmGXURmuOXBmRKkXIHJwJMY+Gx5UZCWTCONAmfDQPt3ZQ6AtlXUbHcPXW2vlUBTKZHgb2a1luWiLTWpGRJuHMmbPuY7YexRIBBAKw1/S1m6DjTnF5Sh72M2FMJQIQakQYzbPdHUdJcqu7DwCuPp0M83/uw5brUAGms3Vttrccccf/YcP4oS7nINl5ZXeb1TrGx19Q6fb9rvn8EPlAYa+HJchOxdI83sW85EM/LBtK5GZsJayzSkmjpCmuEGefl4QXmhSbbitrGLRmFh8TWtQsuwnaJHG9tdRaG1HpqWA3FoAg0Xy1/IBEsBCS3HLEQFaGWX0WUMzMcAUUQS+Lcok8lkEoPguHhzODxnOpMnR2jAS2BBf4SQEaqDi6BLHhkdwzmjExFrcYBRru8P2cbsXa93Ckvp+f0zyCf98jYNCinPBglJOeFeo0WRMinTSiNSSzYKX/diKRcUNyheAoVsAJ1GeaWnUKvQ0nLQE24MZXxqdaDX0lOI4Bd/FWuw8uOVAlKQxS6b54iXIROTrzBtG9OcEN/ILyjDmkb4Q5xCm0gkOru6EX/A74Q2y9EdWMsZVgSjnPE0b693Cj3hMBUjo2M4B59vOjIfOXLUvP/Aida2dig0lo5GnyW6GH2+aXSY+3zTWPMAQAcCAXCDNe8gwORYDsBnppIA2WtXbvoQyjbwUraEW8GaQsOrZuCq5aVHmmTnHDsHoLeFQtNDc10OKnRnV7etokYqNH+VwjF+G8sFCS3NLFklcfCwCcvExONx9MxhANDI6BgWxEj1oeQcO4eWH3r4kslka1v7kaNm8Ar/yqAepm3v2ZfD1WewtiImIPb09u0/cIIaTKAxfhqn3dPbB9w5+8tiLXG7J+LxeKrfe/+BE3jWMoGGpaZCQ57pNDhvT85iwkh5hWntLisGQdd1Jlq4KdhKaWNXe3WUy6eYEFxxAiAT6RZIoT09PknPQ2+BQhuPtsu9dAVPf2K9VGhWCkJbUtQtlqy2y9fR0Li8vIzVExGUYAwBY51Ly6sINNe05YL+peVV8llBWFij2l4Lbx2LLR48bDKfLeJ8WLTkEKmQC5vz5N3uCYzZ4J/AqnlLS0t48AqBxlkBaPxAml2MFVbmnHJXC/eqiLOGrBFuMq0tcF2sMwVD5BWXKNOFWqwlhcXX8gvtW++hpUJrx0NToU+acrWhDAVlXWEmxLwPIqG0YxwNjYjjYiZIMBj0eCYRfMAZop/Z0dCIqdpLS0uOhkZ0HGJEP20ZGmeyBzH9eAdrCRaswfPaUreUnt4+BWgM28fpIWaHSoUTSK0+4fVOxWKLCGZ7vVN4KNH+Ayeamu6ijcifRlnlfFJybJBQENeqNXIwrAIm28BqS5plmleEQsNqzJY6r6yuCVFc9a7dh/CEp/xC+4fgoQvKLuSlH64qqyl/sC7EKCAWHBOyWGWaZhqx53B4jkvAUHdhkbksBoDG3D4MxwPQGJwkh1MjH3NVMKgIK2m4XMOQVQx0PnLUPDA4hGCIxVqCAIjbPYE6E4/H0fqMzEewaK8EGr08Xu8UgJbNQeArVx7iohYGZNOicL5TJrjXotmyqJnmRWFCYq0lW+tApFQD6NxLV6jQ7CncsqdgGXtodrCxypJp/niWCMsICYoxS5ONGOaA6Z7ePtwlfL5pLPNMTLG2eWtbO1a44zKKiFhTnvGwLASh3e4JuGq0IPcfOAFJLi2vQk3ALh4LhBkuPt+06UyeraIGfS49vX22iho0VQ8eNmHVhKamu1Brr3cKz3bp6e3DIEH8HCqopNlg4cNMZFPdlXmpCtxy0L0cEyetNh02CxwJeaVkk1HbXuTllrpGF6qr0NrBSVsf5bBV1KSf7VxQdtKUq+245s82QFmWIDiWBS3JtlhLMKweTzxB1zSKADGK/QdOuFzDQG1h4ZXFWrL/wAnTmTy0C5PJJMwGh9qlRopy5iykF4OqS8urMD9c8g3b4PNN2ypqHA2N6BXHUKRkMgmIsTojJt5CoVE3IPZYdEaRZ2ozFp/lErTI11LOOqClXDEkBmETOaY5U2nL6yKxhrLwnqlErIG1wvSefTlahdZ9JAV1520Sq4TtjD10ajFmNgpZR5EgxEwo5SKLDGmlcOXukaPm1rZ2+GOsIEqzgZH1qDwIpc2GQilFxGn09Pax3mP8BgoL3SUceYfBSR7PpM83jfWQ0KoLBoPms0X468jBUywQD6mrd+QXlI0/e37kqBl2yOOZxJgnt3tiZHQMHoNfi18EGwD+0qvNcpFw5cE/K6s1k2kmWAew9JZcgIuUK3BTs+lA4K2xK8uZae3VkZdPqjWvrwKAxPoTS0n6WfYFZVoPLTtWeKXeI9Crd6yseGg86mFjKOsKM0sWiZxj5/z+GaxI5mho5Nxv6C5iw7aKGoxVmg2FWtva0b2HVXThCo4cNSOsgREXnF4Vj8ePn7LW1TvwtMLS8irqsc83jYvX2dWNhl2qdwYL7MbjcQgwr31Pb19+QRl2Id45x85B7NFSZENtdZol3G+enaXoN8nOZLszYU2+eT5KaXOXP422UMGaNNNYEmuaT12FpoeWQL8Nx/zsOhRaO6eQUY7T5ssboNkAZUoICxdVa2BwKL+gjJhi3DP+NObJIv6AZ/+A+0QiAfjYeQ55tlhLcP/BerhNTXcBdMqOw/X6fNNOpxOXcGBwyOudwmpgeJJQLLbIqAUvPM+WCYu1xOebxlPhSBIQxGLg8jlofH6U0YNLVviGYEvZXi/WVGvOmEKZ88x5dfjr8Hsl09J7AG4CjQR0OhWkx3O/pUJvXw99Ia8KAEnTTLOF389CYYLlxRKkYMi5xGzHxGKLeHC3NBsMEqO3Ga63s6sb6+ZjHVEMuMs5do7PwsLTJ6SBPnjYhJXPBwaHjhw1j4yOQY/x5OPjp6ywDbDabvfE0tISBjYhcsefAHvKH3L8lDU1DLqnt898tgg00xXQaVgvVuYXlGV6lKUx2a8di+ZREgZwswXJ2sXudEavOb0Kv0vbZFTIljqtYA2d/sTyGmhGObbMQ69qOeihlV8l6zEgRiloOZY0sHBlcYOP/IKy46es7MhIJpMpBUVwA6EMNOkCgQAe5V1X7+BcVzxDSLpni7UEz5mNx+M5x87V1TsAdGtbe2l5FaQajzk8ctSMHNjr1MF4ShBWMcUtAijU1TtsFTU4c4u1BAvqESCizAafhBgPGDYgWz7lUp/yN86EVgQJ/l2Z4Flp2474LQrTJJt6pO2LUQCQUg2gL+RVSYXepuOh81c8tPlsEX6P5Firzbo0K+zq7uK2ePyUtbmlA1xi4DLuCYipcYAbzsTnm8Yskqamu8dPWaU85xw7x3F5kPOR0TEa6Na2dqTZqoMbGX/2HM8Px8MIU13reLqco6HxpCkXswfGnz0HKxi6bauoAUZswLEVSJpxL1ae/I5S5TFa0FWm2bJcG9bSXmsLnI1FBWutVBtjDaYxtyj30hUJ9NZ7aM4plOOhEbazXqw8bb5MO0WO12Ixob6MlbJwuZ4aJQTHIOiWegQywsNYxgD8+XzT8LhHjprREZhIJDC+lGM2xp89x5w/1Aos21Vtr8VjVvCIZbd7AkE3GIycY+dgoJtbOnKOncNipFgLAQFBxONwYoFAwHy2yFZRg5uDraKGeiwRBKlAOdP2Ql4VIIB4K8+IJ+v6tptP1PxlqCRTSASVkIXP+yRNCO+i65VqKA4th1ToLfbQmWasUKEVbZb3JqU4sIviY9MEu7wVcklWJHiw1zsFmvHn8gvKSDMsAfIhz4lEwlZRc+SomWvbMSaNiYlwCJTnunoHYh34TvPZIkgyduF5+Ahk3ivMZ4uOn7LCwIyMjqXqNpQ7mUz+DPRK1IIUAlagnF9oT8fyV7YK3JJpSLiUapmWteXn9BualRak9B7sdNQybYC1ItWKpaa0MfSBRuGFvKpt7aEx2g4eGsHaTNqsOA3cyHRVWQKtlDvaVQ97fsKUk5xj51LrtCI2zC49FCWWR0okEmjhUZ4Z2eEE8tTiYJ1d3XwKVqoSOp1O4Et5xgEu1zDqIQw0phfgcQJo+eHLb92+94nltTuPxRZfy7OgGVyC4HRoNvNLS7nCN6uHNvEz028eCyvjIRZribbVKE2IvCtSShT7sapUS0sNhd4ucWhl1rdiORSFpjArEOP3o1BQRnILjqkWRJnWEzksaBiVkdExBJ4DgQD5yy8ow0j8yHwET4ANh+cUlFvb2tlw5GPd8AQJwD3+7LnpTB6iyOD71u17aJLCQLNHpt85lFrCAQETDBRhcNDtnqDfAHMX8qoUgtOLQBTasVXe4i7J1qo4nbduqARYv36y/C9NCKy8ttUosZYXCOqDLS6l3PKi60r1kaNmrUJvIw+tjIeGt6NC87dlApo3MpQXJRlFqUUZhS6LHlinxt+Fw3MYTtTc0sE/R7MBBPmQ42QyGQ7P3bp9j9ao2l7L5xQ2Nd3F+E8AjbFKqYmSkGevdwp+o6e3D4t1MHSIZ8WiidnvHDptvkx78/U3jwg0nC6FuaDoKl6FxdeYlgnSrCQIN8wJ9d7AZ1OtXa7hgcGh1F2r3/l6m6qNqUA7d/EWdnEkt8qR/Ag+7nQ6BwaH8P0AgIWMbinLeRvu5NvCQ2M8tK6HTj1uFQ0X2E1Js6zBCsQKyoSYCXIghYQ3TQg5hm14vVPV9lr+3YHBIcQZvd6pnGPnOCMLD/EG9DgYS3xAnnt6+46fsvb09oFm7OYcO8fG4sDgEJpH8Bs+3zQcM/4KIonxeNxy3saVEqLRl/kFZafNl/ETrBcrYRigx4XF17QvCbRMK0xjVyGbzUeDtiOYGxkdG3/2fNXXyOiYyzWMdTFR7d3uiUyv8WfPcTwKSqvTUGjrxUoJtDZsJ2+kG06v0lOI7vVMT8FK9xSudAp8YikhVWgxEGgZx5BNQK3NoMGQqoz+Xm75Vnp+7sqgKPyhVN87VntZXl7G9EGOpEM8mKeXWvsZuitpRmDO45l0uYYt1hJ8p8s1DL8B197a1g6/wZkv12/eScWt0AQcGR0zny3CAnyYL4N7DoEGggVFV4lyUUldUUkdd7UJYm1gSxSyDXx2v3NoZHTM75/BgMRo9CVe3MWIq4WFVxhuPv7s+ZOnL/BsDcyZ4AOhMVctvvIP4a9AIDAyOjYwmDZgfFGntQqtazk2dSyHrkLbKmpw16NCk2OZkG6MQ3hp1xRh/oU8yyENSIteMXa/VdtrA4EAJl9hrSMyh0hczrFzpjN5dfUOBOCgxKkpAngu1q3b95Djdk+UllfhzBmNxjF4JAU6CGEwAoFAzrFzFmsJIidYbh26MhsKfWIp+Rno8zbrxcrcS1dAMzjOtNXFWutMtLItyX59N1jpIsDNwXqxcmBwaPzZc1Y5AwlcWlry+aZRmX2+aSzbzkeKKYl4PJ5IJBYWXqUGafU707cyAs0RIFqgx589R9huK8dy6M9YWSm1TyyvVU3hWEoynQYJRoKiy8E37BZmswaNKhlzxafMZ4sGBoegH4lEAstukGY8GxMdgYhL+HzTiDGPP3teV+/Ag+bJN3LwGHBk4lnLpjN5Hs8k5JkhORzMXfIRjb4sLa8izemBZgVloK2w+Bo4Li67kV4dq6IGCWyLSuqKy24ooOMjCuVUbt3WpJZsiA4UGlPTeba6iVhs0e+fQQTJ45ns/ntN25PLuq/bj37/P//3n8vLy7HYogSaWMN+AGjZscKu7200p7C1rR0Kbb1YKYFmPA6+kxxrPQbH6BioskSZ8SmA/oklbR7QhYE+FFtFDVcA6+hyonY1t3RgUq1/5dkrbvcE2nzms0UYQ+f1TuHh3nBHqTGxcCNe79St2/fQiY1Hd7pcw+hxdLmGT5pylWFSyWRyaWnJ5Rp+8vQF6yoqITwDlrAvLrtRYvucL9BcYvtcgRsHS761cEPydbFWwtsX8qqo0DIYnwlo1Hy/f+bpP/52+9Hv/9D9r5lebU8uQ2WfPH0BD41il7HqbarQuqPtcEdTgJYoKx6D8kxhZoLtcSqxjEYpvcE42OudgjC33+9PdYswQoewMTr2sAJdMBhMPU1QajB7BFNr4yL/+CkrQh+42/b09jkaGv3+GUwTcrsnfng8jhj2J5aSk6ZcBu+ARapW4AQ6u7plc1DKMzlWEqBc2epqtmK7yTRlW3Ej7L6hQmNEgC7KyJQKTaDbnlz+73/u/5//+8/uv9f8z//953//cz9Ab3tyGbWdCs27NLzH8VNWXaDRKNwChTZYlwOTOy7kVVms6QvMyUXSNBsLM1t7ujQzfMuAKxIA3XLeVlfvuH7zDhctx/V48PBHlKmjoRE0BwIBl2sYXXp19Q4MpoP3cLsn0F94/JTV0dBIp+HzTbvdE7OhUDT6MhZb9Pmm2TVYV+84acqVS/d6vVPXb96BeMdii4XF13DzsZy3IfZcUHS1qKSOEJd/+gXTugmqOGQb5kSXb+lGyLRWs3MvXel3pj10MBjcGNCg+X/+7z/56v57zR+6/7X77zWAUlFoqdNaoNko3LI5hRzLoY1DS6ARoZPWWbfxR7PxGujzNumbpTATZUSmGJ8i64qLZUy6rt5BmmGmbRU1mA0FlDHPD50vpjN5aAWyJYRVCiLzkVhscWBwiDTDbJjPFjHejPlX0GZ0y+MuZLGWsC2o0Fz+6Rfal0J2yj7Bh8gtbQmsCE25LtaKVK9dodH2hYemQj+M/pYoI/Efnn8B0FKhYdukSB8/ZUU5KGG77TKWQ/YUlpZXIfAJhVY4pjZLm/Faut6MUqcw0x9ziAJQVoY3yN4ytNx56/SvPIAQNaqu3sGVBppbOk6bL2MSClFOPScFNsN0Ji8VokGPt5ZmeGuuehoIBPBLGeHGl2NkUjg8V22vJc2U58Lia1Dc8k+/SK+I9dmXc/HF2QAAEnVJREFUSGiZZo4CN3fpSdB8lI1IrcNGbIRYDwymw3ZY7gxxNy75wAQicdHoS62Hfhj97X//c798EWip0Lg5cxQ7yNYqNBuFWxblyKTQ8NCW8zZdmiHPEmj2laRR5qBHMdoBXyiFme0bXhtSXln91YOHP3Y8eFz+6RccxnTr9j2sfBcIBJpbOkxn8ppbOogyhqCwrweyDafBEdWpWeU9vX3V9tpbt+/xEcjh8Bwi34yiPOz5KfWIxPb7/XhERl2940JeFc1G+j6z0q0NeSbNYFrZ8l0yLRMEGrItd/HlStsRgq3Ya1iOcHguFlt89L/Jf/+vVwavJ09fYIFJKvR/eP4FNJNsAg3bAA8NoAEDdRoKbTlvM+5Y2aQ4tDKWg5YDUQ4IquW8jYjoCjPjGD97jDcxZmizVpjzC8q0KJPp14mVoGF+QRn6EevqHbCJABoPeMVaoIrBMJ3Jyy8oa27pgCozRIXnbKSWaOp3DnHMNCYTAFZqs9s9cdp8mV2DXu/U8vJyZfVXqKW4hPmFdi3NldVfKTRrdyXNTJNjJLQ+WxdrxrAR5UA3yr//16s9f4lkelm6oh7PJAKdBJocE2sArTQKCTQHM5nO5FH1CDQ99GYrtHbGirQctooa4AigGdDAfZzCTMf8M9a/pJmGON2EWonaUoMVgtnuYT6HMaAzHL4ZXeKoWtX22qamu9X2WgwCOW2+jAksMsoxMDiEsaMu1zAn0sLMxOPxzq7uk6bcW7fvMYoSCAQ+sZQoyy/5/TOorqQZZoPqW1n9VaaXlmnmAGgYFQO4Gf7LhDUUemHhVTT6kkArIm3piu75S8TSFX3y9AUGfj39x9/anlz+Q/e//ofnX8A0t1Ro9CCmFljrdw7JeAA0jh5aUejt4qGp0J1d3T9HOVYUGkBLjs1ni+RgXK3H0Aozxzwg2gVwyTESVB28iyZ8NPoyMh/BYs/oqJOGh3Az9gxV9nqnMI08Gn2J2ktTPhsKNbd0wDTzkbLJZDIQCFgvVnJKIo4PBoP5hXY5CInWGWhqUbZ99iXUmm8RYiWh9dwlts+VUAnbi+iy0WKtVeh//69Xj/43KV8A/azDA6BlHJoKzQSBRtP5ydMXGJ5Fpjm4UqvQW++h2fWtKDSaPpbzNhAjGeLYDDLNJiAuvGwIgmMGTSnAEmXZlkcbiPGp123TFeHHfQC3hWp7raOhsbWtfWBwCBYZW3SyYHUv6i7QRJUoKLoKI4jfBfsRDs/1O4dSa2my+yYej3s8k+33+/GsGWoz43SkueqPjZXVX2ELgmWaTMuEgjV2deHWdSMK2Ric5PFMPnn6Akr8u/Ff0AxjbemKWrqiPzwex1Akp9OJeHMmhb796PewbRjLwZYMvQcsR+6lK1KhdS3HJnnoTKuPwkMrQEt5psFINwThMVYiWa87z1ZGNcnGn5ZmNKrQuAHNUnjYxQCsEdGzXqwsKLra2tY+/uw5nv4NdrniP+6k6PpmMC6ZTMZii+33+3MvXaGW48HGjoZG1A1sm1s6MNQuFlt82PMTVBm/iPcW0AzyJLtVf2xUXgriCs3c1SV7VRNSYvscxYVgCIZ3Pv3H3777fviswwNr8YeppHz9bjy55y+Rsw7PD4/HR0bHUou99/T2Eej//uf+h9HfKpbj9qPf9/T2jYyO/fB43OUaRunhXk2mdRuFWz+WQ7enkFortVk1zRqaqc2AgChQmLUo6wJNvrFaa+6lKwjYsXcQ+GJJjZHRsda29uaWDsxdvXX7Ht0FRjxj3br2+/0cwROPx3MvXUFkprL6K79/Biri9U7ZKmrIsTx/XW1WODbeJcfahC7ZNNaKCWHbEUAjbId4DqzF78Z/QfMfptKhD4CuKPR/eP5FKjSYRmc4FBoTOgcGh6BoxBpMQ7akQtNybMeeQtDJ+SZwGj/bDBGbw5HwzQwzkwZd00ybAXZtFTXoMEMbn11oUOuCoqsYHhkOz7ndE7du3yssvlZtr71+886Dhz/29PZdv3kHJV5tr11aWgKdBne69FiO87bC4msMbiwsvLp1+55yY5HVD5E1kCfBtV+/J3d10xBsvKWlmTnrwpqha62HtnRFpTz/YSpJhdZGORC20yp0999r0Jn65OkLp9OJ4pUKbTqTpwWalmPLegqNPbT1YiXNBpzGz/HmFaC5rITUZqCsOA1d00wlZtOHrpEXDOh7vVMu17CjodF6sfL6zTt4xiuRxbQoW0XNwsIrDDdVGoLQbAyGTMfgztv4UM1kMjkyOlZcdkPeRoAye+zQVkNrT9IJmu3X7zFR9cfGtSNOlJWEluxMal1cdgPPb8WqfFRiBWjdKActB2jmFgrd/fcaGeUgBhA4SLUWaA4f3UYKjTVZOGYIv4S+WQY0SDO1mVE5qcpS5xRhlqrM+CuZ5r2VOp1faG9u6SDHwHQ2FMq9dAWPB0ffWDwej8xHvN6pBw9/TEXl6uod1fZaOv7cS1cw+AmTYa/fvKOtbDgxW0UNg2ugGSoLggmxNgGsSTYTin7rWm1WGwXrTEyvXaH//b9ePXn6Am0PxqEVy/Ew+ltGOaCyUGjcnyXNp82XdYHemhkrcvVRYw8NoOE0wATJoCojgZ+nCDNp1jYBocpwFxJiXDklgFVcdgNBPT5/GzT3O4esFytv3b4XCAQwU+PJ0xfAl9EYnjDMcb9zaGlp6cnTF80tHZnOipKscEwBJtMGiTViTSuiGx5RsNY2GeGhZceKpSsKG/278bTZ+MNUEgqNsB2BlnFoyvPD6G+p0LKnkECDB6nQn1hKjDtWFAFiC2ddidWnYGWKciAOjSjHhbwq6TQUeSbQuh4Dd3AGmJXGHz2GFGYpQjIN3KHTldVf4RKmW4GffZma/pgaPorV//3+mbp6B9Z4bW1rf/L0RTAYjEZfjoyOsY3LWwdRZsSAlUr2mFBTpQwbQKwcJpnmW6wV/HImFM02VmucsK5CE2Uk4KHZsSLj0FBoCbSi0Oj6BgY0HggVSIVOrdeT6eH16wI308GrAA2FTiQSmcZysKUvIxsK0LL3RHYE0ozyVm7gNIgRRJEcK8qElj7a9Qx9XMirQgwuEAh0dnUj1lZQdJXjNFA648+es4UKjgkxqxP+Lv6odMkk0n793rU/tQFlJK7fvMNMpI1Bx7uSZl0rojDNPhptgUCtgZFWoYny78ZfKzSA3phC8xZNhTafLQLQUqG30kMrs77ZsaJ46J/DGm+6tal2HG9Em0H9o9PQoqz1GMYoywsJrIEjotRVf2y8fvNOYfE1DkCVT1rxeqeaWzp4VmjkoQpJgvkn0DiDXko6QTC31/7UhheB5lv26/cywS3rxgbUWnesSPmnXxgoNJmm5cBCgetSaIyH5o1aeg+p0KklZFG1tjgOravQpeVVVOjXzcE3NNNmkGb6Da0wK7d1NgGpi5It3ugpk7zhgjPkA0QMJi4qqcNNgPbG4BzwR/lXlMACb/oKx2R3YwkDvvmHqNlrFGyF7EwemjRToQ0ahdJy6Hro9M35lxOZ8TwKmFIsJi8tx5ZFORi2U8ZyWKwlr+sfhji/ATo9Am5ltjM8hqQZQgjhJMoQRYaZOapdQZmcZaJZ8key8W26o4dhuGkt+OekBlOJFe3cGLsUaSZ09ZscU6SRY4C1rglBIdg++xKDk6Tl2POXiKSZQCuWQwnb0UwrHpoKTaDppHFXVDpWtkahjUfbQaHpkDhUQ8ozuj0Zp6NGZmoFUp7BloHNkOySP/pavssrCh8it/xyJlhPCLEEi+lMKNf/ufPan9rq/9zJBHYzHa+bT74zeRKFbN40tMNFZCHojrYzBjoQCChhO12Fxnx4NApfD3N/o9NoWWHZJMVDb/GcwtUV+s2AfUkzWFdo1vpmdkwgpkGUyZnWyPJSEWVeTnmBkVYOhkWRW7ao5LetC19AzC05JtkK5booX/tT2/Wbd/gWyeaZUK0NdJrlgN/CnwkPrXSsKEBjhLRxlENXoePxOIBGn4PipKHQEugt6ymUcWjtuhzSQyvyzA6XTDTTbOB2T2Feo28mo7x+Wo6Nr7ru8cgEQAQLCQVNsrvGhKLcxnwDZfxdpDOpNV2Q9uewiJCAh8bUB/QUwnIoW46HxuoOUqExooNbeOhUlBqPIR1/9nxgcIgY0Hhw+X7LeVt+QZnSKNwCD50pDo0oB4wyBgfKsIZ0GnLiSaYInWKaqc00DDQDynVSLqQUM+qZkmm8S2tLjteI7Fsexj+HhNxSqnFuyvkb1FvpqrFQXarzn8NHDWasKIOTwC5Ms9z+oftfbz/6PZYiwfJ2rxc7fTMcDVKtVWgOTtrsGStSofV7Ct/MbUbV5IRtmA2OD1aiCkrvCUSaE+ZocxFAJdNaY0DHTGWVCeXC6+4SXymKhOktGV37xxX95gkoCQRDdLFm7VVqOOt/T28fXq1t7WcdHowg1d2edXg6u7p5MBqFYFq7vf3o961t7Rj71dPbJ4FO97yuRDzYymJPoS7Qm9RTaLwuB6IccP1UaGmdiTKts+yz0F1MCPK8Ks3yysnLaQyugoh29y2txdohNjiSFlx7elRr5Wca6DRcWWoBYjx6FJPNkEkJR2FWVn+Fd+XB1fZa7QuPJ8UWX4uPoBNNMR75hXYsr1VaXsWewu0S5ZBhu/SY4BWF5uwjtAh1gVbMhrTOctkKmg1G6BRhVq4BsSbTypUmAVo4yI0BW5v8FqWa9Ur3tPmjtD+W5cCSAbsKlBiJhUyZVg6rttfiXbmVmcpnORANvcUYHrNGy7GpCo2H10fmIxLodKNwJQ4NhYbfwNnrtgW13YGYVaGENegxmOB9U/EYuGa8hNqrq0sDMknMJiO7rj/HKqf7Q7TdMQY6DfUli1pwmWOrqJGv0vL0s1FKy9MPZeMrv9CO1cHTk/PFS86FS+v0SvxOAXpgcMjtnsC6plvsoQE0JoD09PZRoQm01Gb2JCvajCAdujmUtiDCc9RmpQtQq80SZbb3iTUgUMzxB8GxhF7R7Exk81czQbgVqZbqIHsT2bfKBJdIxe0UeoSrSSfJqwwJYyNKmunXjtSaHm3X2dUtgeYAf92B6ZlGIBnkrzI4CXeB5eVlKnQwGPR6p1JPF5ZA5xfaOayHP5WmWRFmNv4ozJJgbTRDXg9FkrUQK/jKy//BoSyx5snLXyTTq5oQbTHSRkusUf5kGg10XCn0EtAr6vINEqBr7JGgh7ZV1HR2dbtWVpJPjXkMh+cANJeQNSB1jW+tDjQHJy0tLUWjL2dDISxkiNW0YJLyC+34eUq8AgUBXo2p1fUSvAZSialAMoEwLTomGApAJwW7KnQTEhQFIGX31u17681RPqLs1v+5U5vDP0FhpuvAqUqI2REjf6lM05OgfHSD2RRyFDLLHAneFaHrvGfSDSoVgCLFcb8Y84iIR129w+l0YrHMQCCAZZww4WWzFRpPpVhYeBUOz2HAHaYE19U7LNb0avVYzkw+LmnDaSxQctp8+aQpF1vdr8Jb8mDd4/k9nLmJBHe5jkSmhDz+naS5Is/az8Hg3OSvVoqLv10eoxQmChBrNhgcpnxqXbunzZfzC8rq6h09vX0u1zAMdDAYxIIeXK9+MxqFHA/Nx6xE5iPBYBCPLEg9udXpdHZ2dWM2dVPT3ewrWwJKCTS3dLS2tXd2dTudTtDs9U5BnmmgN89ySKCxZCVEmkzLJyDxKWB4zhe3TKQeKvNe086Vf/Kv8M/Jt5BWcvApvpXpS3iYPGBj6Ux/Szln5TDlXeM/LQ/WHsl3tW/hUsoDdI+RZagcQBiwwI3LNYynaYHm2VCI8oyntIC05Fv/W8VD4/uVMXfR6Es8IxAruWCpB49nEmvt4Lw3c+t2T/DRYwYJeRhOVebwg9q3DA7jpzaW0P1bzFx7An+d56A9YXmATPNImSnTaznA4Bj8BBCCSQNy4W3pnt+J30gmk+sDmsYDA5W4ojjXKJLLbWXT2RLAPC4sW4WnpIbDc9Hoy/dhNiC+awKaxoMDlZaWlrCOJR7yFQ7PYf7pbCiUfWVLQCkB4MHnIGLFf7QF36F73iDQMoqHeVkLC6+yr2wJGJdALLaIF2wGVvnB017eldlYH9CKmU4kEnh8AR8qihPlww2yiWwJcDUfJqjKEGbe+UHXO9mu1XIQaJ4EW4qobThXnvGqiVUPQPek/HJtjvyjv5o0f4huQpvJYuFbSg53tQl8JFO+/MK1HKMcr1w73NvZgfJuhZmVYX1AM7aCs+EWZ5ndZkvAoAR04SGI7yqxbqD5h0mz7olm392EEjCgJ9Nbm3mxMpUAEXofiY0D/T7OJvud2RJ4yxLIAv2WBZj9+PYqgSzQ2+t6ZM/mLUvg/wNTLNIM4x8p8gAAAABJRU5ErkJggg==;" vertex="1" parent="1">
          <mxGeometry x="78.65" y="130" width="121.35" height="90" as="geometry" />
        </mxCell>
        <mxCell id="jqA3G6PTlr-n26VSu3n4-3" value="" style="shape=image;verticalLabelPosition=bottom;labelBackgroundColor=default;verticalAlign=top;aspect=fixed;imageAspect=0;image=data:image/png,iVBORw0KGgoAAAANSUhEUgAAAPcAAACmCAYAAAAGXhkBAAAAAXNSR0IArs4c6QAAAARnQU1BAACxjwv8YQUAAAAJcEhZcwAADsMAAA7DAcdvqGQAAG4KSURBVHhe7Z0FuFbF9v8H6U4FQTEwMbiKfcXuDkREsVuxsLvjKraYWCjmteNnF3bHxS5UROmOg/jfn7Xf73vWGfZ+zyEF/uf7PPPM7Nk9M99Za9ZUjb8ThGpUoxoLHRYp+NWoRjUWMlSTuxrVWEixQKrl06dPL4SqUY05g0UWWfjk3Hz/RxA5dsqIar/an1N+XMYWBqR/Nx9CiawM8Jg2bVq1X+3PcV/wZF+QMV+q5SK1Ejf2q1GNOY1YiNSqVatCecsSMvM75jty+wSNSe1r2Li2rUY1ZgWQ2INjEdn7lMEFjeDzFbmVgPgi9NSpU82HzJ7QZWXV5K7G7KF27VpWjvABxBbZRfKY0AsSwecbcovMwJN78uTJRmoywQj+V0rqsqll5lejGrOL2nVqh1o1U2JDdJHcEx1I8CwoBJ8vyK0EE6lxktSTJqXkhtQTJ0wMU8tSSf6Xnf/LwgLXKSOqw9XhvLBQq1ZN82sm8XVq10mIXduIXq9uPSN5vXr1ivdQPkXqanJXERBZ8MRGYiOtJ0+ZbKSeNGliEv9XmDBhgl2LX7du3TBlyhQ7rkY1ZgWUIQgsv3Hjxkby+vXrJy4lNyQXuXGU0QWB4PMFuUkoCA1oYxNGYkPs0aNHhymTpxiZcZMnlyXnp4S//vorCVcTuxqzjnr16ppft26DJFzbCN6wYcPQsFHiGjQsEL1cgovcwvxO8H+U3F5qi9xI7JjYY8aMSdz4xI0Kfw4bGSZPmhQmTEk/u2HdGsVwNaoxK2jZrEFYbNEWCbEbhEaNGoUWLZJwCYLjLwjS+x8jtxIHX07q+Ljx400VHzdunBF7xIgR4Y8/hoVffh+VEH9KWKz1UvaMBvXrmF+NaswKJk5K7Td//vFzooLXDUsu3jy0br1oBYI3a9bM2uBS0evUScvcgkDwf/TLsoiN1MYSDrFRwyH2hITontiQuprY1ZhdqAxRpihbI0eONiEyPhEuI0eODBPGTzAhgxZJ+cRRVoGIreP5Ef8IuZUwCgMSzrq7/poWJkxM29epmxgGD/6tArGrUY05BQkKJPfw0ZON4JQ5CE75w5CbGnQn2/UiuNz8jH9ELVeiKIHUl00CDh8x3GpMak5U8sG//B5+TaQ2id+4SZvQuFE9u/evv6aHmjXTCsKHq1GNWcG48UlzcOxQEyJLJOo5bfCmTZuHli2bhRYtExW90P5GPaf9DdQGpwzPj+r5PP8iJYSILXUHYk+aNKloGafmHD58ZBgxeqLdB7G91PZk9iQXqsMpqsMpfDgLlC3KGKDMjU8EzJQpE1PtMQmXlZUV1XOEEVAZnl8xT8mthJAvYsfqOJZxVCNUJGpSpDaJzwCDRWrWNAdiX+erw9XhrDDQMVAYv04ijaWeq/2NcJF6jg0IWxBCSOUWUJbn17b3PFXLlRAkDGF8bx0fNWpUUR0nYb/5YWj4q0ab0GGpxsXMqUY15ibGjJlg1nNQmXou67lXyecn9XyefUkesWUdx3Dh1XGs42DxxeoWiV1jkfJatxrVmBto1ryJGW6R4Nh6SqnngLKMmx8xTyS3iK2E0EyvcePGFwerjBwx0hLwjz/+NOv4n8NGhIZNWoQll1rBrq1GNeYV/iqbGoYM+SlMGDsykdwtQ4sWzaz/u2XLlolrEZo0aZqQPx2eqsEtOGF+kd7zVHLLAaQ2xEYdlxENdZwRaHRJ/F2nQ5Kg7UPd2tXqeDXmLRqgejdpExap3dDK4sSkDY4NiHkMY8aMNdsQxl8gCS5fQmx+wFwnNz/qfzhLHYfUUscZWgqkjk9J1KBahZowy68OV4dnJ+x9gXkLUs+BrOeUU6+eZxnX5hdig4p/NYehHxXBNSkEyDpOTUiNKOs4NSXtnaZNG9qwPyW8JHhWhlSHU1SHU8xMWD7li7DKGT5jKiiLqOeUTSYq+cEtSO/52Xpe/rdzCfrRIqkTnwRBHacGlDpOzQixAe3s2HhGbQpqFrov5IPqcIrqcIrKwrEPVL7kg5q164S2bZcOU2ssYTYgmoyxeo6QEsG9MPP+P4W5ZlDjxyC2SC2pjRGNGm/sWGZ6jQ0jRowOv/32a4Wx46hE1W3taswPoFk4etTYCpNLWrWie6ypTS5p3rx5aNKkSQXjGuUeXxz4pzBX3qyf8jWYJLZXx1OpTd92+WAViF2/MLyvGtX4p1FKPUeCSz23hUUml3eR4XsO/BOYa9UKPyXHj8rF1nGvjmMd98Rm5FCW07lqv9qfk34clmvStHkF67nUc8owREdYMYINUMZFaPx/kuBzXC3XD/GTwK+sQgLE6riMaKjjrRdrGWol7Zzp0yuujVaNavyTWGSRmolAmhSGJ2V26K+D0vEXTj1fbLHFbNRalnqOS58x79XzOfpGX2PJF7Hp085SxyE2Q0xRx6uJXY35EZTJ2nXqWBmF2Bp7jtRm2S/Ks1fPKfMSbhJ24sS8xByV3PoRfkzEVp/22LFjTXLbQJU//yyOHQcdOqwYGjVuktybqkWABOU4z69GNeYkfLkqFR4zenT4+LMfQ/Mm04pjz1u3XqzCyi2NGzUyyY0E99IbzEsJPsfe5IkNVHtRk6X9gWkbhZVVqPGwjk8vm2DqOG2aWrUqLsKgBM3zq1GNOQlfrvLClNHmLVqG5dvXsrLLgCs/uAVbkhZ2UPmHF+LGvMZcU8v1c1LHzfCQJACGCDNIjB1pKg6qjocncV7Y+6A6nKI6nGJmwlXxFQaEW7RZ3soufd8MTaVsp8uBTbB19fPUc+/PC8wRtVw1k2oqI3UJdfyrr7+3gQErLdcqtGy1WOEp1ajGgoNffvnV+r6R4O3bLxHaL7l4hb7vBg0bmHr+T/Z9z1G1XFBtRQ1GTUaNxgIM1HAYIsaNnxTat2sSmibtEz9KqKpYpEaNQqjiKCMfr3BWHKgOp/j/OewRx5cql5xbfPHFrElJWUY9R2iVWthBQg9ie67MTcy25FZN5H/AS22/AMM33/xg1nEb6bPUCqFZ0taeXTBccFYqiGpUoxQqK1ecHzd+bPjmq8/t2BvX2NiAhR1i4xq+MC+k9xx5QympzSgezfjyg1UaN6poHZ9VVBO7GnMDlZWr2rXr2KosmjmmhR2yjGsAXogb80p6z9HqQx+PMYEpcZoYQi2HOi7r+GKtF7fEATJYzAlXjWrMCnz58eWplAN169YP7dotbpooZdv3fcMFhBvDrcULAKnnBbHBbKnlfGSWSs6aaKyuArmHDPnDRqJ5IxrdCUqgGLR9akQqS961MZo1qR9Gj03ngyuc5QMfrsbCgaz8LeVXFfRvx/g7Ke+UUwTXiOF/hp9++tYIvtKKHWzkGqPWtGqLXxIZvswrw9psk1u+yK2lk0YMHx5GjBgZBg/+xZZN+nbwtNC2dc0wfnLazm5UL1FjkjCLMvz+5xTzWTeaMbw6rgq03DFbw/iljz2y1jTXOOLpSeYIigPxlFM/FxiVLatNxv08zz9HoILyAyJisD80tbyu0zE+8OF/GtOTIiMDFGGBOP0DyCIFUDrE55V2Pk+UzvjCtKSskR/4Hor7O3mu8o+woOeyzDFlwr8rXvpY5UlbDlUGymyNqd/bskzt27crDmzBco6ftaDifE9uL7llSNMYcpH7gw8/M6vi+MkNktRGZU8ysUbNpCCUJ5wv9PE5wHnigS/jSVkyEBeHdZ2FaycHybtDjQwfZIV9XAnUqlU7TCubFGrVrl+pX6/WmDB5WtPiMVBcXjjP99fkhSFG7RojQ9nfLYwgxJcKg6pcRzh+dlzZVRWzc++chL4j63uIizFtWpnlvceizaaa9O7QYRkzrLVp06bCmPMFhtxAUjsmN33aWMlZ8BBy/z4sTZwpU6ZabfnX9Gmh5iKVE+efgJfAsZ+FUufmBLwklMTL8qsCKsjpf6d5kRcGOlaF6sMgPgbxs2rXrmkVOb4q3rkFKu+/ytKXVBbO8mcbiSCoFcaEevXrh7U7r5q0xZcoLocsq7ks5rKaz21yz9bTJbljYEwTsCCC6WXpUsWCiA3JvT+7EMlmxo+dJ6v3ic+CrsmDvy/3GQk5RVCFfRzw57N8EBMuhggocL3uUdgfCz4M4mO0JOIgMiAMoeV7eM2LsI5FMu/nxcVOJMX56+J4wV83s5C0jqW2B3vI5yGPN3Mas/0GPhTIIig/DxREiCwHyT2xFfbXeKdzeRB5ZsaPnYhcKt7fq7D82Pl4X0n489OwrCYOIImr6nS9fMir48pg186E0z3yfRgCy68M/hrCOoaIsZ8XF7uscx55x1X1PaZM0sqn5UIMTCprZD5DUgFc+CuDDxBbvJmbmG1yxzWQ76j3KJve0Py44HmievJCekl37+ucv1Z+HDerEOFi+HiFY7JmwX9P1rVxWE7HHl5KgyyCcw1+7HQ+D5Vd48ksxHH4cjr2iI9nBjMrZbOICYjnWfF5H+99nRP8vfiS4DXDWPMb1K9bbKPXTPjAaDUgwTcviA1mi9y+BhKpsyQ3xrSGdSt2PUyfVsj8HL9s6hRzHEOOPB948vg4HM/wvnf+ujiuKuA6yBffh4/z/6Cwd7rOOw9PcDmku4/P8qUBxPDkzXI6Jz92iq+q7wmOgdQfl3K6xvuANJsVeCIKlYW9H4dxnuCS4H+FdBKUJDdAcrNEN2M/5lVbW5itt/gaqJQ63rhR/aLKAijsi9RKpEvi69j7Qu065d1huh7fI+sZSHYd63qepXOCyJQV5wlXWRxQwcPnPXq/kHWPrvOOc3qWrstCHrEFHx+H/bH3K0NVCO3BcVZcKR9kETwOx3HzGiK2R/3a481HcpcCvJnv29z6QP+hWWo5kls/LlCQ86BzFHKRWnEKe7LrnKD7gM4pDt+TH4hMxMXnhCyicZ2cjj24p+iShiVuatnkom/hwnlBz+CbCONzXr6/NgueqIRl7FN8fBxfL8Tnve+vy8LMEtr7M3vOEzx20hZ8WNfODUwtS4Wdl9wAtbx2Qb0X5vs2tz4wT4IzDA/EkntmEBNGyCKUwr5C8OSXLzIDXSNwLuse/NjFEPlwInGjxs3DmaceGAa++qC5a/qcYYXyr0SVwy8rS1T0xOWRHfh3KRxfk4eYiHnELEVefy6vcqjMnxlkkVi2hjgO3zudAzrvofETIr0nvne6Jgt58bIrAd9PLrXcY4GX3PXqpYaGWHKrAKuA+oJa1UJbCllkyILO4eNEcoX9+Sz4/xCZcZAVULD6XntK2HzzzewYrLbaytYm5jpZyDut2j7svPP2oVOnFezePMmu75BUJ14Vla7x18ufVWQR08flEdn7Mjh6p3NV8YUsO0JMXOAJ7sPeB/684K9TJSDiex/4OMHblfygl1hyw5d5Ibnn2PBTv+mAn+r5/fc/2rjywUOmJj9Y0waxTJyQWhVnFqjMKrAKe39ewBMGEgIVCsYbCzq3686bhK223MLCbAXb/54Hw9vvfh6WXrZj6L77v8NWW21pwxMB6fjII0+EPlffZceMXfbW8ZqFDmH/r6qE5GNbgPDyS52P09KHZzVdLz7/6LDGGqtVKpl++21IGDp0WPjP1Q+E0SOHFWJnxNFHHRC232a9Cs+7857/Cw88+FixAlAFIh/stNNW4ajD9rAwoCzuvf/pxesEHT/7xE2FmBA+/PDTcOZ5NxaOKkLagPfVt0/Zbtks2CAWP768ZatWtjVW48bp9E/+RW5uYraero/zH1nVNvesoAKxCmHv5zmdz/KF+NiDc3J27KQz6jWkRrL8a/Wlw5qdVzF/7XU6hc5rLBcGD/419Ln+0XBbvzvDvQ88HdbbcNvw3DMDwmMPXRu6d9/TiE3Bo0B9/PHnYZlllkmfm7xjyaVWDAf03Dbss0/30GrRNhZnzn0LhJXvCS0feJ/75ENcfz/H3Od9vSvLgRn8RJpVpdC2a9c2dO7cKfTvd27Y4N/rFGJnxOqrLjHD8zbdqGORxEDhmLgepPPJx3cvVgD+fo+iwMo9X3iX9wtDlGsvkg7YqqzNPbdJLcxVya0ZYe9/+EUYPymd1EHtNm7sSAsDpBEF1vvAh+cH8D2CMrZe3Yah2567hF133NAmCgDSIivz8uLBk8+8Fe664+bw3Q+/FWJSqX1K74OsAgCk70UX/Se89Npn9n4kRpYkB5AXssZ+qXOl/DxwPtYULr+0d5UktwflZY+9eheOytGsxaLhgf4XF44qYs+ep5eU+LHkBqTh/oddHEb8WZ7OwnNP31oIpZL79LOvLxzNCFUQqkjq1kvnTGj46Sodlw/LLM3w03Q/7yzJnSUE5zRmqwrxGZj1sbS5GzVKjQz8eBY8aQRPdh3L6dj7cxP+vQBiIalbtWgQ7uh3YTj84N2KxAZ5hbpUYd9xuw3Cww/dFe675/rQ68i9w/rrrmYVx6WX3xq23v6QcO+9A8Lnn38Zlll+rTB1yiR7P99RTIeC1BQ8OXUM4rg8AsfxhHGxpPeawsxKbo9GjRqZ+s2zgPzDD9zK/CyUOpcHJm30PnrXwlE2JLA8RGL5Xqr78IQp5VOIS7W5QdZ75jRmi9xeGslK7kmOtVxjy6eFdLZSHmLCxr6X6B4cV8XpWsGHBX+9nID6LRWc+N267h2Wat++cDaVCk899XQ47+Jbwz77Hh6OOPL4cPlVd1kcarcyM88HK6+8UjjooAPCjX2vCm8PfDQ8/MDNYd8em4Yn/u+LcNChvcP1112bXJ+S2oxyfJO+NSGXJ7lI6BHHeaLGYRFc8UCkE0Rsf03NmmwsUf5PN9z8UNhsy33DFtseUHS0mUkTgTK03DItZtACOnVavXBF2mZGwgudO69pvv5Z3xZ/YwyaAqWaAXwLFZSHCByr6sVjZg8mkFoOFnhrOVBGitS+K0zWco9iQhVUW/mVwRMNxMdCUVWNfF0vMviwnK71EKktXLgOMPUR9e2FF14M55xzYeiyaddwyumXhQ/fe93OD/r6j9DvtpvDiadcFDboskPYYcduRvp99z8yHHXsmeHq6+8N11xzfbjuur7mv/fe++YmTpxoaYpbdtllwp57drN2KUTv2WO7RALUTSqSSZZu9j3u28yPSD6r8ISN4c8pLB+joS+4ZYXv47zc3XcNCHff938WLzAt0hN0hVXWKRoawaeffhZeG/hF4Si9XiTlemkP8vXeLBx+0M7Fd8Vp5SumKqdjoc2tEWogHn76T1jLZ5vcykhP6iw0qp/WhtZeiYiNn+V0zvtCfCwUC3nkZyEms67l2VmkbtO6WdFQhsqMND3hpIvCI4+/FHbZceOEgLeEJx7rH+65+6bw2ksDwlf/eys8cN9N4YrLzghbbL2zWVHBmFHDw0cfvGm2CLkje50Tuvc4JHRac+Ow5tpbhV7Hn22Wc6bMgsUWWzT07NkjeccN4YB9d7E4+06+LSI4oGB6pzjvzw3Urdsg+a7KC26zpuXEBRIOkBMc2GNd84UHHv8ivPb6S4WjFN127WK+1x7k1y4xY4tm1PHHH55JcMoz2gfnZFjkvK719xTvK0hujS0Hktx++KkwL4gNZovcWTVQnqFABjXBdxtlQe1K+QBfxFNXhHf+mjicBU8Ggev9t3FN2yWXD1f3Od2Ie91V54ftt0u7tqidMZzc2e/qcNKJx4YVV1zB4r/77ntT00Gn1VcPO+ywfTjhmJ7h2GOPNuLj7r6zbwX/vbefCl8Nei/ce3ffcOpJh9hqmjf0vTV02Xi7cPrZl4Vvv/3Rnsekf0h+yYUn2DHfK4IXwxn/pYLo/cqcrvM+8OEYseSO0XbxBmHf/XqE3XbaoBCTQmq6yLnSSiuaDzj3zf/eCx99+K11oQkdOixb1AYAvogeS+4vv/yqECLNpoeNN1w1LNpmifS4cD/gnNRyiEwTgfNZ9gXgwxrE4ieOgH/KWj5bbyEh9KFZankWfLsFEnmnuMpga1dFmQc8kQlTAShcFccz9X6RBEn98ID/hA02WN/if/99aNKWvtcyr2u3RJI+2M8GppAWcvXr10/OHRRWWmUDU8VRw1G9+/W7o6h+f/DBh1YJKP3wMfiss87aoVu3PcJpp/YOr7z8dHj6yftDy2YNwoknnR6OOe708PzzL9j1tDl77L1Xkt5T029PvpVvJwyyCD6ziImNH4f9cRaOO6pHePmFu4uOimz/fbYxtdrj3Q9/KoRC2HjTLhXOv/nOV0WJ/tGnP1kaA9ILCezhierBAiI0owBpzfN799q1WCEInENyC/H/xUbFYk9FoprndYVlSW7l+9zEbL9BCV0Zqb21nEKYVfhigns/dlnxipNPQddxHuL7PFq1qBuuuvzsYsX1yiuvht26HR4mTRwXrrz8jHD80Xva6jP8u///xRdvY6Q/96xjQ9PmrcKgzz8O1994V6LK9zXVW26rbXYPyy73L3O+EnjnnXeLxiOMbCL68ccekaim74Sttt0n3HzLHWG1lRe3SmbKlPI2uP8PjmOn+FL+zMITO09zKwWk8R133G3PwUndFlDHRah+d9xfJAZlb81OS1u4KmDAjDQqQEW6zAqdZqgQ0D4ET2QgtTw+LoUF0loOqloDmbU8qd2szf03C9ilC+zFBWpWCxiIier9PKfzAu9ngApk6bbXwUZejGaQ75jjzwvLd2gbBvS/OqyeqNsi9ZAhv4dPPvnUJDLE5B4KOX3UN1xzoRHz26/eN/fDd5+Y++Sj18P9A2411+/Wq609jipO+/vk068K/1pzI7O4P/zwY0WiY+nFkt7/zittcEyv48627wRegqOBxJpNlmHRg2OusfsLTvFV9SFmZZV8DFTuo467tEJfPeq2gM0BdVzEHzt6dFHFpuwxGGbljmmvBefzwHcNG/preOCRNwoxKc4/fa9CqBzYDWYaSbt7oRtbrhpINXbJmjtJAKnlf0//2wpEXKB0DHy8jr0PfHh2oPeILBSUq6+6Imy06W5mNPvif9+FAw48MFx79cW2VC2F5dln/y/sf+Cxoef+J4a+N91l7sBDeoc1194iIehFRnbSJ6uWRi1EcuA23XQTa4+fcvLxprYyweT5//uvLbR3+x33GNGR6jwPIM0h+aMP3x5WXnEZ++Yyxqk7ggO1wy2ck04+XuG8iiDvGTMLKiukNd2Eu+5xdBg1cniRmD337WHqtvDeh99VIC3hN9/7rnCUYr+9dy5eg++vF1Qu7+h3V4V2O5XDTrtsUzhK4SX3zMB3hZVqc4N5Ibnn2Qg1gFGNEWojRwwxclcVnvDAH8fnYui8CizQcXyfJ7akOaRZ418dw0knHhmWXGIJq4EHDRoUrrqmX1hhpRXC4Qf3CMst18GuBbSrL7rkGgvz/Bat2oZVVl7W9pNi9BLw4Q7LLBFWWGHZsNJKq5hkJi19rc7xDz/8GB5KJPhd/f8b1uq8uqnnXCugyt/S78HkPkat1UzIkT5b/xyPUa8MpMPMXC/wvksu6FW0T4Arr+0fHn/82WJa65t82vu8uPXG863ymhlQ3nbctWLbe+edtzUjpvDWW2+HM8+50fJ2s803DeecfkjhTHq/b+P7awFaBWHvA4WbNGtmWumUyRNtbPlCMUINxOqF/2jfzy1rOZIbYlOARKbKEJPQH8eFJPZ1Hl/OxwtZxF5u2Xbh6j5nh1tuujIsv9xy9m/33/+gtfsuu+SMcMWlZxWJjbGm6x77Wbta4D0jhw9JCss74aOPPw1vvDGwGMbnuP+9D4ezzvlP2GPP/aztvctu+yXveMDUVRGdd9Dufun5h+25XAuhBaT+QQcfUvwH+sGB/pH/kRQv5QD+rBAbxGkq+HjCOlY+cUyY8fMzS2wAMZH4ee8H5B2z7MDLL71SNK4BT2xBxAYKe9+fNyRa6fwmuWeb3PpIkTqvzWUGtUJnvwoSyCpc3gc+DOJjQZkb+zF8PM/CkVmotRABUl91xZk2JBSVmX9DIzntrP/YkrWoziqEtP9oG0M4SKu2bsNGzRMJtl444bjDw803XhHeeO2Z8POPXxTb3Li3Bj6fPOvG8J9Lzw2HHNwzUcOXC59++nE4/cxLwhqdN7K+box4pDEOQx3v5tprrrvNVHUZiJBSqOhoGqCssPqm/1dvW4jBOaWrpcdMVAbenxn4byN88H5bF45mHv9eZznzeY5/rkC59JX6BZf2q2Bc8/ACqhTsXY7kC1WbG+gj80gtmEEtqd1mqPEcsgpMHNYx8HHe6Zz3PeJr/TdtseXG4f77+hmpJTnffPOtcNTRJ4WjD98ndO2aDiBBskLq7XfsHp57/hWLq1mrdth2+x2MzJ9/8ooREam65ZZbWNvOQ2RFheWZSOannnwwvPTC4+HYXgeHZZdZKjz1xGNJm/5oG9320ksv2z042uYQ/Nmnnwo33nhL4YkhdN8zHTcNwT1ZfWEnXs4fo7r7OI4V9r6Hni8/D0pr7xQvH7fGGmvYsUDlteEm3XKdDI2AyhbJD4G9BPVQOuAPHzbU8jULlGV/rQ97Pwt1pqW9Qgul5K4MDeoWEqgEyasCFQwP36+d58f38R0UXBwSG1XbayHU8OdfcHm4vd91RWmNBXvjzXYPzzz7gmU0pD7jtGPDpx+9ZtZxyAyw9GIEQ4WmIsDijuqOO++8i23oKe07+ruVjgw57dXryPDSi08a0Q8/7IDw2eefh4MPPS7stHP38Mwzz9q1xx5zRFiqfTtra0sCrb/+OvY9qfvLNBEkOP+cVSA9YWMSK00UFuLz/jhOW8A2PbrGw+cJ+bbGGitXqABJu08//cbOe+ehgT0Ckp+eDi9BPdQMEM46r29xBGAML+WBwlnpKFCpTK2VzqFYKKzlAkTA5ZFcavnEKeXnIVZlTtdVBXHme8TneKbUcDtOyLDhJlsbUWiPQch1/71DuO/eO8Lppx1fbJedeOoF4eRTzw1jx6TTDXfYaZcw8LWnbcJHgwYNzBJ7yaV9wiqrbxQ23Hj7cO31/cI3Pww1y/cuO20TTj7paHPbb791WHvtzuHNd78JTz/9bDrm/OjeNuSUrjQIvPTSS9nIt1dffiZst+2W4X+DvgrHHHdGgeTPh1123jZMmjjWBsQAyLF463QvtnRFl/J+fv4/JX3qZgWeyB558aDOIuPM55ycjuXTBNhm6+3sWDAreaGJ4+FJ/sQTT5ovrL322ubnlQPNwfe494HnCqGKqCyNdN5fN6WsXiGUlidhgZTcfKAIDqlxXj3XGmpAarmgzAW+j1Nhb5GUHzsfr7D3PbKuF5QRt958k40se/6FF61tPWni+LDpxuvaMkn8K8R+6IEHLENX6bhSeOLxASapGatM2xjJvEe3fexZd9zWx/q1GV7KNajnqN/q/sKhkp90/H7FYal0b2GE7N7jsNDrmJMSyfU/e2/79kuGa66+LKlobg2rrrpa+Orr70Lvk840qQ1o93MdruNq5aptSuhUguvYg//wTnFZ/qzirxozzgaMCQ7+vV5FQ9r/PfdMsakQX4/PvzC33avm5APTZ3VdDDQE7vPukUeerDA0dWbA/R51a0+2nhAwP0juOd4Vxl5htEf9Mkt0hZm1PJHc48eNCiOG/1bMAGWgb+P59p/iBeJr1aqTSeAs6HlUFrpHzxapyaTFWjUORx15SNhtt50s4enSwvLNSLNVOnYMF1xwabjz7vtNXcPwdf99t5s0578Z+/3he+/Y/WqTVwbSjPfI9yAOaYzUp7Dsv183W44JcO1dd/UP51/Yp6hm7tZ193Dx+adY5crwWCqYYSPGJedr2zXaC510A7NqDa8q9F0MVmI7oaqASkT3zWn4MqTyIMTHIG7elQLX0tYH7IvGikNdNlx7hm18W7RonlTc6V5h5KHc3MRsk5sPhNSEx48fb+RWP7cnN4V0Wo2WFcgdJ2oWdJ33BR9fGfx9AuQmA7EyD0ikohKe799mhwPClpuuEU455YTkX0aHzbfqGqZOmWjta9TwRRdtZf974EG9rF+T61DLPWhvv/32u7aG3LBhI22llQkTxoROq3W084su2sL6rTfeeCNra2dlNk2EXsccH9q2XTL06XNBWLxNWpBee+31cFzv800tr9+gSXj+2fvtm3jGt99+F/ba52h7FwRnmqgkiQgOZpXkkFBkzPJLQSMTIX3eM1QpzEzlMDvIK18gPufLGseUB5Gb/fCaNGlo5aH9kouXXEMNf25jtsgNIDWuMsk9amxNmxI35PcRNohFhYDMrFO3QXJcloTL+8WJF1QIVUB9AnvEGeMRZ5yI3br10qH/nZcWjTkQu/teBybqbadEZT7MZmGdcuo5ZjwD++/bPZxzzunh8y++CGedfXk49ODuNusLkA5ff/1NuP/+h20a6KiRQ6x/fKWVVrA2t8djjz8bvv3uO/tn/r39ku3CjjtuH3r02MMGy1AAVHnyTXzDK6+9G846/eiw666pdsCw10MOPSb8PPi3sOYancItN19lq5pwz29DhoS99to/jByd9u2K4KSDbwaRtqTDrBJ9ZgG54wFMivPnRPas631FIH9ewZNc5an14ksmJ9JBLIs3GhOWX32tIrkXS5oKDRs0rCC5RWzyaW5ijqnlOAxBeSPUxo6dEIaPnBh+++Xr8MfvFa2ceahTNx1pJbUS1EoKKVCcVE8qCKBCLNWdgqw2p+DV8ROOPSAccMB+VjE99NDDod+d/xdOO3lfGzsOGCKJCix06bKhaSFI3XPPOa24xBL/TD/4448+FJq3aBt6dN8h7JGo6AxAEUk9qAxXX2MTC6+a1PSAfnIGoOy4w3bh8MMPCKutms7/BtyPlR5j3tZbbRouuvAsKyykObPFGBRDvzoDbgBDONEc9jvwmGIaQeAsgs8KfKUwryoHkRlkVQhVwdyoEIzcCbzkrmyEmtzcxBxTyyW5Pbm95B4xOpjE/umHz8OYUdndD3MCVAisM+YrBiqEuDIQ6JMePPiXcPNtj4Rtt1o3HHrogZYBk6dMDpdeelVRYgudOq0R9t1nd2ubA/6frqx99zskkZZ/mvX8kgtOLlrX84AB7qBDjrMpnepiIw2Z0tn3xjus+6t7j33C6ScfVXwW70Jj2HOvw8MKy3cI1117UVg0KTikO9oGhjb62Xm/JAT94MxIiwkOIDmYU0TPw7yuCDyBs3x/TR6y7gU+rDXLF2+bzkxjaDVrl3dOmlpeLY/b3Dgw35Nbfpbk9uRGcg8bPj78MnhQGP7nr3bfvEBM9iw0adoy3NT3yrDZZpvaP/z000/h6F4nhu9/SDWMtkssH3babqPQvXtXm7FEpsgxY4zZWbTHr736oqKKLnB+0KDUGqu295df/xjGj0sXJ0ATwFLuQVoyaIU2NZL8kgvPCDvtlHYVUTBEcLq97rzzxtC8WTMj+A47drUKhqZD797HFAvRRpt2DWPGDEsK5YwSHMjY6P1/CqUqgrlZMYjEcbgycC3zB2xRh6nDFp42d5bkzmtzDxvxV0L8keHrQW+HCeOzV0KdHXgSezLHcfgCx81btAmPPHxvIj2Xt+9/8smnwgknnmHaBaRmcMo222xtbW9qXrsvUXmpwC7+zw2h/123J/ENw523X2+j2sCnn31m3VTPP/ecGbyyANFkZ0AbOPP0Y6x7zMOr+kjx88/uXSwU33//Q9hp155h+Q5LhTtu72vf9+efw0LXPQ9L2vpDQ5/LLwxbbbWZXX/ffQ8Ux7wzqUTkFkRyIILH8PFZlcE/XSnkQZWEwnMCNAWAmgUzK7m9cJibmKOSO7aW+zb30GFTbKeRwT99MccltydtTGR8IT6u36BxQsDHw8orrWTE7p2Q+t57+9t1Bxx4aDj11ONDraRmhjhkCu7ll18J77//cbjpln5WAfC82/vdVuwCY/DL+Reka23vvNXGYfPtdyxuNCC8//6HliYffPhZIsFHFImOUe2gA3uGPfbYvYJaT1v7tDMvMis7RjMVErrLunXfP2yyyaYJmc+37/wx0Tok1e/pf6tJC0jPwhBYdiW9gbdliOAyFs0pzEoFMK8qCk98oOOZrQQWbd0+Scvk3ploc+PPbcwWuYGIXZnklkFtTknuPBLHBM4DBfvll//PjFZ8N33Vt9x4jcX/57KLwq677mwDDxhZ9Oijj4dn/+/VpJ38QhJXbpzjXeece76N9SbDSIM+V16XPHMlU/HpGiNtStXQSPlXX3nd2sU8D5JjkLvr9j5hzTXT5XuB2vV0id1w/eXFgsL7buh7SzjqyEPDYYceYHFoH6ecdl44qXevpCnRzUi/8y57mVXdE5xC7CV4DEjuexjmJOlLQRVBjFmpKOY2WN201aJLJoKiUZg6cUioU3uR+UZyz9bTfcFVTQRRsqBhp0jLOYGY2PjAk7wUDjj4iKI1GiPW9VdfasR+9pnHTXIC1t3ap+eh4aijjg5PPflw6NZtzzDg3nQfL57ftVtPIzYgLUgDJoDQ7lafd6kM5B6+4aijDg/vvvWczSBDbR7y69dhy612MC2AawBW9/vuuzPRhn6xSSzYBnC9T+gV1lt3PSM449SpXOkqQ5pTYQz9Y6jlScuWrew5gtqU9Byo9yCGiO2leimXBR+fF47hiVuKwKoA8H04y59bYHVTMK1sko1p1zx9X2kusLPCVPjySC2QSWSol3yzCgjsia04j/jYAxLTh00C0y+93/6H2PU339Q3/OtfnYykSOt/d9kivPzSs2HNzusmxHnDhodqSO36G2wS+l7/n+L/Z4Fx5hCUsebMcNpu+67mOCaedwv0Tx9wwL7h7Teft0qEdDrr7HNtvLnAJggQ/J1330nu72tpDsEZ3NKocctEdb/CrPzEnXHacTY2+/Ir+hrhJ070c43Tf/AqaR7BQSkienBd7Hx8HAY69nFA4/4hp86pS9N3bXry5hEbv5Tz1yhcFeg62wiwRjobTcNPfXr+U2PLa56boBCeaaDRQxA+tEaNGlbYUE2nTJliBWzUqLGJ9GPgyp9h3ISy5CcnJwVtXKKWjy48oeqAfEgbkdYTOw+QWAVYYfxFWy8dTj2ZwR+Dw7Y7dA9jx4wIF5x/bjjwwH3tnx5++L/hsMOOSMLTw4knnpS0qW9M1OG29o8nnnRmmDhpWnjs0XtD44SQxCmjCNO+vfzyq8IZZ56bSPFTwutvvBkGDhwYPvvkgzB48E/mOKYr7K677glPPPFMGD5iZNLuX9HU55o1Fwkb/nv90HHlFcPLrwwMH330fhj8y+9hh+3TpYCaNW0aVlh+2XDSyaeG1VfvFJZaasnQMNES1l9vjXD77f3CqLFlocu/105UwcZh0VbNwp3JOyAHq8eMn5BuRYQ6juP/1P4G/Lsc+UoB9WHvx8iLL4nk2cA0A8LeFeKLpE/ipEGQzgLn/XEMEyrJfwr+WGF/fpEayTsLcbHjHIRWWH79Bk2TZ/Etk0PDRg3CYou2TNTwZqa9NWhQP6l4G9t1devWsTTie0s1h+YUZovcKtgUgLKyMiM2mJTUXpAb6cPQTcg9/a8pYdLkaWHYn4PDlMnZ823zAIljMtN2zIOITAKK0EBx9eo3DKutskLYret+YfTIoWGvvXqECy5gscHpti7agQcdFtouuUJ4/NH7wj777GX38I/nnntRePKpp8MTjw0I7RKyc700ll9++TVccnnfcMjBB4c333ozIfkfxW/Mq2RIH6579933wj0DHglLtFssrLzyylZoll9+ubDN1luEjz7+PLz00gsVCL7CCiuEX4eODddf3ze5ZlMzvrVp0yaMHjc13HPXrWHTTTcyYw7b8bzxxjv2zeRDUvwSVyBC4smA5Aku8L+CwvikhUjvXVZ8VSoFQ3JtJuJ4jmOXF19wlu7RsSqD6TRNkjhfORAXVxZZlYDCkLZR4+ZJXtcJU8tqhEX+npQIgtahSeOGoWHDhkZuNkhgzzy1t/X8+D1zGnOsK4wwhM7r58ZaPmFcQvTfvp3pEWpVhUgMaRQuBa7ruv2W4aY777LuLfqku+/F6LQ1wuOP3VfBYs2WQVddfbVZxjfbbKPk3tTYBlDhzznvUtMAPOg/X3211cLaa/2r2BYTUN9eePHlRDWvOCNp2+12skUYhZEjR5l2MXL4b+Hss063GWSAinSTTbdJpEF96+tGi+BarOLM8yYOC+3PP/+cPHNnuwfkjfCjItLaazNrLZ6TUCXhfZAXnl1U0A6qAGkPwLSG5Lhtu+VD8yZ/2UAtdYUt8NZyCC0/y1oed4XNDLlF7MrUb0lA71cFXItx77NP3rUhpEzaX2e9zWzedJ8rLioaxKioGP317rtvhRuuvyp06dIlTCsYo2hLHXPsKXbOv5s2MyuleGt3Hng+CzCce8E1Ydgf6cL8VC7qxiJNGVSzZ4/DjOB33XmrGexIcxZOXHe9LmbdV198//4DrK1OM2OXXXcy0jO4hQE508qmFMkN4rRSl5wnvOK9dJ9b5BehhfhY8PFZ4Sx/bkHk1iCWhcZaDvSBfDQFUWoqiDcC9LVeFiCxnJBHbAqmCmfsVwVce/qpvYtjw087/tiw+fqrmdFMxKabqvM6mxeJvf4G6xuxIfVvv/5mEnXgwFftWioKJOuPP3xlz6gKsQHaAeubs68Y72jRql347LOPbUIIaUm6Lr300uGBATfbOw465GizFZDuWNCPPurIVGtIKgm0Cbq+2i6xgq2x9sfQP6yyPeH45FkliJ2St5zYgJFxVKwMwsExog5HePLk8eZQcb0D8oX4uBREUiE+Fnx8HPZkFzjOcjrn/ZmFl/oL7brlKohZ6gYqqJZXitt3Iq98ClQpqFAiKb2fB1+gPVZccaVwxBGHWhh1/Kuf/wjX39bPjgH9ytvvsIdJSxF74oSJ5j755HMbPCINhMEq7737mqnMUuVJFxYBQJ3HQr7UMqsm6llbc0u0X9HiWHrpo48+susBJH/x+f+a5KZCOeu8dBIIabrccsuF88451Uh63qmnWDw48shDLQ2YiYalnKbCheedHIYP+zU8/fRzVhl16bKBPbMyiNhAYR8HMGpCcPJpzOg/ioQX6TnvCa92vUhe1fCswpM0i7Aina8E8HWc53Rdli9krX6atcsnEG/mJmaL3P4DRWovudVtRHuTfm7Vcp7Qsdrtwx6QGif1VySXHwNS4ySxYpKfflpva2fTnDjsiBPt2KviDBgx0tx3d1hrrbWM1OD5518Mhx1+ZFKYx5kkveXmG8Jt99xb3Kub57HQw3IrrBk27LJZuP6GdNgna6GdeGJvcwwuwcr9yKOPWX82REdLADyH9v66624Q7r/39vDQQ/8tpikDa4h/+OkXbPljgOaBBtLvjv5FSY1NYNVVV7dlk0ePHm33H3bovnY98GkWk7cqiImPlIfUkvSxlNd5T9rKwvjeKS7LBz5cCnnEjI+Bl77+Pl8xAHt3zo4jWbt8gnkhuWerzQ0guBzDT/mJeITaGwPfD6PHL2LDT4cO+d6kSkzqLHgyyy8FT+BYDfXHW265tU3W4JvvuOOucE9CArb8EQ7ssVd4+pV3kmtutaGj9ASAxx5/OlxxRTr9s03b5cKAe663XTwFbUgwZvSfRnwkbTyUFKhShHTM2rry6puSwlJmk1fUnubc1tvsanO+7+h3Q9KOS9V82t/bbp88s2krW5CRCokKZaWO69hU0N4nHJ201RuHF198MRxz7InWHt9iy83NoLPxZruEUSN/L6ZjOUln1LZiQE6u8/6sgHvz2vLzAtIkfNj7s4L2S3dc+NrcKqSAwsiHS8p4ILm1UJ5QFWJn+R4iKz4OAgs6pzh/zAAPQGUEGXufcKQdAwaYPP78a+HKKy4KS9gOI2VhalKxXHvdzUViIz3fHvhUkdhIetZPO/mUM0xK0Q4e9MX7tmhiTGygjEVzQJV//bVnbFw5g2kYZaZzV199iWkI55x7sVWagPb3brvuYs0FJoQArmWCC5rA2LFjTD3fZJNNrILpd3t/0zrIF9aDq6yCzINI6AkuVxk0aAZwr9R6xtV7tV4SXhXHrFYgMTxpvYT3xBYIx07xQlZcnuQGC/Tqp/5Ds9rcYOr0yoedliKyhyeqJ7XiPeI4iMn8aSqmPn2utW4jTdPEYn71NdebtXvdddPN3ydNmhge+e8T4cEHUyKhVj/z9MNF0kLs9TfcITz7zBPWjn8iUanPO+9MOw9RWVQRtXuDf29m7W1WRSWORSAmTpxo38HKK4w8QxvYZ98jzGAGqDx4H5ZuJLEKyG67pt/LTC/ux/XsubfFvfHGW9bGAyz6QFfb999/b2MP2FccDcijKuSMEd/jia5z/hp1sQmVqfVyVAqe8HkOyAc+DCqQMEIWaWN4MvuwYOHCCDXBq+0LdJsbv1SbW0PyQN7gEwhdmertiUpYx1mkzsORRxxgPt9JO3WfvbvaMcBizvRNVFtJbMhC/zbAsMbYcQF1mG6yoUO+swrh/559zKzkjD5bfqW1w4477R7uuO3G8OFHHxpBqVhuvemysN5aq4VHBtxjBrtffv3V0o9BMZddfIqp9N5gxthxVPAb+t5mEhmCo6JTESC92VVUkr7nfgfa8k18O4a0zTfb2J7Bu4hbbfXVQsOGM65GKpA3sVO89yuDJzguJlsMkRwyS8pDapPmjvDMmfdaANDzs97DseLyfODDM4siyRdWyQ0y1fFCV5gGcMSDBWJJnUdskTeW1FnIepbCzVssbrO1wCOPPGq+JB6WbdRx+rmFPxNJfnGipnM/xMaaLUDsY49L+7jpArvh+j4mrTF0de9xQOiy5nLhs08/MIcaDW688Uqbs80qLrcPuC+576SwxVa7h88++8wITl81Vu3nB35kBjZVmkcfsZ9VDj98/0OR4Pv0SAemPPLEi+ZzbY9u21s32q9JhYG0wEpO1xrPGzp0qF1HuzwLecTNIrh3VYFI7l0W0jZ44T2FcBbhPdlTyZ5KeBCTl3fFcfiKVxzwx3HY+4KOGbiyUEpuETxPHQdIbtrcvp8bwsxJSc1z9KzYF/bsul3RIn53/4dMbUXigSOP6m1tVAafyIB28SVXWUVCG7pbtz0sDtB9xegwthHCmk67mXRAYp948tlmsIO8LLqIO/OMk+y+F194Kfz0089WEeJYhWWLzTYMvU88K9FyJluFwfLIpMtNN91h9/DcTTbdyMJPP/eGFRTuZQQU6fDWG68UK1a0BiqH51562/6BimDnXXay573z7od2r6S5SARiknqSVYaY7N6Vgic6TnExPMn1TSK8JzsSXpIdJ8SEFPKICrLC+HwfvpwwYcqM9qMFXnID1UAqsFVpc0O6qhIbvyqSGvBM7wP/rp49043WkdKoyj336WbH9Gkj8ZgmiWUT0F4mjkkmZ5xxsmUG/4pFnO6rMeOm2R7a2jqIZ7CvF8NNb7/tWoujPY4k10YFp595vs00Y2HEY3ufa0sQM8lg0JeDEg3gPSM40hZQcXAMaHujTg/6/NPkX1KVu32h6402NSudqrDQzHj8sSesSQGZt9483U73288+sHtXWaX0LpqeQCKWd1WBdgrxJK8K2UWgLOjdsS/EZMdYJ+keE76qiL/FE1rwcVk7jiyw/dxAhQpS4yRFgO/nnj6tXE0BWcSOJXMpQxn36xl5vqBjbbd71tmXhI4rdyzuI812PuCgA7qbD7Ayg/167l6U7rRvsYgzaAVrOWuNA/WLA1RvXc+a5scef6qFj0ukO/3RqOjLLt3Wlk7aZLNtbUUX8NhTrybkm2ZDSGljs+b4J598WiwEGP4wigEKS/Pm6bZBpM3bSUWk69Zau3MYO2Z4mDB+gpFZq8C8+t6XRvgGDRuYZT4LnjBZ5AHE5zkhJrIneCmyi0z4clnQu+L3xvCEV9tdRK8K2bPInIukzc2OI8L80M89W2+QNAMitZfcanPLoJbXj+jJ7ImcR2rBS+iqQNbrNwa+XsGQ9sCDj5ixa9kOyxohsC5rQodvow4ePNja3gxaoX3N/0NsjGq0iR/9793FwSxIbJYqpq/8rTdftkUdUN8Zmoq1vf9dN9sKHvqf6WUTLA0ZhEJ7Hbz2evkulKx9/vsfo8x6DyAp9+Jee/0diwNIeYyCP/74o5EZdEgqIQr5t9/8YBXDsh1WsPiZQR6JRBJ8ka0U4UBM8CyiC5UR3b+3FCZPnmDXUvGJ7NZmd5IdByrzhQrHSZvbw7e5szDfS27/gZLaXnILMqhhWczLBIicRWZBBdmr8/IFZXKWAwwZ1YKGGNL4ftrPEHnvHrtZwQdYl/U9LVuVr2CCQQ2nWhf1fpttd7FliO8fcEdxPDlt71NOuyAh9o1Ftf2TTz6xykX7UrGYItIfKcp//PzzL8UJKS3ad7S4wYPTteb4TjY1KN/kr8xGnqXhqeHTT9ON5JUf7GPGFFFhpaVa23VM4gFrd17VCqYnjNIIeELFLobu8/enz87Ogxie4JWRPesb/HNLvceXGdKCb0Q78pKd5oQIq3/I8nWNIEOaV8s9stTy+V5yA30kpJZqHsN3hQkiMn5emzrOEIWzkJepHlzD/Sz9i+rMtz/++DNmUVa/NiPrsC4LGnbqAYms7b31ziaxGYmmlU8Zp95zv8NsySSp/Ywv32mXvdLFDBNVnFVYAKuvMOzVg3Rs2Sw1+kF4X4EKSGQs+YD/GfzLb7a9kPKCKaZUDKiEVASqLEaOHB0mTJxgmxzmpZfIk6dliWBZrvx83rMrkj3rupjsWUSP3xmj1POByhC+yhWSHbLnEd37wMdZF1iklntkqeVZ+TqnMdvk1keK1F5y+zZ3vTrlJBGhPcGzQML7jIhRWSZ6cI0yZOed0zXAsU4/8PAzoceeabcSREAVZlSY8L//VZxvDR588CEzjvF9tKEZiQZQxffZ9xAzqjEphbSB7LSrmzZrbar44YceZMseK93oewYNGjScoSIZPTpd2xywDfAybcpHu7GRggom6HfH/YVQ8szVVg1TRqddX1QEDevWsGu//zGV3HlGtZgsENy7mUEe8YAnhvKusjwsJc29H6Oqzwciu4guFd6IXjASZmF6QQX321N7a3kWFjjJHcO3uSdPTaURiNvWMUhkuSyQUaUyi4yOHWCkFGqw1GfGdTPWmr2yhXsGPF78Nt4vVdbj5lvuNh+jHFvrAohNNxhxMqqRNlddfZM95+o+Z5t0513MpoLcOBGa7YkAqvlihTASmQqI50wa9r1JYOHLb38NndfsbKueArYTYiw/z2QlEGa5gTrJu1nyR2lpBp7a5WkXk6YUkT3R4+sIK52979O/3E/fmeVn5au+sZQkl6+wR/weD6ULvhcmAnFS34sSPYvoSZtbMx/BAt/PDfSRWeq4xyK1ygtCHrF9wnqp5JGVQUJe5gLisX5u0CU1kEEE5jzTJ926TWuLo008fNgvZoDqd+v19g3sEiIi4hiiStcVYFN+SEw7Gqs4XWnM6JJRjQUS6XJjF0528gQTJqTtM0iLoxkAGjZJCa12v/5z2PDh9k6s3Usunra5wcjBg8KFF5xuI9iotPi3ceOZY53mx7gJ6XwgGeB8uqGh+HTKSlMkj3eKi5FF8ixUfF92Hkmi8z0l89mRPI/see8o9dyY4HF5lEQX0XHAFkpM1HIvuT0W2H7uWHLnkbxs6pTMjI8TMithQakML5WZMSCITfToeagRgkkkIpS6v9gYYLvttrUuKbb/EbEBlnRABYCxjHgmldDNxUwzP+acBRf4DwaqUAlw7YMPPW7aA+mFY4MCQDtb1u3x49MKgP99/72PbCljChRtZYA0RjKvuuqq9tw2rcsrBn1n44bp+lz0swp1plVcL17ESNXj8uuySOwJ7p3igPJMhM/Kb71HeVbxuPx7gPJcLkYWsT388z30rKxnxuUuCyI6DrU9C0oTsFBIbhVYwbe5BZ/YJKSvKbOQm7GFjMvMvELN7h1gJtrESVOs6woLN0YvyEjNStcRxjG+BSlLpcVWPYB/xPFvdIeBNdbaoBjHQJRevcpnlkFsNgHgHawpftml51k8s9DYWLBZsxZ2H91eaAb8H6q4DGAYvgDf2/ukM8P7H3xo0hl1G7JSCbB2GsQWSAfu5bmsPjtx8oxZW7dZuo90DKUvZKRQMpIwzwH5ICY4vhwgPT3ZKyM8iCeaeGSWhSif5QtZ5UTPyXoeUJksVTZpXlJ+R4/8I8nbirMevVq+wPZzCxQqCO4ld9zPLfgEy0s8Ej0v4eOMAnEGC2ofEU/4ppvvCP8b9JVJz65dd7Nz4L47+tm3oFprsAtGLsBIMf4PJ9AvDdj2l033fFoweIV52AxvZVN/SXP8dm0Xs8EoEJvnoRkgqdq3XzL5xvL/4h8ZU04FBFDtGbiC1MZS7jcZgOhoIS1apJUGaNummfkeVELTosFEpcCqn94HnuCe8JVBZAeVEZ1/qYyQuWWjkP9xOQBZzwR6XtYzJXzkPNS8RC1HM/1rSvbutQuk5OYDVahFak8Aj4b1pibXV61g5WZcXuZkZKTgzxHWM1hXjNFgfDd9xnR/8V7N9Qbs7qHF/EVwamQymb5lup+YkC/yArrI2DQAYl937eUVpCugzf/n8HEFgk+y5yOpmjZtapIb/DlsRFhpxeXC2mt3Nke/9WKt0uG7DF7BUi5tiHb7r0P+tEoD8I1q13vwz9xTq1ZNa+cXSWCFmgUEyqW2xUfExpfTseCJ7skuQns/jssius9jhX2ckEdIIa9cZD1LiJ8nQkPyyjC9xowz7qiwF9g2t2qgPFILEyZXLORxLahEzcosMqNChqtgQtbcDMx+HtczlHO77bYyYlOj9h/wuJ07+8zexb2yMWKxHS7LISFlyRz+cfjwtHsKSzbt580338yOSQdmcrH4A3t9sTE/z2dAC3O3Bdr8tNPob0aNBnyPgCWb/m3eC3hGi0RKI6k5x8aEgwf/VtSGqGAw7HhVn40Ka9UuV22l5ssKr4E0MWYgdvLuLHiCzwzZBYhNJVkVooMKeZ9BTPI4q9wAlZG4nMRlyiOr7Ki84s9Qdgv/jsYRQxV2jPlecoNYcnuozQ2UAHHGgazEBCUzIIPU3C+nY/kKg1123ta+F8da3488/F+TtOqvBhAyVZeXsNlVmmqpNjLSFgILpMNpp51vGXztVecUV1W9/IrrbakpAaJBZjKdtjMkbLdESmThh5+GFK3noHGj+tZVVt8kby2T7CNGDLdzAwe+Y21zNSHA+x98krQHy5tCr7/xtvl8E2o53WggTZc0fYtEg7DJO0RsheM4oLz0BPdOaFAvXd/bk71WoTvOE1xhkEX08m9Nnp9RLpTPcjFKkTx+nr8/fpa3E+FrW6GsbwJZavl8L7n5wFhye5L7pY2VADEyMyEjsUFW5ghZz4nBNbjtt9/Wvp1v7XPl9WZtltELoOqyrhpgaiWZg+MfB771iZGeMeesjyWgjmNA22PPPSuMViNOVm7SioEkjBOHZBAcEnZYJj0PaVgmiRlNDDwBqNFfffWNtZcBTQmOAc8f8ECqdUB2+sg//vjj8O33P4eff/kzJfKgL01tJ91ok/O8b5L7fXrFFS77TueBb+Q8vvapjkkviOSTpqa+IILnSfWqEB3klROQ9gDklJXcMpRR5grP8M/Kk9yL/J29e+0COUIt6wPz1HPa3MqcrAQrhcpInfWcUhmv2Vzs08XUyquvuqxCu5nBLT/8+LOp1yt3XLmoPrPf1qiRQ+x9hx+eSnkqCVue6bq7zejFBoMCA1i4tn1B7SZt2JMbbUDpRLt7hRWWtTD44YfBdo/a1GPGjDVyMhAFYnMfx7gje5VrDkwqodvsrPOusfvRIN5++91wWZ901tkSSZucymzy5Cnh+x9+trTBkScQCaIZGR1pF6lRkUyCzoOY2Pa8KK52rdTwJLJ7SJqXIrpHTHCgf/H5rTIhP0ZemfLPqAwxyWlzTy2rGmkXCMkteImdhbjNHSd6ZgblEBpwf9YzvA+ynkuX1A033BROPvVcW5yB1VEE5mWz9a1J523S9jSA4Hf1fzh5Tm1bZIEN+6W5XH7VzWHC+FE2jFXquK2F/vV3ZujS85nCiVRevmCNh7hY1THKCZ9//oV9K6tngs8++8Ks/B06pBUSFYmHT4czz/lP0v5OxzfzjBtvGZC078cXzyO1/UyzLGJbfEJq7rH4wvO90zVZgPiS7IKvDIBIHpO9qiTnu+VA3Nb1eQ3ib/fIIrnKS9ZzSoHvYPXTGAustVzIkti+zQ3yrOVxIgIleHbtmhWXPsM/K67ldW7LbfcxAtep2yAceEBPiwOal42Bijb19lt3sXjaxixd9Oqrr9jxSSeW92kz24s2O9957LHl8UhtsGe38u42Ngmg37tly7Sbiu2A6JJjwzjhf4O+te/SPGy2YgJt26Zk1yAa8MSj/cNandMVWJkxxuqmQP953dXnh6bNWhWPP/740/Dgf5+zdEHqiNjAEzuLYB6kP9dwbRbJ8yS7J7xHHsnj74hJDtJ/KR/xmFUOhMpU9ayyFoP7S5Fcktt/5wLdz50nwX2bW/A/TQZkZUIeofMSNn6Gr9UVluPa8eNG23N22HHboqSlojry6JPNQk4h2K3r7qFp0ybWLqZvGbJCeKT28sstlzwrXZ74zLPSTfsO3L+7tWkBUpu+dAxn7LkNaMfTPt51l61D3bppYURF79Spk4UB7/r080FGWAaigHff+9CeQ7udtP3u5zH27Z1W61i07AM2/rvowrOK/3noQd1sBF3LZql1d9SYKeG6vvfatRizRB5IVadO+VRF4nx6yQH5QvEZLm9weaQHIjnOPxuI5J7segdOEMl9WYqfBeLyxbd5PwYaUlz24mcI/ll6L1M/JbkX+LHl+kB8kTqvzY3KokTISiyQV3uSgBDOQ4nun5WVwTH8N2yyYfl+XiefflF4442BFmZWV7fd0u1yKYSMOYes4ITjDk3IkDYxMKKhevPNXgOgIqD9fest1xbb8rTjIST7fAv0lbPcsMBKqxSwVToub8camooBDpDG334zyNKi+567Wlybtu2sMmA8O5XLku1a2qAW9gwDWNE9QTx5ILWkKWlcu3a9CukXp61877Kgd5UiOUDC2xz/iOh1ahWaFgWCC3quhyc4yPq2uJwA/ldO8GWvqiT3YOpnVpt7oRihVgozJm50PENipsexnwefmcDX7t4BXau2LquzsO4Y30Qb+aQTj7b2KWC5Ikk8LOQrJW1twLplrBsOGDvu29rggftuKo50Y5IK0zy91H7uuZcSoi9pKrmk9KfvvhkaNmqekLWTXYdKDtlZqEE1/6DPPzYNYqed0mmrkyZNscUXAM2KIUNHh+232aD4PZptViR1QiQ5gbRVmqgQ46iQ/bHOe4hIch4iI8+Xi8mu74DoOJ4xzS8RrO92RI9JHuevEH+P/49SUFmMy2SMrDIZt7n5vwVWcovgWQY13+ZWN8EMNW+SgHmJmJV4cQb5QqXMjTMZ6L0qBNzz7bff2mZ8Tz2ZrqGG+nvRhWfbRvZkSv36DULfm+6yeb28E+Ob/vOMMy8uqnHH9Cq3kDMu/aknHyzuRoI6vv+Bx4auu25VbEcD9ubusmFqaIPIY8aMsZlfG238b3sHo8xQ23n+6qun5MX4hpWcZ0l7ePedj8rPf/ujqYM77bSjHYPPB/1WJIaIBMFENknrrIKfd+yvja/x+ZEHvT8PkFzfKh94goOY5H5gTCnM+F/llU+MuGz6f89CLLlpai0UI9RwnuS+ze0XbBdmh9QgqxD5zFXmqwD4MNddevmt4fWBqerL6qJ9rrjAiA1oZ7PpH21evhNiI7XJlIcf/m8xHqnt276QThmHZfvAg49JVPOGYZNNNrQ40P+eB82HlJLkZolPnrftlunqLR98+Kmp340aNw8dO3a0dP0gUdNJm+7d0/Xf2Jlk2rSpxX3EBg58IzRu0iI5TtvxjESbMCEdnSZwP2kgEmalK92WICZTDO7Lku5Az1ceya+YBzOSKjbGQY6Y4HIePFN5jy8Xf4cQ/zPIM7iRL3FZ1f3+Ob7NXRnme8kNvOTGVaaegzihQFZGC3FGkFG+j1EZCVR4igXIFQYViFq16hQLQ/qsuuHyS09NVNk2SRhpVtvaw3QlIZ1tbfETetn/jRgx0jbKB1QIWpPcA1KzlNIWW+8ZRo4YHvbrWb4YI4Sjb51ppQCVnBlpLLbAe1DTIfyHSO0kLXbaLp0HDh5/8uWwwvIdipXJwDcGhlVXWc7a9WgIDz36ejhovx2KBefdD3+yjSAYQOQJwj+TpuYK6cJGdvJZWANfc/B1TuknH8R5U3xuIR5fxMJXOAb/mtU+9xJc9/o2OU55LT8P8fv9dwKVvawymGVsi5HX5s5Sy+d7yc0HeskNvOSO4bvCshIqz2gm+MyRChaTWlDGa2Sc7vMFU9fTn43049sZ4sn+2xdcfIN9z5prdCqOXuN/zz3vEoun3dv3ugts0wGBxRlov2+48fa2EMSGG/zLti9SmgwZ8ofNGd92+x2KA2kg8m397rVRctoDjDb6l1+jYpeFrbfe3ArGjz/9FL759vuw7z672zXg3gGPhF12Sg1/zE4bM3qYbfOrfHnx+cdmKPAVCnchLURi72spaogNSEfiOSaMj4T36RmjInHKw8pHOYFv9U2GGFLXaZPH/6HvUDnQf6uMqJzkwZc1SXD/DSqvvtzqemkbeV29C/wINUltL7njfm4yJKswKBHL/YqkBhUyswqZJfA+7o2tsioQdAthNef7IdWFF12eDgaZOsnmc/fpc0HSvKBduogNfHnx5dSizr5eWgARQxa7g261bfeCYa52OLbXwUZW9WHThr7yqmsTMtcvqt4Q+94HnrZ2tPrDiXv6mdQohyTv0KGDfdszz7xgGsZWW6UDa957730bg85e3OTDo489F3p036HYHceEkk8/+9okd5zmpK0kswgdI44XySG9wlo6S8fyYygv4zwVlLf4vjLKa5t71d0j/k9Pct8eVxkQ9F3lTYyK75zhuBIJDiorn/O95Ab6SLW3JaVAVj93jKzMi1ExIyomWoVaukBYZbLu8wYaQRnMtfc/+GTYcdfDQ7e9jrA2eL16Dazf+v77bg+LJ21w/ol2Nmo633vJhWcUdwalm4xBMXf1/29YecVlbA72jddfbFM1lRZDhgwJF1/Sx3YpOfigvYuqN11dzz/3XFh3nc7W/uZ6Kpi33/08NG1cy4a4IrXRCAbc/1TYbefNi11rd937eNh8i82MzF9//U2YFppa00G4oe8dllakjbQXvj2PYCAmRxY86QkXn+3uheSliC7n4fNYKOZr8t2xyq48jfNV+R//i8oNvsIqA3o33wTBPfLKZ5Ykr5s0FzRhZ4Hv5wb6SBXkvDZ3lsriE06Z7TO9YsLPKK2V+SDOzOJ9UeZTKOQA13319eBE+mIRrxnW+FfH8PADNxtR2FeMyuuRR56wdjbq2oXnnRy6dk039nv44cfCgYf0DttssU4Y0P/6cOklZ9u+XpLWpMWrrw40wx046/SjrJ8bYqOisxkC2oHa5MRT0UyePNEs8G1apxULyzjxbQcetK+lN+32l158Oey3d7pqK91ejz10bdGCzmKNX3+brhgDNLZb8MRDGyDtNMpLx54gcdp66FkiPccsXCDofNYzPMnlK8+VfwJ5DcGz2uUgzmcP7vVlJbaqUzaL5cV9k0ceyT1oc/uptsIC388NJL2FCl1hLrNSCTJjYsUZnAVllDJLhVD3yHkCC3qvComuMQmQPGP9dVcLt9x0ZVh66aWSZ6Tt1gsuuNTUdHDVFecWiX31DQMS0t4SrrjsjHDooQcmErVpkoHp/6KC04990qmX2qi0Vi0a2OIQrVu3NgIjnVHRwYEH7GNpJkmOKn3uWceGLl26WG3/+utvmDax5x7b2kAVvguyr9px+eKYdani4MMPPy1OFlEa2T8m/y0CA/5Xx4sUCrr35bhGvr/HPyuGCJ3lK79wQkxwQXkpKN/j8iNiWz4mTvfE7yq/v3A+8XG63r8ri+R6Z9EvSG1VOH6XT195/FOSu8bfCQrhmYY+EB9rLeQeN268tUFZ7YNCzFzmNwa+H4b8Md4Sb/Kk8WH8+PLumTgBAdf5xAEqqIIvHMBnjCd1SuL8Oow26fS//7LJDhedf2xx8YWPP/48aUdfaYat+vUbhb7XnVckEyPTGNhyy42XhHbt2tlUSzIQQ9xLL79m7XIKAJKeCSaHHlw+NJU06XNl3zBxSs1wfK+9gzb0Q5Lf/8CjYf/9utla5vXq1rNx5Ef2OivUTZoJzz55pz2DeeannH5ZuP6a84tTSwWaCKeddV046fi9rWK96LK+JrVJD/qzSWsIxhK8WV2TpcDa3JBcPgU53mFDKnoeaK9zDYY4v9R13n2xigyQss0a1widm/wUmi6RTpUVvp+wTHG99o7tKi7tNei3conKWnIdGpbPsV99yjvhjWFLhB9H1QofD6k4wUmIv4W8FVq1WsLm1JeVTbGKfP31/mUTfxgkxbRgdq0hPxs3bmQVORW0F4JzC7NFbiCCaxkiVgKhAENuCizrfntyMylj7NgRdk9WTQ0gtledShG7MlLL8mlxybVqHviwCN616+6min/x6Vs2b5vzqOmXJeq2rOKo4uecf6Vtoo+xyxZxSIjNZoK0yQUmcrAoBG1vAYnOtsBY5I8/7vCi+k5G//nnn/Y8uuEaN25sadhz/xOS9Bwfzjv7BNMYiNt2x/0TVb6trbQqTJw4MZx9fp8wYexIG1/erFmz0Oea/mHAgHsTVR1SJ9pK8r/16qfvK0rsQtrVrl0zKZgzNpuUPjFEcEGL8sekrwrZUedR46l0vDofA3LxbNKuTdPaRt6NG30YfmuRTpYB3w1OhEuDtULjiR/M4API70m9XPvycsS9n3w+NPwwLq10tDQ0aSBDmye4yE3aNm/eukhuKp4uXdavQG60uhYtmpthVuSWm5uYY5IbB8Erk9yQm7WfPVTIBC+1SxEbFSwe5ACpIaoILcTviEE/JvfxPArlku1am8SV4QxIYl943vEJadc2YrOpAGryK6+9a9dAaizaG2+UbsWrGpqpnNxLvzS7iaKGC/Xq1bXRcCI2m/FTCbDWGpvss4kgBYHRdFQ6D953Y7Gvm8rm8qtuD2t26mBrtvE+DHAsq/z7n2ON3F5qk36QMIvYeST3yCM88NLdoxTJPbFLEVwDa5DYnTdYOg2v0ihMrVk+8ebzz94shJKKtMVuYb0l0o0ZBM7/PH2TsNQiryba0b8trs5f6T5rH/5vfOq/9ZNJcEiOAdQjS5OA5FmSm0U+WrZsueBLblxV1fKysslhzOh0OKegguYlNqRGonpyx8QWUKkltbPU8CxixzUxhda6jZJ21BGH7BL23rtH4Uz6j5f956rw30dfCpdceIKNGEMVZ2HFs86+3Pqf6zdoFLrtvnVYb93ORlxlHmnCiDTIzyw0JqR42wRj2EVsVmEZ8ODTxeGwe3bdLpxzzulWGKSO73/AQYnavZ+dv+m2RxJCXx022rCz7XyCQY20Z3bb/778IVdqx8TGBwpn+VkoRXQQkxxUJs1jkkNq1gJg+DLbKSGxd1j6q9Bw5fVC65XL5+FP+2u58Pv36WYRwuIdyndoic8JS66QquF/fPl++HvE9+GrN74Nd3+ztJHbS2+PmOQtWi6epFOSrsk3olksNJKbD6SwZknuWC0H1HRMuQSe1B4zK61BLKlBTOq4GeChDDvu6B5Foxlg0cPLr+ib/NOEcMH5J4VWLVsZsX/79bdwxpkXmnTtsOxSNriEdcUFRp698+6H4fnnX7ZC0rPHdmH99ctVSFA3kdgMc2Wn0bfeGxRefeV1i2f0Xa8j9y6u6YZ1/KDDzgidVm0f+lxxkTUdWHjx+BMvDI0atwhPPHKTqeLMDz+814VhxPB0PDlp5KW2iC0y27azfyf/LT8DnvxgVoiOOk0bX2SfGXWd/+B6SI46vtP6ZWHNNn+EGi07GLkhdYNFm4aJwypqg8SF2unkmZGjm4UWDb+pcI3OTxzybahV87tQNnpQGPn7BJPgDz+drjFH+5u8QOCUIrjIvVBJbggtH8kNuTH5q82dJ7kh94zEKz/OktYU1JphfPgrNLJjAUkNSknrPFKr4Hgs2a5JWGvddMjnwFefC8NGloVu3XYNXXfZuGBTmBS++uqrcMElN9t/LLVkOotMajb//OwLb4e33nrPVkVBqjKYhUzWmuFIaxZO+Oiz78PHH7xVQf3bdrstw/G9Diq28VGxe+x7opHzkQeusX5uxpR32+toq+Ru7nuJjSXHmMYkl2+/H1Ks/GKpXbduYdAJZI32k85FgfwmUQskzyI8xyI+ROC9pQgvorMzZtY2PCI4PptI0sXUZPK3oev2qRFtyy3SirThsj2LJK6AsmgNca4hzvsgCU8d+aGRe8QXn4WPhrY2cqvtzeYO6rPOIzjk5n+pxBjbHxvUFnrJ/dvvY5MCR38f7dR0d4ZYYgOR1EtrEEtqEBN7xgojVb1jckvtE7k9yZVhtMH36LZb2H+f7ZNvTkfeQeyHkjYu6vmUwj5RZ5x6uFm8ITV91HRlgU6rrxh22G7TsOyyyxqZITbPoIuMGWFIcxUWjHbbbr1R2LDLhtbdJSCxDz/6/LBoi9qJ2o1lvq1VokxGQe2+4JxjizaBJ595K+y43QZh4817JPkwvkjsOsz6St5fQWrPJLErhJ2EF5lFbE9wIYvgcdu8lCT3JF960TJTyzGE0d5usXjDlNxApE2AhEYNV3sa0DZHTTeJDRy5J/zQvyi1vWGNPPJNxSwJDpo2W9TSljLTvGlNU8sXyja3t5ZLcr/0yrth2PCkwEXkBiK4l7z160wLU6eVd7NAbN+uBrOihkNipABtOAiuggMIAwoaBN9j141sFRX+iXXVMIj995Gnbb60avIGDRvbAJbhoyebpG7WuHbouNoaYZcdNrFM9WAhhgEPPm//TgFBom++2cY2fNT3UwPS8vqbHgh33H57OPWkQ8Iee3QtDlC5/Kq7zAp+xJFHhUMPSAexCDKuidhSxwFS2xO7lhtZ5TEtKaCcw8+FCB6RHYjkCntkEQOI7Ei+UlKcLrx2bVuFrVf+xeIhOKp5ndbb2jFEhdh/j3vCpPAfg36y6MatGoYGiy0aWq66eqjdrGOo06Jzkdyo5Vz/woup8e25L5e01WVHj0v/HzuMEEtwCQ7ITeWJsXjRVo0WHsktH8fCg5Bbktur5ZLc1G70c1emhgNIXZX2tSd1KWktAksSeB8Q9hKcTMRGQMVCmOmVQvOmdZOMa2WrprC6KdsBeULrm1nsgfHjbw58x453TojPWmu0kePMRd0eMOAhk8KTJo0LJx63f9hrr+7F67DWMzPsskvOqDDNFGBwu+jS2ywtRWzSkn+rCrFF6rxwLtlzJHqeNM8i+MxI8jaL1g3/aj20KL1jciOFITaY+Ocw8wUIXrbYbqHDeusXJT0qOcY0SW36w9lkkeWYQUzuLAnuyb3QSG4IzYci3bIkt9RyL7k9ubOkNRlLoZwZNZwan2VlPallZfVhSbHK4EmOkYQMxl9pxfZhzbX+HdZYbUlbX03Qt2IcE1hUEQPZY48/G4aPnGgzz3xbWsAwxhDVjz/9Ovzy2x8VKrfHH7nNrkdz6N//Plvu+KgjD7F2N6A9zjrl7DDywisfW1xMbK+Ox0MjVVCrikqJDjLIDqpKdODJ7omO5Ga+dJPaU82wViQ3kriAX968KQx946WitMbwBiZ8mVauWNmX/PfhueR+eRDbS40skht4goNYgjdvka4BQNleaCV3qX7uX4aMSjI3IW+SAEglQUSdExI7hgq4l84enFdlIvjCpO4YiE17do+uuyThMiMuRJbPyqhYx5nH/eewkeHX30fZCil69u67bh5OO7W3PQuQPrfd+Xh46skXwqjRQ+2aDiv8K+yx8zph7XXWDNf1vSu8/tp7SdqkywS3X6ZjOK13j+IiDAwxve+hJxJV/31Lkzgd9N8Qu27dpMJJyCZJ7DWmPHgJVRkqJXqEqpC8lCRv1mh6WLnW/6yvG6t5mw27F8mNSj7im/tmIDddXEjxccMnhNYdlw6t1j+z2PaG3BO/vC+8+r82Ffq4JWg8IHlW2iC5wULb5sahlmdZy73kJiMnThhTQWp7coEsqe2JHRfmLDUcyHCWJ7H9e9Xmi0dXUTG0aFYj3HD95cXRaEynZAmkTz77yYgv8F0qqNxPYdhiy43Dfy4+wzIUYNW+8KI+NsCkw9KLhw26bBF232XjoiENDWjLbfc3o1jjJi3DcUd1LRrNSM9rrukbnn/pwxm0F/2//pV/q5VUPF5ie2LXrFUnKYyVb25XFaJLoiuciwLZRXCFhVIkx6/x13DrDmv397eZ5IaoQwfeb21tkVuQiq7+cX8PkhvJfu/ARkVy0yuDgAEqC7GKLojclJ+Fqp9bvtTyPGu5JHdMbk+wLIkdS2tQSmJLaoFSEltkLjXGWsRdrM1S4ehDtg6fDfo9vPjc49atp7b42ut0Ch06rBiaNpwWyv5uGkYN/9HWBucdqPFMRCFTyUjSqbIMPeecC8Mbb30T9u6+adhvv/I122hTX3fjYwnpJ1hlBvTvSkP9a1EVLxC9biI1gAiNL/jjqpK9FEqq7gm5+XRlmZfi8mOCA0lwus061f/SxpRnDWQBIiqIyS3JTYUAIDhtdPDLyy+Fp35aySzlv01tab0hvpkYE1zpQMXHWAOQp5Yv0JIboJKXspb/kahMIrfUchVKIUsNh0QiOPNlRcYsia3nKUPyiC1AcA8veQVvwfVt8Z779gi77bhBBUs3aXHfffeHq669JyzRfrlw+83nhkaNGllmymWBdPr0089CvzvuD8uv1Dn0Onz34nPpDrv+pnvCF1/8YMeC/kP/aP+b/I+RGqlYUMUlrT2hsxCTHiiuFOmrQvZMRFLc+4LPC/KhVYNpJrW7LPpraL9is7DkZpvbObrDkMBAkhsSN2n5d6i9eCfr5pJqDuFFbsGPTtMEkizpjV2ItngswZHclMM8g9pC3eaG3OPGjgxTkpqQwseifZ5kYHbb1xjNpk5vnCutkWZS72L4Z2eBQiYpzvPPOv3AGWZk8c8DHnwx3N7vjtCmdbNw5RXnFncJIUNHjRqdtM1/D+988E348cevkgpuShgzargNOkED4J8uvuDY4nNJu+tu+m944fkXrK8axP8lQgNrW4OofV0ZqStDLNlLkT0mupfipaS5kEdwiC1D2vq1Xg6Lrt3FVHLI22DlvQpXJvePHhTKfv80DP1yeAVjWuPwXRg7okaR3OoSE3Tft2/8HD75fmp47c9litI7Sz0HnuCS3HTzsglErJYvNP3cWWp5LLmp4SRdwcy2sbNQlfY1RIgJ7p9tEi+BCpnCQFIEku+ww5Zh0y7pcsJ0dX38+a/huWefMLvCVpt3Dj177mU1NRn42sAvwgP33x2+/yHtR+2wbOskfSaEoX/QY1DLJqvQC7Df/j3DgfvuED744MPwwqtfWL+4Btp46Qz0/Xy7fSfW6QRVkdTkAaAgEvZ+VeAJnkd0SJ7XTq9MkoOY5IQbjXsv/Gu1NjY9E6ndZuVWJpXtfIGoGkKKWg6JIf+4sJydQzILntzcY35CbioApP4TX7U26Q3BNb5cEMFjcseSW+RerPVioWGDhgum5OYDIXVlklvkBszpBiK1H6BCQffGNiACkoBxdxfzgin8WRI7JkMMPVcFyRNaYUEFbVrZ1GIG886pBVK0aFY3nHrykWGppZayseeaLbZI7YZh7z23L663JmDx7nX8+Rb2/2e+IzRQxQSK31yoxLyUNt+RWukdI4vYunZmyF4VSZ5F8lxJnhDcE1t+/drji1J7qWY1wkpdljfiAggek9sTOQbSnJFtWeRG4tMu9+Rm3r0kN4ilN2W1YcN07zfSrPWiTeebNvdsVx2QGkBwXN5HQ1rfhgJKND/yDEkmUJBVmAURAKgfGwkXE9tDBhlBz/UEVh86MOIgDZ3jWlxqgS5MwkjeybhtvumQQ48I7ZZol6jbk8JTz74bep1wmW0IcME5J1QgNhNRrry2fzj7glsK31DX7kf15r316jUs/kvxPQlBuBbVm2twkANDGeRhuiEkw0FMuTzoXOx7koP4fAxVJHq3woKIrYpHUIU0A0jnQqXl84b+fdraoHnL2kXLt2BqdYGkEFfqONfJAREb+HsgNpABrn3tX8IyzdOyKQOvBBEVrYSG4Muk1lCrDOLN3MRcldxZ1nIQS24ws21sFYI8iY1lVTORSqnhFaQ0RK4MzhBEZcXzqc1XXCHdg/unn0eF8eNGWbgyeAkNiQVVPPG3eSntSZRHvtmFl+Kxn4fK1PUYpdT0QqdAqFtrjPVtY0iD3HRzoZYDqeYeUs2RwgIGNk9uD5FbknvUiLKiYe2bMUnbPRE+XnoDL8G95FabuzKD2nwvuflIL7mB/2itfjpxYprIXnJ7YiM1sYpXFZACUsfE9jWqrOpenRWxvVQoRWzIFDu7riBhkKSS5N9994e5KVMmFqVrlVxyL8NDeZa5eumGALyDOeL0UeNiKQ0gGo7lmQH+zDrdlwWeHfsiuI5jeAkuJ1il5CpaUCFtPZL/r1k7dYDur59HzyiHIKbIic/QUxEbksrRliZeQ1P9PVlAeqOWS6uU9M6S4FnCx1dkC+W65YIGUYhcJBDtbIF2S5YBLU9iQ2hqzlhiA5OGSQHyqrieB7xENMlQIKtHZmEroEJhFMkTQrJJgYiejuWuuBggTnH4uPoNIG2qavOsuvUaGYnljMiO0DgIhavfoHH6PZUQNAvTCgs5esTPqQrhKyM6kCT3yCI5yEtz2ttjfv3V2tt5gKSyiHuJjaQXiOd8THAPtAIwuGxJ85lmrCYb0juv/Q18mc76Pw8E49zGbL9BH6n2tpfc8aYEHtSIJJoSjj5sDxE7JriGhBohIlRQvwvhPGIDSQWPvAKmAukdBBTR6ybtQhGd50NayAvp5StOEhpCSyrjRGBcvfrp+HF8iIOrCqEXSSoP72fB35cVzjsfIyY4iEkuYuu/PJSOHkp/nw9Ta6VDRb3kRoX24BjpnEXsmOBcF98vcJ73ILkNNZsX7UBecgNV2oK3HXnJvVCuWy61HCNDg7ozjj4i0WQZVx+4J6NGYgGIIxejKBkXmTBz7WvX/SKSengixygWWneNkRzCF1RpHBWIETghv48vEpp7CwVfJMZBKvkg9iGvd2gCIrT3S7nK4Intwx4is0gekz0LMcljkI55bXFU7Bi+rezPSwrLB7qG6z3BY7IjudvVGWHNRQkgoUIZrWA9z5bcC+W65QKFecIk+vUgQfn52IgWQ9fS5SWJLV+A1KaiJ4nph5JmEjupGIqqOJBfBYiAcllxqM/Aq9MiMGHv/H2QQUSWA/K5HmQR0yqHxMkqXcrpekEVQtZzPfz3eOchQnuCK86D/xUU9t8nqLLFjZ9UsTKQdIaQOBnXBBF88Nfpcl74MfE9RGxVEAJtbogdNxtN6yyUr4VWcvsPFLG95I7V8lhyexQTKyF0rIoz8kyJGEtuSO0TGOQRG0ntVXFfgDwqkMEVxjz4QuzVafmewN6hZuN7sniiqW0O8PVd3gk+nAdd4+/1YRATPg+022OCC/wTqIzkcXvcf4dHo/pTw281ljdpisoMASEsZKT7ira2l85AJM0jNNdzb0xsqf5YyhmhJs0yluAisi9rC6Xk9h/qJbffK8zXaiBvBJpXxT1i4wWgIDJizKviHpmquEOs+sWFK6sAeqjgxoU4z/cQMWJS6xv8t+QV+jkJ3oGTBiDkET3+/iyi67/zVPU8gsf/O35ygzC2rI4RHIiAkNH3YzNyraoO6D5Jdj1Xw0/ZtFGgvIroACJTbvME1kIjufGz2tyC2twCNaCG73lie6ktCY1Pl5eX2EhqHG1sSTbAs/S8ChI7p30dS2ygglWK2BTUygouoMBnOdRsTxqcL9Rx4Z6X8N8Qf4++NQb/5P0YpE8pggsKxxWM5VPtdEEEWbFFRElwARUdiYxT2MfJCbq3+LzC85HaLADiy6cfcoqw8up5jGLaJbxY4NvcWaQWfJtb8LUggNReatO2hpilRp/F29kIntjFNvpMSm0QE9sXTgor8HG+kMcF3RNZiMkzP4Jvy5PmecgiuSd4pSTPSRes5khvJCvwElwkRc2WREZd9z6QpOd6KgYminhia9jpIrVbFcujym3c9vZqOECKU9ZjLLCSWwSX5M4yqDGjB0iFEbHjWs+3tTGixRIbqH2NKp5nGfequL/fS2qFKUDFwlQoYDGps5BFapBVsEUEX2h9eH5H1ncD/Zcneqm0EMGFmOR5feIC6vnIskVDnRbLGBHVBsdBUsgqSU53V5bTNV4NB1QYIjaGWa9F5kHSW6AMmpZaPy1zcIF+cSQ3QABmNWXnFmb7DVk1ELtniOSNGlU0dMTIS0CMaFnt7MoAqY3YGao40jpLFRcqa197H5QqyJJuWcRe0CGS47IIDkiPLKNbTGiPCtLbhwtpRt4hGceG9uHH2msZGUVy4IkOebOcrsHpXmkCEBtVPKtMeuGB9I67x2LUKmyb7PvF4YRvys5tzPGx5SzWMG7cuMDWOCNGjAyDB/9iK3YO+X1EqFe/kU2QYCZVLKVLLWCItI6NZkpsSegiIvXbk9kTi8JTFTLnIS60IC7gel+s1i6M0D+agTNJh+k5FXPW6DjBS3UP5RO+R+0aI82vM21McWJJcfBJAYxqg8geEJqKAYysuYRVGIBmngQKWiOIBYxvOkoTrVe3oZVp5kws3X7R0GXDtUOHDsvYghvNmze3BS3r169nY8tZonpeSe85Np8bB8lt8sj48baP1siE3H/88Ud46plXbIN7CGndPwmJvXptfnKOxMolLShIYzIjSwrHBPIFIo/EACLHBp/42ENSyYezyJ4FX/Czwt6vKkQq9R7MLT/+xlmFT6+Y7D5tBeWF9z3I4xaNJxW3780iuqQ7pEatB7ThJ09ramWpApzG50Fzz1vHNcSZpa8mTUzXo1+784phw3+vHZo2bWpTPtnYEXJruqccmK/J7SU3YMEGkZv5zJrTPWbMmPDsc6+H3379JYwaMyW5ZmJSIKteeD3xfeJ6xJUDqOw4hp5d2T0+Li8cAwL67hF/XOrc/Ap9Y+zHUJrgA59WIE6vqqZnFho3rFHcyWWNtjPOSnvj6/GhXdt0M4J4B0//jTML9hNjwYbVOrYLa3VePbRmgYaGDUOLli2KCzVAaK2lt0BJbvl+7XJU8wkTJ9hKJSL45MlTbOlfMHlS1ea9VqMaswL25GayCdIbqc2sMvbqntNgrjnAiNaqVQuT2Owbx1RPdm/1KjkEXyDJDSC2VHMIzsIFIjjrerP5vEatTZtWcRiphyRBqbDgpUaWX5Vrsq4tFRbmVFx8Puv6+Q2lvh/Malzec7PuBYr3flXgnxU/2x/Hz88Ci2ACbd3MhhUQu0HDBrYCC+QmXu1tnLTeuYk5Qm4+0qvmIrkIzkL+kyZNNMktQHYPricB5Pu4vLCP84jjs64rdU1l4Tkd58Ol4uY333+jD89OXFXCsS9U9T5hZq8B8THQDq/Ea1vmmNhywtwmNphtcgMvvb16jmNkjhbzB0jyalRjYYHfeYYuYPq0a9WsNQOpJbHBvCA2mCPkBrF6Lh8VHUByxQssJFiNaizogMzmJyTWSDRPbB0LCzS5gSe490FM8mpUY0EDZKUce9IKntQiMsdqws4rzDFyCyK5fiQmso6VONWoxsKCmNDeFy8WeHL7nxH8sb+mqj8bX+uPs543s2EQH4OsuPkZVfneOf1PM/O8qqTxzP5DqfurEgazck8MzmVdU+qeuYk5Tm6QlSD41ajGwg5P8CyizzuE8P8AO1Lc/4U8nUsAAAAASUVORK5CYII=;" vertex="1" parent="1">
          <mxGeometry x="79.31999999999998" y="20" width="121.35" height="81.55" as="geometry" />
        </mxCell>
        <mxCell id="jqA3G6PTlr-n26VSu3n4-4" value="" style="shape=image;verticalLabelPosition=bottom;labelBackgroundColor=default;verticalAlign=top;aspect=fixed;imageAspect=0;image=data:image/png,iVBORw0KGgoAAAANSUhEUgAAAN4AAACoCAYAAACPHFBrAAAAAXNSR0IArs4c6QAAAARnQU1BAACxjwv8YQUAAAAJcEhZcwAADsMAAA7DAcdvqGQAAGpOSURBVHhe7Z0HmFbF9cZH6tI7KIiADbvGXoKKLfaKETv23ms0RBRRsGBBxRIVO7ZYsMVeYoktGisqoiIogvSysEj+9zd332/PDnO/79uG5p99n2eemTu3zz3vnDNnyl3mPwlcPepRj6WKBuVxPepRj6WIeuLVox6/AuqJV496/Ar4zbTxFi+ub2rWo3bRoMEy5anfHn4VjQfJwgBUUPVxfVwbcUzGfitYqhrPvjyF81srjHr8/4WVNxHz10TDQQnK03UKXpoXFs2Jf/llURIvrhQWLlzolknKpT6uj2sSW5lq0KBBEqeEI1ZYhgN/JSwVjRdqNggnlJWl6UWLynxcj3rUFI0aNfbyRNy4caPy3BQNGzb6TWi/OidejHSWbIsWVZAQlJXVE7Ae1Ufjxo29DBGDRo1S4lkS/hbIV6fEs6STloN0IpxIhnkQI9yCBQtd06ZN6tP16aLTgojXpEkTn4aAkA9AQMgHRMClTb46I55ehjhGurlz53qyUWgQDyjmONVO9en6dFYahNsChCNASIgnApaUNMsdL/KB/xfEs5oOyLwsLZ2fxGWeYHPmzPXx3LnzkrgsOSYlHUQshKzCrs9P8b+Qn3UMgGwNG0K81Lxs2bKlz2vRokWynWq/Zs2a+WN/LfLVGfF4CZmPFBKabv78+Z5s06ZNLyfdfDdv3hw3a/bsnFZcULrAx/WoR3XRtKSpJ1SzRLu1bNk8IVmLhHTNvdZr376dJx+aD5SUlPhYWFrkq3XiWW0nTRcj3ZQpU/y+77+f5OYkZicknFPPuXrUEC2bOi9HXdonpEs0XIeO7VzrVq1c27btPPlatWqZ03wyO217b2mhVomX1a7DxKRNh3k5ffqMhIRz3ZSpP7ufp0534yZMdXPmtXLLtpvtmrXq6s9p0rihW1j2i083bzLPzVvY3KdDxPaFeYW2Qf11/vuvYzFl6qTylHMrde/o2rZr5dolxAvJh7kpb+fSNjlrnXhC2K5D082Zk5iVs2Z60s1LiPjxF2kBUTstbtDOEy4EBFR+o2Vmu0X/aeXTwO4TwrxC26D+Ov+91wllQpj4w4Ty1JLka9eubWKCYn62WKK9J8VR1+SrtbGaWSYmpEPbqU03Z05SWyXb33w7yS2cN8ubBiIdBQpsrAImrQLW/vADAXs8yNoG9df5774O26FMKO62XHcfI2OTf5rqZkyf7X0JWFsoAKwvZDPt1qroS7ZyXJeoNY0XEo82nboNZGLOmDHdTU/C99//6CZ8P9k1ad7aderY1TVvXuIWlTti6lGP2gIklNmJVdUpae916NDRO1w6duyUaXIuDa1XKxpPDwnhKrQdcZknHTUMNQ2km5q06yZPm+9ml7bzpKP2qiddPWobjei7S2QLi8prvUTmpiSyN2fubN9lRTeW+pCRVawzgPwuDa1XY40XajqZmGg8tN3s2XMSbTfTzZw5w/3881RvYk6bPquStqsOICuFG6ZBvu1i0qAq2/XXWTrXKRb2nHnzSr3Wg3zt27V2XTqn7b1lu3RxrVu38X18tothaTlaakXjSdsJ1CDUJKpZ6KujpvE1zoLERs8gHQUmKJ0V24+hdLgv37GgOtco9pr116n96yivUGzPQca8ZZXIHBU+XVf0FeNrwNGX+h7U3sMnkVptQl1pvxoRTw+lmIeWF9OamDRqMTFp1wGZmCFsgSmdFQMVtGD3gaxjw/Psdr5rgGKvWX+d2r+O8grFIZA1ZA4gg7MT0mF9xUxOQeT7zWm8LBMTxLyYP/88w+8D1EJZhVQVVOUa9tjwvOo+S75rVgX118mPmpwLOB/yofUAsjh//sKolzNVHJU1Xl1ovRppvLA2kBczZmLadl2jchtasWC3w2OKjUGxxxaKQSxdKAZVSWfFoCrprBhUJZ0Vg6qks2JQKF3dWLDbpGm/IXs49WRyohBQDCgImZwgNDmR89omX7WIx0PwMNQQ0nYyMVMzs7KJyYtNndnUv7jadRTGouRcYgW7HR4Tg91vzw3zLIrJj10rtt8i69h86fC8cLvYdHheuF1sOjwv3C42HZ4XbudLx2CPsbD59hrhNmAb2Vtj5XT6EDKJyYliQEHI5IR81uQEdaHxquzVtA9hTUwedsaMGXm9mD1WWDFXEPWox9IGo1TmzJntxo6b4Zq4id7L2aFDW9elS6dEKXTwXs4OHdp7D2ebNm1yfXuAPCmc2kCVNV7sxlkmJjUKpFvouuVIVzEjOKi9gu18yHduVlrIdy4o5lq1lc7C//J1hHz7q3q8gJxicvZeqa3fRjZLSxdUMjlRHCAdAFLhEJLCqS3tVyWNl6Xt1Gf388/TcmMxNQCa/pNuK6zm1XxJ0xL/8hSMYiHczod852alhXzngmKuVVvpLPwvX0fIt7+qx4dg/7jxX/g08rnKyiu4jh3bRcdyqm8P1KbWK1rjhaQDlnTUFBBRXkzGx/FSmJgh6UC+gmQ7X2wLGLCdlRbynQuKuVZN0oBtpYH2h/H/8nUU57t2uA3yHR/GTUpKvAUm4OWkb896OeWvkKMF1KbWq5KpaZmusZhAJiZjMWNezOYtWvrjeOEYwnxtZ8WC3c5KC/nOBcVcqyZpkLUdxiArDbK2wxhkpUHWdhiDrDTI2g5jkJUGhY4H1d228eJEbpFJ6+VEZmVyQjQUCQrFmpy16eUsiniW6TIxATWCJrbKi0nNYb2YrVulpGuQ1EK8MDFBebH8Qoidp7SF9llkHRO7Vk3SFrHj8sEea6Fz/79fJ+sYi2K2CeE17bWRzZiXEwWCTKtjHUBAYaloPHuT0MTkoQh4MWViyou5as+m3sRUTWNfHNi0YAtFsIUVXkOw58WOs3nhto4Rappvr22R77gwtgj3W8SOF8Lr/TdcJ98xVd0mDvMsyEM2S1ou551/yKw1OTWcDOUi0qFw4AChplqvKOeKbsAN9RAzZ0K21B5mGQfNPPjyq++8+l5nzUTbJQ3VetTjtwwIOG36DDfxu8/9dvfluySWWjp9qE2btKuBhZLatm3r2461tUhSXo0H4SzpZGJCPnWUUzOQz0TDbyelw8J6LPeLa9++s0/Xox6/ZTRp0sx17NQxN5xMJuf80nQhLmRcHetAHBCq6+Esqo1nTUwcKqhg68Wko5whOPJidum6qlu0uMw1atA4F0CYDuNi92WlwzjfPsV1kc6Ki91Xlf02rTiWp7iYtOJYXhhnpRXH8sK4mGOqGlf1GLycyK5MTppNyHdocsrLKU5Y5VQVZJqa9mLSdnbRopiJCeiz69Z1+eScdAp+PeoWquBqitq6zn8T7DuTnjpl6hIm57LLLpt3nZbq9u0V1HhW28F6QA1gTUxqiCnTlvGkQ23XY+mhtsjyv0Y6YN+5aeMS7+VEhmfOmuVNTmYwoFjCGQwA2QdSUFXVelHihRfhJuqz4+YaUIrrFRMT9dyp/X+8F5MXkLZr2HDJOXdCdfdloSrXq871i4G9btY9ijlGyLdf+8LYotD1QVWvU5VrWoR51TmmmGuEsMfE0oqR2ebNW3kZbtCkh5fprEmzcMH27VWnnRc1NUU8aTtsW4JGqEydOsUPC5s8eUolLyYOlWIKox71+K1iQVlpJZPTDifr1KlTbqmImq7JWdDUlEoFGqFCDCkxMQFezE6dlvOkKyn53zNZshC2c+12oTZwvv3aF8YWha4PirnO/xqw2KyXExmnOQUPMD/RegSr9YSqaL4lNJ41M0OnCqNUIN53E77zg6DfeucD16z16n60t7oPbIMVIvIx82lBiFpaWpYjrE1XFy1aNE2eM10PXul8MbDpetQuYuVclbimkEzZuBAmTvp+Ca2nBZKYOqRlAavrZIkSj5OJIV7MzPxx8mQ3dux4bwdjZnZo/4tfhr1l86TNV74c+4/TW7leK7RKTNJ0XUOGj82fPSm3TLtNF4twnRam9LMeR6GlAezEyCzgqVI7VrCDbfMha3RE4waLXdniBtE4H/7jmrplXCpwNg20HcZ2n03HjrOwzxN71izofW1cVVDesXIXwm/GdohwLRfW0kROtLBtVTD+u9k5mUVe2Z4/6zPXq8fyrmePrpU8nDFzs9Y0XmlpqY9nz8bLk077oQvhxx9/dO9/8Lmb/NP0pNDb+87GX5LCa2gEj+3Fi39xjZukNR3bgDzQoEFKIm0LyhfsNasDCgaTIBZXBdU5J0Tj5F3KknLIF4Os9H8rlmnYxP2n/Dds+VDMceEx2s6K7TEWlGuIJk2b585duGCe3268zBTXpnVrr/V69ljBt/Ni04bUzquRxhMgHgKHxtO/DyZN+sH/4eezsV8nNcIc17ykLNFyDdzi8vYBRArJE8urLTRIzFjdW+kwDhHLt+eA8DohsvJD8N5h5QKy8oH2hbFg86sLKjRVlrG40DHApi1ix/4aUCVr02HFG1ao4b6mjeYn5GroNlx/rdxMdVahRuOFxKuKxlvCltDJmJmaACjQ3lMefR2Qbl5p4yUEA7CtvJoISCGIQJYkYRwGHR/LE2J5wN5PUF4IS5AwaH8saF8Yx/ZXByIFCEmiWISxedoGNo+0jcNjqwMJf3ViBZFI+0JoP7EQHotSAcxULwSrtAphCeIVOtl6OUOIaJaEImChUFNI+GNxVYLOEbL258vT9qKy1Lzh/UiH7xwGHWtjYNO1gZAgIXGIbRBsHueGacUW2rb54TExiAzViRWytkOyCeGxoEnD2T4uKWnqlZGgjnQdy74aaTygC0CyrIavQGEXKxixWlp5XEMh3A7zbVxbkAYLiRSDfabYc9jzwuvErmnLIIwJ7Fc6DIJNF4tiCCDYYy3BQtIpVrDHApsGWfuUDuPaAGSRZhNxFFuNh5m56D/p+ixZGk/HY2rWSONZYFYW8uxRIAgGjFfw+ZEY4dA2iOWBLCFSvo2LDTo+C1Y7KQ7PVeB5bSgrW5AL9jgb/DXKSScyKuTubfYr9oFrlOeFqHT9JK6JZi0WVSFI7FhA2p5DsKRVvuKQ0MovJo5hQWnFxFYLq+0WLGrmGi1TsRCzQD+eUKsaT5BZaW8UggLh48mrQ8xDgFis/TYdnmPTNgZZ6UKwghYL2mdjAUJxLwXB5tmwcGHpEnn2XgoWEAuta0kXQ7jfxoRi2p7+/hxf/gz2mYoNOk+I5VUVMaIgXyDcV4hc5GeRVfsEu8/GYOEvrcpTFeBf6gBzs840HtCNBPWnUCMICJeNs6D9WQQl36ZtbNMWdjvfvkLg2FgQbF5Z2fykoMuWCOTbYwW7rVhCnAtZRCnPLxSLuAoxIisO9yltQV5W80AE07MrHZrFNYUlQT6EpBHplAZs27SCtmNQG88CRUSHOaHONF6sjadOTWxggmAFrRCyjrX5SivOIqtigiWphfLsvlieEO4jiFxNmpS4gw46wD352K3utZce9GHPPXdzZckH+eWXxV5DVoT5la6BNgyvL9RUWEPyWGIptuRUHghJSyDPm67lxyiO5QFIJ7MZsI/3Kcb8DUNNYYmUlbZazxJSQLazNB7ark41Hm280NSUxqMrQVpPAmQFSkH5QiwPhNshCu0H+e5D4Qixa5GnACq0WEoiSEW47eYL3TFH7OVat07H81Hgm220qj+vLCEWYf31Vnb77LOHW3ftFZP2BNNJKhrn4X1sGsQEUUH7LcLtfLBEsahEoIRwwOYprVhEtYSFYHY7PAYoBjYdohiyAsXVQRYhBWQ7S+MBNJ7A96uKxsscMpYyOh0Iqg50fqfMyBU60BmnWVqavjR9HfPmzvJpIWYSFkK+c7TPxiArXSxi94NsEMxisTluh+02drvt+gdf8/ERGFRwzfUPug7tS9wuu+zidt+ljx9aJDz06Ctu+JVX+XSD8udr2LCBv0fjxhXjQ8Nnr+q7FAuZgzEz8reAGGGFRo2bVCK4PSbMC2Oda2OVgy0P0s2at/SyX7ZwgevYfhm31hqruOWXX9aP19RvnO06LPpWxZIvL/HA7NmMzE6X8RPxvvn2O/fu+x+7aTMaeBXNw4XEqwl4CRHCpi2Un3VsuN/uiyEkm4jWo9fqfq6hwLKFHdssyMVg4023c337rOa6d09/eA+mTZvmxo37OkfOU8641GvC5i3auLXX7O7Pn/jdZ/6ehcgXvgew6bqCFci6JKolTwwhgWJ5WXGMbDa2x1toqOMyv0x1rdu0rkQ8DZQOF0CyGrAQCmo8/QUoS+OhjhfMn5ek53rhBQ0aMFK7zMdLGxLQYqBntGZgSUkLt99+e7k9d93cdUkKWVC5WMTyhKeeetrdfucjbuzYr/y2SHL9tRe5zTff1KdfeOEFN2TYHUmlNTP58Aw7apArsxip7LvF3lN5sRjYdHVx96hLXadOnf178/5AaZXFvHn8g2CWe+X1z9ytt97j87JwxBEHug3XW8FXWlZwJ0+e7H78cbK7/taX3bfjPirPrYw7b7s49yx++97n3D33PODTIS4edIzbYIMNcs+6025H+/wYYQHEo/02f96cTI3HkLFWrVonz131sZrV6scLR4n7hy4nHQgFOoyBPb42EQpjFrg/2sY+U6tW7d0dtw5xRx22ZyXSgViB5ivknXfeyT04+mZ3/703uGOOPc5tsfnvXNOmzdzIm+9wEyZM8Mdsu+227pCD9/FpNKx9nth72DylLZFErFgcpgk6x8YgXxrtrfcmtmmhefNmvvz+uPfW7r67hrm27Tok5V25bUYe+zhmxRVXXEJbcP66667jbr72ZHfyyYfnzsuHPXfdxLXruFz5Vjb8c5cTDLIpFvkIkK6hi1txtdHGq1Y/Xtb0GgQHwkmAMKFisY4FbCtoOxaLqGFcDMJzuKbuDxB6wmGHbO9rXhUgmh7N9ZcLhrgTTz7HHTzgOHfNtdf7PExJ1fiKBbu9+uqruROO2dddd+0w99brj7kL/3KWe+Hl992oux5zL7/8mpv8w7jkPunEYpm3emfyrODHEO7XdhgDpUXW2LGELLKSDruWCqF9+/Zu0PkDyrdSQKKR157t9xWDnbbf1B1wwB/9eTYAK+w4u844cffyrSVhjxXhLGwe7bss54otA3UnUDahHORDwTae5uPF2njW1Jw3b0bycSo7JICcCIoFkVDmlYRNyCJtGNtjbTqMw/sDCTpAsE444Wi35mrd3E/Tytw/33jRPfv824nJNMMt331V17lTI/fdhJlu6pSJSRkl2nLRooRUq7gmTRmh3jA3dURz/8Dmm22S3HuRW2+9dZNjKtb0517k//jjD+7Bhx51jz3xemLSzE7KgUHQSbs5uUZoegKRgBgoHcurK2AR2LZssTj93CHug/fH+mc78IA93ICD9yjf47wFcPf9z7vnnn3J71973ZVcv923zZnkYNasWW6f/U4t30qBd7lbt+W9vArI7QlnjHTjv/zAb6t9eslFx+dMTfCHXY7ycRaaNmueMzVbNl/sNlx/taXbxoPRWjU6q42Hc2XmjCnlV0hhyWCRlQ9Csgh22xKIfGkx8sLzFYekE+EQ0vYdurpVVkpr3jff+rf/SOQzc/6Qg/Zwu++2s9daFh9++G83ceJEN358uqQhZSFQJhCR+OuvJ7gZMya7hg0auZJmLd2WfTZyv99iA9d3661824CypZ+UH3qOeeJpd+fdT/hrNE4a/vJ+At4jHyz5bJy1D9h0VXDfXZdXMsO32eGQ8lSKTp27un323tHttdsWyXNXCOIDf3vZ3XjjbT49bMjJbqONNvRp5G27HQ/1aYHngjBXX3FGpbLffqfDKz037c2wSQC+/vprd8wJF5dvpYB49p5/2OUIn85Cqzbt/feJOVdqo41XI42HV7NpSTM3d/bMRDNM88dXBzFtFIOIBOw5SodxCEu4FVde2x135C5u6637+HfG5X/x4Iv8/l49l3MXDTrHrbHG6sm10gL95pvxlRwAKidiIVbolOM777znl8v49tvvvXab/ON4t9OO27tDD97XrbTSirmyfu+9990FF12XXBOTvUHSwE+1pK1IagLehXcXwm2gPL13mL571LBKGi8knnDxoOMraax33nnXnXP+tT4d7vvss8/doCGj3JSf0tUKBPssek6bzqd9r7/pQffww2Nyz37hwKPdpptukvtGkDgfmrVo5eNYd4LVeOH/84pFtUauCMzHo1aoaKhWtFOsGVcIWaSDQBYiHbDnKG3j8Fz7PJtsvJa7+/bBnnRgypSf3IgR1/v0EYft4+67569ulVVW8dsChdrvjwPc6mtt7tt6J596rrv++pvcyJE3J4R5z4c33njL17YWnIeQ9d/vj+6cs093b7z6sHvisXv9gqmnnz3MHXP8ue6ll1/xx26wwfqu//77+feEfCpP+941gRVeoG0Q5hETJOhKx9p49hyhRYvm5akU8heA6bMrt4V69+7tv8dVl5/pVl4t1Uogdl2ls55FOHj/P+SeHUAOkU6VJfvCeygGmJq08bBeLJZaGy80NWNtvJkzfvLHYyIhLIpjsMcIdjvcV1PoOSjUtu26uKcevylXO+HgOPf8K3x6yEWYQBv5tIYCWTOC8x/+2yPuH6+/5z786Gs3+Ydv0/zFld/zl+RjNEzOX3/9DV2Xzu3c6r1XdGuuuUayvW5utIuA2XrLrfd4M/eP/bZ3a6+1ujvr3KHJx22afIe0zSfNB6hQaPdhYtv239JCqPG22vaA8lQqfOut39tt23cbt8M2G/ptCbs1NTFHIVqoISR7tPnefGdc7vgshBoPzWlN0yf//qa78sqRPh1qWZmtWWjZup2XgV8W/FDJ1GSZv27dunlTs87beKGpadt4v7jW3tQU8fIhHxljsMcrbeN8CO+jQsaBsvcefRPT5x036q6H3Pvvf5oQYg3vbcRmBxTg5Mk/+fcV5CCRIAkqL4AD4OOPP/VkZSm4Tz751P8Zd3xiYn7z7VQ34dvP3a677uy23/b3rm/frTwJVUuOHTvWXT/ydvcsDobkY0IqVmfDvKTNB8J3tqZ3LB2LRdiQuMUS+YF7r4q2q4DeBYTltHf/M93PUypMSb4DXQn5IDP9imsf8udKgym2z8K9zzzvEjds8NnJe6bvwfkHHTbQm7CF2pUhIB5jNRmVFTpXlkobr5iRK9J4KpTfEkQ4TLc0Ts2GhYntjlY5MjEt999/X/+OdJu8/sab7r7Rj7kvvhxfafwe77nTrrss4W2rCjBDcaI89MjLORLSzkMgVO7U2n+5cLj79NOx/hxpvpB8+chVlVgaNOsYYNNovNCTWAiY4H8amLbvLHbffUffZxpaASH4NsOvGuGe+vu75TkpYtr30sEn574PZUqFdsIpl3iNZ9t4WW1TyXCWxqutNt4SxBN4WTRebOSKNTWtxpOQC2ENFebVNXRP314qJ5zyevde2V10welJjdnZv99nn33hrrrmxiT+0u/vslyPpJDbeQ/lu+9+mJCyNGdCtm7d0a211ko5219eTMWr9+6RXL+XW2vNtXwnsCByAUhIV8Ktt4126663nvvzn07MHctxI667wd381weScmroyypGvhByKim2eUCEykoXE4fCXghUJMeemDqtsrTtYQP2c5ts2NutvPJKyT2WFF7Kg4W3Djp8YCWtGWpfiEdZPfrQdTky+7K8cbTbaL1elSpMayILVjYhHsC5kqXxrKkpeS62QqqRVxMhs208CXUI+0I6xqZBeIyNqwJ7TWk5oG4CCHfsUfu5zTbb3OdTsdx334PuupF3eA236557uBOP3t+PphBuu+12N2ToiPKt5B7lDeoYIKYIquMg1B/33cXttuuurmXLVj5PH4j2zHkDL0m0wj/d0Uce5B0wAs6bG266NymD1ORUHx+w5LPkslC+iCPYbZuOHa+04vvvubog8RhcQBfJI2P+4R5//Jmk7CsTLl/M9Krttl7P9erVcwlNGGrOUPuKTGjSM06p0GgMPxs3bnwl4qHxrKxYUMbW1LRezaXaxivGuTLt50nJuakbvDYhAuZD7BhrWopwJxx7sNtyy9/njmV90GGXX+eefua55KNs4s4755RKjXMcH38ZNMx9/MlnfrtFi7b+Olv32cCtttrKbtVVV11CCCHShAkTfTl9PvZL98TTb3qzUsC87Lf3rv45gIRm2GXDEw13t+9muOrKi/1H5Fvsd8Ax3uyU5sP8EflAobZubeORB2+opGX69N03Kc/KXuSs7TA/BkvEs88+ye3yh83K96Rle9CAc3IVQdjG67v9gT4Nbr/lYl95kg/QmAxlA+GxMbRp1ylnajJIorbbeHlLQbZrVYYJVQh8RRzmVQX5aiXF+UgHtvvDtu7eu67PCTvnvP76W27f/ie6V197xw2//EJ3x2035EiHecQQsT32OtC39SDDzSMvd//+14t+/OUJJxzjx1nGan7yaEvsttuuXnsxSfbF5x9zp516rOveYzX3xBNPuQGHH+/22ucg98wzz/gKDkE468zTvMZj/8033+bz+IgH7b9bkmZcafouvJt936o4q2oD4fBBSyoFuy1AJIBG0+RhwrnnVmh4IE3LOw8dOtxrT5FHkPblWbRPAq/zh199ky9b5duRQ5Yc3EcgbbfVVRDiVxurCdS+oVZAwC2pYkSzeTYor5jYgvGNgBe2x1WkU0238so93fCh5/tComCo+Wg/HX3sGa5xUqEwiBmSsA+TBMLttMu+3rt41hknJmR7xY+zhGgAQcDkYcymxm/u2/9oHxjTSf5bb/3Td7gjFISePXu5k0483r3ywgOehIcc3D9pN77jjj/xbN83CAF51pNOPM6T85oRt/ptsP7663kTGOAQQrB4R70/gHxhKJRv42KBwMcggkmbWcIpLUI8+ugYP3tB6LPZmq5dh3Qpf44VaQH5jOeUQKdWWMW4XhSC9qVlXUGUjz6Z4D2igGN0nKBr2OdT5QC0sgIz0Gm7W9RGP161NZ4extYKKQFTQhYLS5pCsQ2C3Z/G6TNIcDEL+WCMnIAUfbbe211/wx3eecLSDXTe8lEee2yM23rbvbzGwRx87ZUxXrNBWEwcTEE6zzfdfEd31bW3+d+TMTZzl536urPPONqddvLhbsdEs2604QbunXff897LQxPNRkf7mDFPJKb6bP9MaMRBF5yXXP8Z1yfRwJizIuDjY8a4fnttnRBsvhcaPiTH86y2NrbvqPcMIVKFpmiMfLG8WMxM+nywhMsCx3z7bdr/CWjH3XL9ee6Iww9y3bp28Ps7dl7eb5Nv8e4H6RA9wSoESyyRc+jw+3wXTwzSmiH0DjShQKwDPaaI+A4hufOhYBsvaz7ey6+ltQlezdkzpyVtvB+8MGhQajHQscQ1hb1nKIxdlu3ptuu7llut9yrurHMG+w5vTMe+fbfx++n/uf+eO9yGG27kh4rJu0jn+q2j7k3IMdYduP+ubpu+W+b6goqBakCId9uo0QmJlndHHXGgH4oGqCXRjsMuH+EJCFq0bJ+U+Wx3/rknuQEDBvhvgWZFA4PGTfCgVXg61aZmuy4hAofOlU23SAc7s18EVTqr/QnB7rjtmlybqxAoxxkzprtd96wY2AxxQg/r5lvuk5RDhcYERx91SKUB2QLHAh1vzyPduk1nPxzyV2vj4bUJGc7o+1DjqQYulnRAxxLHgvbFYhDLE+loE7Vp28Gdd+6x7rmnb/Ptre9/TBcaos2GV5Nj0Uh/e2C0J93tt45wa6+9tq9oMBsZQdJvr519247zGd1eCAiJAh+BsMceu7nHHrnHHdB/L3fFVSO9dnvuuee92bvRRhu4hx4Y5f7y57StM3fONO8N/fiLSeXl+R93zlknuvYd0nlmaD3eTWUtTc92xbtXjmsDEEnEshC57D6ldU4YJk762Q0dFm+/xTBx4vduwNEX+nOFmLYClnTg5lvu9BZLFnR8eB79tqB0YeWhb2CptfFipmaofkFt17ohsWwc5oEKgfsl0Sq93YvP3uvHSAJMjtGjH/BmHFoHDL74Mu/RbJJokZtvHO5YJwWTEGKAN1571Lf/BAqW9h1ufrXtfrfhDm6lVdfPtfMwL0eNGpVr4wHFuLPvGjXSa1UGQx96+Cnes0o5H3zwQe6G6y5LatpO/tjn//6C38c78Xuo2/86zM9woL2XRT5QUQYVXTI2aJ9Nx+IYQg3Ge1kyFAvOYcrVzrsd5gen06cZmoS0t3FyMW9xvwNPdT/98E0lrVoV4LmuCiAhbTyUSkmTeXXSxqvRyJWp0yj4X3xXwpSfKtvfCDO1BoJCbN3EAiZTGlefsAiKBCzd/sV17NStkhnCRz340ON8t8CB++/jTj3lON/PtOPO/T0RcXbQ7mKUw7nnDXaHD+ifIxxlgQDcN/ph9+jjL7hZM6f4PjrGYdJR3qFDusQ34O+hY558xU2f9oOvkbt2W8X123tbd8D++y4x2oNnOu/PQ7wJecFfTnV77bmXz6f9c/TxA30XxEYbb+ZuumFoYs608vsg4t77HuuYgoXJCTSyRahud47K0JZlDOG30jnVRU3Ot9o2JKW2l6gsInkW2k87EzAtKDQ162Q+npCvjSfizZo5y035udR9O/6jRNgml59ZGM1btHLz5s72sUXTpqlax35HuJnHJtKqXRODFRSId8apA9zhhx/mvWePPPqIu/rae5Ln/8GbmJht1FiDhwz3jhSAkwMNTs12xbBBub4hkeORRx7x29tsu603PbfffrtKfUKWULQLDzz4CP8O1hzaa6+9vKbFlOV4nTf6/gfcuX8a7B06aEJIRmV3yunnu9de/Yd/tuuvHea9x5j+OF0GHH6yv6bae4CyEQEhH1rQxr8F8IyW3LE4RFZ+bcMSV8Qr1I9nh4zpGa0s5EONRq78NGWRH7Ey4bvPqkS8msCSNSSqgOPk47E/ufvuGZ087wTXvv1y7s9/OtZtuunG3j5//PGn3CVDr8yRg/adtJwKDvNnvwNO8pp82eVWdEOHnJmbRpQFiHrFlSPcnXeNdu2Se9KVAd55+80cCY84/FCvcbX8H/dDo+6x1yGOGe3XXTvUtWnTxu9DS+N0gZSXXHx+jnw3jLzZe2ZjlVLMUSUCCjFi1oSoIk5Wuir7BbsPxNJhXJvo0Gn53FzT1q2WyRHPjlyxzhVQI41niYfGw4bNGrmCxpv80xz31ZfveQ32W4HVqP37H+hOP/UYX0j81faCiy53L77wguvcpafbbZet3P7993E9evTwhaeP99JLL7oTTxmYvN9Ur+Vuu+XaSoVK++P55BpTp0732y++9IaP5ZkE9959S26IEpoXZ8rFl97oJk380o+AuXzYQLfzzjvmBOerr8Z58tF1cO+dwxNTpmOi+Wa5Xfc43JMfc/jMM07y5OOb9N1uPzd71s+VyAf0DrXhKRZExGLImpUuBiqLQtBxYWz32bSNi4WIV0jj/SpjNX+cvCAR5plVNjXrCiIcaNe+i7vlpmvc73+/RSKoi/wal4ccdrJf2wQP4i677OzJZG10TDyGiGFaLlgwz5OWznNAedx1193usTHPe4JZMzI0K9nGRAwJC+6591534UVXJ+U2w2u/c885PTkmJf1HH33k+h94rFt1lV45zTd16lS3zx+P9e3GoZcmZN1pR0++0aNHu6GXpXPNssxxyIfzpTZJaCHS2XRVYiHcrg5ELqHQdgi7n3Q+4tXJ7ISqaDxMTZZ8+OC958vPXrqwms1q3M5dVnAP3n+7W3PNNf3zj3niCXfKqWdX0n4AwiHEL7/8snvrn++7W2+7I1eBbL/Drt7NT2Gi4ehcR/N07baqXzuF8ZZNmlQU9Pz5c927732YlMvn7o3XX/Z5mLCnnXLsEiYq1zv62NP96BU06jXDhyQ1aGpC04bbfc9+bqedd/P5VAzjx3/jCdmmTSf32N9u9s8NIbfZbo+cE8tqPYDwVBUhUeuStCFESJuOxSCWVx1kkZO483JpMyHmXPmf1Xgh0YDy0HRPPfFQrpP6tDP+nGiHe9xlQwd7LQcg06OPPua11+uvv7LEtXr0WtO9/uoTueXnWHj288+/cjvttH2lWQtZoAzpGL939CNee+LdHHDw7u7gg/evNOKebokLLhzs+m6zs/deqvZk7tm1I250J590rDvqyAH+41J5nH3OIHf2Wae4/vv18x97h50O9m1YnFDAOluAhEHCVFewhA1jYWmQOEbUfCTNl9d52Z5RjVdbbby81UWq8eLqGS9g85IF3hOEWbY0ALmAtBwI8yAdnkMKQaR7+slHXb9++3hhpQI57IiT3Iknneqee/YJrwUfenC0vwZAWz779P05DQSJGKfJ8LFiSAeouBgozSyDt954wa/xgjNnq236eUeKwDUfeuA+73zhmdDOlPnpp53ktSXke+211/03YEoR2hGnCissk9e9e5fc1CO0nvr3BAhnSafaPYxrCkiVFSuIjGHQcTauLiBNViyCkVa+EDsuC02bVvThIWN8M0AZIyvFIu9dYDK1bWxsGq73eaVNvetV3sW6gCWYJVwI8o8/7ricu56xl7fdeqO79ZaR3uTEpHzooYfddjvs7gnXe/VN3Csvv+DbcLOStp2uwQgTOqzzAQ3I2E0CnebMYqBDnW3acJiSEmquhUfy+Wcfdyt07+T6bLWdn98nYIbeesvV3uzEIyry0cbr0HF5N3DQVb7PEaIxbYnhbox+wVG0cEE6dpI8O1veAoHgWSzZlGf3xYKOt3F1kUWqGPliQftsXBWEhLNkC2N7XL6RKwC5ApRPsWYmaDgoQXnaA8NzmWXoZ2IEPCMjFid5/0nMzVI/xGnevHluRtLmm/TDT27O3F/8wFnaPna0fG2C64p0gDXtyYvFo26/yZsAaJU9997PXTLk4kSj7ZsIWAP38N8edscdd5IrTdpiZ555trv7zhtyHeznD7zEfT3uC3fnHbf5xY44HqTvvjgpjwbu6aefcecNvNwdf/xx7s4773KvvPKKD19+8Yk/97NPP/LbY8Y86a65ZoR77/1PkyuUuVVX7e2vQ7/f9tttlVy7SaL9LvPl/Pst0rlmaNKSpCa98MJBflhat27LJcc3dxtvtI674847kvKemxy7iTdTO3dskxD3zuT8Zdy/PvgyKZeZXps0SJ6R2prnTb6g/2YV2ykgGtvKi+2zscim6xCTRzor6BhiYNM1gVpENi4m8O0gqo0Lgedt0ZL2W9JudtOTdyhLZKVrUv4tXcuWLb15iebTVCM0X1puKXeKQUGNl2VqAkzNutB40mqhdottSwt26ryC7/hmXN7e+x7uTUjNLnjqqWfcUUcd55bv3ttruYsuTKcJAcZkogEvuOACvwARGoc2LZUOeODBB916G2zr+u3b3z055n6fB+wzxgLX5J7bbN/fsbASoOP+qCMP8VqYSa9oSIFnxaFz/IlnJO/wvS/3tdZaw3s+MZc//vjj5JnKvMmMGXrDyJFu/NcfJnkLvLnJCBy0XpbmA0wryoJIFsYgzEPIsmJ7LEF5Cnaf0jaubcS0ZeGQVkgyI2njCQsWVCgYvkd1Nd4SzhVBXs2skSv/eOPDpCZe5J0rX3z+z5xGqikQWpEpNC3tdrgP4l13zWB3xFGn+tkF8khiFu63/6Fu9TU389OArHODUf+Yo2jAE44/0ueJkAj/MccPzPVR2udZeZUN3IYbrObXxgzxxpvveYeNBedBbBwlADORWeoHDzjez0JglA3ARF1/wz6u+wqre+8lz4KZifeSeXr070FeljHA82lhKz8NKLAjfwScL7QDbQzy5YXIyl8asORW2sZZKLQ/RNflV/nt9uOpA/3HH752P02uPFazqrCCbUll01kIj/nko/e89kOQN9lsOz/y47Khg3LDvDR2E60E6dBCAoI96o573OVXpNpI16Yb4dSTDvYaJ1wLxDaq+cCpln3a3XTL3f4eerYtttjKD8ZmP+WLFqOioOtD040475ABR3kvLEPT6Mu7fdRd7k9/Os9deuklbu+9dvfetD/sfLDXeBYxy0N9jCIjECGBSGlJVygGsby6gEhlYfOUjh0Hwv2x2EJ5Il6hfyfU2UrSIOZcwasp54rtPK4qYqQiD4FXGmg7BnuNgX/+U26s5ZnnDPLaDweKSEf773cbbl2JdKl2TwNjOC+88EJ/LPfE/MMrytQgNFNIOkBFpaDC5zddOGrGPP43ryEBmpD+O1Vqa621lnes0LFPJQE4jz68iy4e7vtOqfQOPmh/38Vx1dU3eo8m559xWsW6kBAuJB1Es6QDpfPneLOUznsGEhCYhkRgX1lirpaV6R/tqWkWi0U25QHlK9g8pasDiBDC5imtWERSHJ5vjxf5bFAeq6QDJsLKiSXUxuyEgm08YG8k4NXkAYE+bFVQLOGE2PEWnNd9hTXc8celPxzExGQCKyanAOnwav4wcZy7/LLL3IBD9/fCjd3+88/T3GlnDPSmp+6FhuF8O/kVguC5xIu5zu+28YNpFZgUiocTj6pAV8RrLz/ktR0Q+SAoAfINOKSfzxMuGXxe8lzT/YwIKj2INnTIn3zemCf+7k3VHRJtKEKH3TkinNLAEtDuFyAj7cRKZCyd7clINwXBQkSyBLSaL9yvWAFkxcCmqwLJpGLBboek1LZIR8zqYpCKpR/qoo1XI43XqkXVC6eqhCsWnDfkotO8MFMgmHBDh5zltwHm5X4HHO87+iEdneEqxEmTJnqto7ZZrxXXdW+/9ao75eQTcuczTAyyrbn2Bn4UDMvxMYLlrDNPzwX+jc66nEccdZxfJkIE5BoQ2JLv6mtG+vYB+wYceqA32SE0wNtK1wgjadBwlH+fPlv452IA9uzZiXZK3vHUk9N5hVkmpkXWdkhQoDy0oMgoQoqMIqQ0JIiRJUYqEObbOEzHtsP8fHGI0MkkAoYxpAo13lLrx8O7FtN4YPbcqtn2IpiNheoSTsA8w0wDrNLFjAJtgxNOPsd99cV7lUiHQH/xxZdJm+o43yXCM+2z7wF+Aqw6y9FwEG7b7Xd2Tz81xpPnheeecuO+eN+bsMxMVxj457PdF5+/7e4cdYtr2bKdJyBeUxCSD1LJ28m+EVcPdH8ZdEXO5MTZgya7464HPclENLQeP0hB6/G7L5xKFiHBBDt7wyJ2vPJi+0TGkJCWjNKOYVwTZJGoEOmIFbRttbRiQdt00cQ0HrCKqM40HrVyFqTxsj4qEKFCYtltabtCUM0exuDM047zMZpt+DU3ub+cf6zfBrjtH37wXt+m22abrXKk++zzz737XsPdrhtxtZ8hDhEAs80377OTJxxm7P333eHbbVqTJYTOg/CvvPiQrwxw+6vbgP1XXTnYPzekOvf8iu4EftfF2p7X3/BXv007FS1KVwJmMETbLjFbOXfEDffltPW22/Tx14rBezbLA207pe0+pYsFZJRGtOaqTFVmdEBGNCOrb0NGYEmYRcwwrgms2at0SDYbKwh0K8Q0HuW+VNp4+frxYhovi2iC8i3Zso4FlmQIWCxGi4gMjP7o1Kl7TtuhQfBQ4iRhChCAdN98860748w/+2swTOzxRx/KufUB3kVc9sw3pE/w7Tef9O01rsfIE9pyBNp23bqv6rUi+awjAnDm3HTDcP9sI2+8PdFu6br/aFLGYAK8ks8+VzHAfP8/7u41oa7B0DHe78WXXvXbgGFjE7771I0fP96TkR+gcEyIkEx2O5YmViiEmEYUIZWX5chRX6MlGZ7VWBwLQlZaKGQCVwVW41lTs1bbePZkaTyrWoVwHQpLKNJhrH1CPrKBmDDFAHGYxAooCNpARx+xp98GeDa57zFHHeS3RTo0HediEqLF7PLeOGGOOuYUv4/Obk0Not+PNt7Z5w707TS1CbkOWpH8tdfd1GtKngXy0X2AQPIvPAFC0V4D/CCFYwHjO1u36eiefuYZv42GZOY6q1FLSzMDnrKhq4K8tdde06/FUpuwJCyWjMASURAhATFa0ZJRWjEkI1BXh43Zl0U6e76O1XYsjkH70HQyNUONJ/B9ak3j2ZPzeTW12BGDpOkXEsFCslmCFUs2YmkzbYex9tPGYUIp4N91fFwWDgI4RCAE2m611Xr7PIT33PMvzZ3/9JMPVjIdmXnOyBdPgGQfK4RBjD5b9/MzDeiu+PqrT73zBW1Ge+6HieN9QGsyqgRNyYgXzsNkhDyfffKm97QCPthBB6QzJSCvugio5PbdZxf3zLOv+X2Alck4FwcQx7DALRNpGdtJvyrXYkmLLPg+uzyhWFSViFna0MYENKP1qBKkFWNmqoXdzjpGIF9ktATW8YoBGhLCydQMNZ5VRHXWxstnagJWY2aQrkhlSQesloshRiYbW9htnYegInwIJdoDIdc2k1rByScenpybFhbOChwp4MorLq70rwS8in222tFPRP3nG8/k9h1+1Ml+eYs7k/Yfnk768jAZWSNFSzgALdXHKBmm8KQriJX5X3EB/scn7LB9ujI17/HM31Nzkz67DdZfx3tMOQ+giWlfPvLYs7l32GGHvj5+7R9v+OP4rzqQsIsYxRArJGIYshASUSELejYb2yAiEiCiJaOISCgWMULF8kCYb/czSPpX6cfLMjUBzpWyZJ8+kCWdCJdPy8XIpnwbC+E259AXB1g6Ae2BhgCM2aSTHKHt1auXz0ND4KwAOD609B+gjUY3AW0oyKOOclafRmtCUi3jrr68ffc70mu3niuu6ZcEZB7dp59+5vpuuZ5/tnvve9CTiZ9aYrayeJHab5C6TdvOPv3xp18mgpZ+3E6dOvl2Je8jDDhkD/fCi6/57wDR9tpjB399Jt1CxnXXSTU2QhsDo1Q0UkVxsbAEzEfEiulJ+Qko6FntM1tSgpCIBJmnMTJWhZjFoKGLr0Id40Ott/FAVnfCjFn/8RoPhJouH+GAJZuNqwLOkdufZfnoUFZbjX/P8Qxnnp6OjwRMTBVoKwkiF2ak9WpiGg6++FLfp2bX52Q2OiuXHXF4f+95RMsC5s/R7YCDhGdj3CYWA+TDnEWImCArdO22kn9nht4Jyy6bkvHNN1kgKRXm3XbdyWvp6dNneqJRkXB95vEhBJg/jO+UwIaQQFryZYUsWPKFwecHZBMBs4gYkiz27LE8ytCap2lIiQhExjBon2DTFpWOca39upohxAe+j0zNWm/j5TM127Zexms8UIhoAGEhhFBebJ+Q9YFwZNBXhrazTpXRDzzjx1dutummXlittgNqFwLWw2RYGGakgBeSTng8msxmEFjuj8HY77z1ZK7/DucLWhJTlHsK/GlI5Fl3nTU8yVhiIpe3dlppcBzPCIkYh0k5vPTq234foHJBO06cNMEfA1isCSHEUQRWWSX98QfwXQc5QuQnlAVCZ48vdJ7+/a575UMWAUPwfXkvGys/BPtDIuqZgH0PvRtxmAaKQ2BqZvXjqYIGtdrGKwS6ExirWQwQplCj5SOaQIHHPoY+xL77HZLTMNapgsud/x0Iz/w9dWzonrbQIJYdFka3wJ57H+AHV8ujCfBqYsrK5IScEB8vKNcj/x+vPOpJAUpKWvqPhMbjD7Hc+8N/84/09N789IQ8FuAFEJLB6IB2nn3GtdZc3X3//Y8+DUn5Iy3gPxZ+e41V/DbIEnCcCjaEsESzQmuDhSWctF8YQoiA+Yiob2tjvrvSWbAklFlqJwlbcpHW+2SRj/YbGm+pt/EKdaDDciaNhh9EQKgk6IC0zEohZl6GBS+ygVgeYN6aBPXhv43x99h9twpzcvT9j5Wn8gNy0S1AW48ZDcDPZkjagBBFpixaFnJCfGaVY64C2oaDBp7k0z9N/sbHFgwNk8YDvH/7thUfEu8leQgQfYkCGnPC9+nwMdCrx/L+uMk/TfV5/JAlhL5LFtEsCW3IBxHQhnzIIqCQj4AWfGtC+N1jkExxLO1la5ZahEQTyGeF9Bio5GKoE42njx0Cloc/exBEMoLSyrew21kFGstXnuJ99t7Nxwg1JKPdRduHgqK9NG3apEr3otsgBKTDHKWtyOrN9MPhpNl2h/19O+yoIw/3x0EItCxdDvfcdatvA9548z05QuHyB/SvkUf5MZ2EZ2UKlSoIfvXFM/EXIZUxiyqpvOir0zXxdjJHEOhYjhv/bZrXs2cPH2cJsUZvhHEMVSEiKIaI+bQgEAGznh8SASsLMbkAKj+lAUPtuIa0YWiWCspT245uBYusDvRa92qCLOcKXk0tey3oRQFpbdt8i5BAYVwMWMVLfXGM04RkeP4EVhMTVBF8/vnY8pwUEAzS0ZZ6cHT683rydtn9UNd1ubZ+qJemFqWd1/N8W481U/gvHkOlIBQfgxkPPD8jaFRDEkt4NB4TInGcnVCLBrts2CDfR0hfHc8A8HaO/+YHnwZdOncsT6VgYiaQd9ECktE3FSOfgrZjCIlYiIx1QcJQHux2TFasvOmbi4zEfIuwbWiJKMLRjxdCFZ9tCtS6VzOfcwWvptp4MWLZF80CBUDBSSgVW+gD2I9hY1bxAn542JXX+a4C/k+OsDO0CscL3Qo3XHdl7jnHj/+uUg3Fsu6AGeFai4VfNa+7bm//+y55TyEChICgW265pc9buDAVdlaMpsxw5PAeXTqnZJDWkoDQYc6z8hMVjuvUMe0L5HlpCx54wAG+7xH8+ONP/vwWLZonccUwKH6VJiAIIrgvI4Q6EPosUgmWfDYoL0RVSRhCQp5FQNs9EYPkpBABgb65jZFJySXaEBJyTx+SZ5OpGVvsqE7aePbkfP14NDi5mRYG4iX0QrEXDUEhKWjbxkJINBB+DNpetMM0p+24ow/1wopZgHbi/kceto8fhcKoD4BmoZbiuMXJO8+ZO9e1b98156BhSs/+++3guxe0vib3OOCQ9B6MFlGNx88r0bp8BMK//pXODLcmpMXHn3zsl4jnI/O+PXqs4D8mz7vqKqlXlIoDiNRotMaNK/7jHYPKxdbc9pz0e1UE5eWDJV+MgMCSMIuIIqBI2KRJ5XcRAUXC8HsrCKGcWGTtCxWAlVdiCEjgu4jYDJYOEfumtdrGy9ePJxcrbTwK275EFiy5YpoNqHDDggZhzaj9dAewlAOaiH8MrLRS2mHOqH79z4BZCYAfg4Bp0yt3juK4YJ/I9PPPUyt1L9DxzT2+/upDPyyMJfsAZKRjHHNUfXafjU3bj+3bpZ3waCNGsQhM/6EPDvAOrOEBUo1X0R1BOf3yS+oVzUKbyIz4mAaJEcySLwzKDyECWiKGhCyGhDYOEZLQIiYXwMpWLAZWNpWO5UE+/ksxZ9Z0v6BXCPGBSrvO2nhZpiYaL2zjFSIdZIsVSIhYwVrogyi+576HPcFYh5KRLNRIECidy5b+DWjllVP3uwUCTeVCbQVat2ntC5PuAdZWsWDBWYgdjmwhZrzotBkLk/bCXH9vtd169ugarR2HDD7XVxCAPxlJ2+HR1HWFZs1a+G+AycwfboGuyT1EbkBNbYVV2k4E8ssAmqC8GCz5YgQULOlCAgJLwBgRrRaMIUY+kEVAkFWph5AGtFpPMsxKY8gF3zVERflX3L/W23hZQOPZNh7Qi1hYghUiW6wgKXgFbdvYgsWIWICGTmj6w/T/O2YmqJDCgsQ01HvSd/bBBx8m7a8plQhAv55IZ0e2CLQxp05JBzETAB+fP/4IU8r/LMTPTFbovoL3wvL3VzQlpOOaeDSFL774wsft2rX115wy9edct4O1QFq0SB0+c+bMyZWfBNlOh6kgWrr+JlBtHZIxBhHQBgur/WxasOTLR8AYCUMZsIjJjeTMxjHZE8lsHFptsWe15V+nbbwY1MazsA8MeFmr5WLIIhyIFXQIHYO223PPPXLPy8BjaTvNzUOAJ/9QPtIjaRei8dAmFN7MxGSkgY2WtD8ZoZN8yNAR/vr8RATw80nbx8a1GLaEqSgnB+/ctWv633KAKcvz0P9GuVJr9uq5nG8HQjo+Ju1OgUHRoGXL9Pdin376pd+mkuBczGsgxwx/GrLlhcCkJEjzLOGA0jZOQ9W0YigDQox8FlkEBNXRgCAmR9J+heQwVBqxtp0Qs2LqpI0XuxEaTyaaLVy9XL6XBFmEo2AVLGyNaIPflxz7x37bO/3vANxz3xOeLHgkhddff8u7j3m2nj0gSzroGPJ9/PE4nz/w/NMrVT4XX3KVJ+S1V12Yc7Jcdc2N7suvKvoBIQFdB2gdlRVLTwDVjjI/paGUj6lImrUZ6ZOjzUh7kl80Y8JKgzLiRdqa4/mHOJBW/fiLST5WmVhIswFLFEtKoYKAadC5xCEhBRFQQXlCWgFUbhcKImBIwvAbW8RkRLIUylUoj2EshNovq7IB+nagztp4wN5IQOMxVjPsxwtrlvAFCxEuRFbhAzvsR6NUEGCmA/Gv8quuOD9HFvDQ357wz8P96XBGqCEK/87j/3MMEeN41VwyMemMlxZE05HXpUvqEAEQhgVugYjH2ElVXJiS6oNrmZjBAmM06Y+T6UonPb/koj1J39KCBYSF7rvvJvpjMWcBXlH+EsQvuujf4/uMG8uS8Slo26VCbgQzIEVWOgYISJuHWEAwRcYQsWtbWAIqZipOlhaUDMTkICY3vq2bIWcgi3xgSc2XVnyCLBqgShEsVY1HDaw2Hi+hkIWsgggLTgUcK2gLu793797+IzMZlrYdzguNqQQ4TJ5+5jmfZtyjrUxYWoEKg3+UC75PcPgtfvQJ8+4Euid4x5XK+/Uo/H++9Z7vBFd5MSxMJiVgVTAqAt6/Q7lpOHHixKRcS/025jFaFwfR3vsO8P17HIt2fvHFV9y551/hKxmOf+fd99ywy/+aPH+Ja9O2k78HsxYgdqy8rLYDWWNrQ7LYbSDSSRNaEubThiC8pmC1n+32iJFPKCQTwMpZTObymZ8VGi9ODSpRgQqz1tp4FoU0XuPGLF1dcQm9UAyxAojVVhSs1WQWqhFtABw7Z85sN+K6G9z5A4d6M48VvywuGXaNrwl5xh2229JXJtReEAezFMeJ/qkHWNiWQbZHH3lQTmsyTQhthwmoQdU4YyAIYyX5OSXkY9IsHk0REQ0FIMuyXdJ2H7MUQKeOHbzgYoqqjFQuhOtG3uFmetI28uenQ9PSjvSSZs39t/nn2+/4PITXejKtGQREOmKbzoLOC2MLBFT/GhBi5LMIr2MJqHT4jS0kG1ZGbJmFCGVPZLOkCwmod4rd3yoilXGtezWzuhPQeGVl85MbVhR6+PC8sEKIeAEtWaD5PgBQPj9p5N9xYMhFJyfPUnE8JiP/PQe0+zbeOJ2xDcY88bTXRiefcITf5jy/ZESiHXlu1rwE1GbXXnebf0ct2wBYYBYHTsuWzb3rn85zjuH3XKq43nwr7VBnZrvaeLTZgDrKmd5DmTzx2L1u3fXSsZ62HIBIZbUDS/0xBcoSjiDh9+kkaN6kRUhEux1CZNH1lQZWC0pTcH9pQgudA2wahOanEPv+MVkRssgXk0MgubXyq/cITU1gFVGdejVjpiYaD1iNZ8FLomEsVCOFBUPhxQpwicJOPoj9OEpznLQCZqQ1MSER/wpXoWqqkArv1tsf9i5+ZokDNCBtRBwqaDstB//SSy/6a6HtDhtwsM9LteXD7o/77uJJB+g8Z9xo8+bpcDHu8+FHX/vyYIYBldmsWTO9Ocmz6rfQn4/90hOOmeksJMW7MF2I5ft4P4jVtGkzPz6U/jy258ye6a4ecZc/nw9PqBD4Bul2uXBTQfqZJJEAFFvyKWjbQqTRfZUGlQlIurIZShw738J+XyFGQJBFviwCxmCtNUvAEGEbr9Y0noVMpZipqZErwBacrVnsS8YLIZtwKmBLNCFME3T85ptVaDM8hPzxR9NBNtp4M7dN3y39+1CZsES61XaAQdYQjKFlobbDmXH/vSNyfXw3jLzZk6dXz7S9B1iigWfQ/9FZMHfSxHQZhzXWYGRMI/fKq2/5bYhIxUYe3Q377LWdz2c0CsR6aPR1/q+yel80LZUK/XmUOR8dISFWkMCzX2SxBIvBks+mBUs+hRDcD+GLkUhEFAnTvIpvCDhPwULvbr95jIBZshSv6JfUfvnIZrHU2nhZpqY0XgyhpouhEOEAhW1H1YcIPxLnbrLxRj5NbcTq0f4f4Ukh85urE45NNRXAucH0IbQdf4wFDOuiTQV22KFvJW2HI+nB+/+aGyyNy5/21v799/DbgMm2tE833GBd394D773/b18eEJSOc/DSqx94YWCqj/DPtz92++ydLiEBWB6e+/Nx0XD0+UnTMsKmQoAhS4XQEhonbUFMS0skla0tY8UhLPksAS1iBNT3sM8SQgRM0/HvGiJGviwvaEyushCSDxRDwKXSxsuC1XjA1iK5uLy2UY2jQskinWALuHK64mMuGaeajzYUswT4/zneRsDaJsOGnOHatWuT0954JxlMjLZTW+z0swYnhZo6Lk44rmJx280229y99lLFMoCQGpc/K5zJWQLGPPmK22TTVONielJ+5FEe2/TdPLl2mZs06YdcJz7z9vhwLGy00x829yQDr7/xL7f+emn3BFp75oyfvRa1o2ks4fx2EitYssSEEyhP+7OOAyJgjISWgIot7DNaiICplq5MQJ0TO0/f2T5r+NwxOQtlUYiRLx8wNa0FWKdtvBhiGs9quvAFhZB04QenUEMtF36A2LbyGMFxzPGne5MPMBZy+GXnJIRM3cQU2i233uO9k7ThpO1YB/P999/170B/Hm0tQfPwAN0MLPeH1mEenkxKFlKaNWuq23GHPrn2HsvvkQfxWQmMY70GTAjPgGy17+gy0CrXTNAtLZ2TaNaV/fb773/oy0P9lJB+3Nc/+bRgtZvIoXJVudgyygf7Pex3Eex9dC9gyVcVAsp7KALGSJgFKyPhs+ar5ENUhXzW1KzzNl7MuRJqPMALxGoVUAzhVJAx0tkPoI9ErBdnm2NG3HBf0kYb66/NPS/8y4mO/1ZDOALtOvr56BQ/7tgjfeWC2XjxJdf56zB+8pyzTvRpCwjH8g7b77i/++bbqW7Awf28OYkW+/zzz7wXlKlCzDQnj32j7kzX0ezfbztPOu7FiBO6BejSUPtu3ISpOaK/+dZbCdHbuC22SJeYoI9xjTV65/azfCDdHAJCLs8y70wXT9rNUyHotuyUHwbtE/Rt9J0UQuQjYoyE4X0rm56KKxPQHi/EZCXzGQPZy9J8ImA+IlrnSp228YBVrUK+Np7ACysI8Y9XUXggVtD6GAQ7ioJ0SsTKr8I18QiuvfZavpYiPD7mKe+FxGSkU1ykZZl32ma+n+z6S3ITYQETX1lfhZ+XXHvdrX5i7KA/p/8+aNiwiZs5c4b3LKJZmfVOHiRjrCXX5Eckq62Waq8vvvzCe19xnOy++87+/vQDbvy7ivVSHnjwSbfVNr/3H5UKAVP1oP3TZS0A3QcCtSywAi+o7Gw52vIMER6TdWzs+wnynMYQ04KCvZf9jiEBQey5QvkphnwgS0mArPdHjmqjjZf3V8xoPBg9c+ZMx3IG9lfML770Rm7s4Ly5c/z8JYGXjHWCF0u60DtmCz8kWAiZLriHBw86zW266cbuu+8muMuuvNnPgYN0LOOw7LLL+YoFL+Y1I2715t+Iq4fkBlTTthp541/dnXc/5v98wwc64fhD3VprVpigc+bMcxdfemPSBpvizj37OD+hFeKxDJ806JWXDfSrTXOva6+/1bc7WY8TbctHGzpsuDvzjJN8+40B2f0PPNrdNeoGv6gSfxl65LFX/I8tISLfZLsdD3UsM8G5lBECjbBTtiqzLKGJQWUtEsdQzDGx/i7B9vUK3bp28M6ujTfeMClfpmelw/dUyRdKE3MOQAtBCP2TfMwTT/jRPZqdEXs25JNvLuLZycOAsbdNS2inL3CdOpT4NnZt/gM9rxQjLHg1YxovH4ohHYSLkc7GYY23pFar0Iw6p3Hj9FnZfuiRp1y//if6n06OHftVIuyH+Z+IiHQML+OXXmD45RfmSMfsAzrkb71ttDfzTj/lmOS8K91GG26QXJcBzS3cj4npOWjwCE+6/vvt4UlH/rx5c9wVw0clglHqjj36wFybgLYnpKNtd8D+6ZLu3377rZuzIJ3TB5gZwQdnKXgcRA/97QX/Tzw5XWiHTp+WTqhVBaOxsnp/xSCmMULY8+y5FuG1s47Lpw1DTUhf5dwF6XXkR7ByVkyaciGojCEiM07aJRUdlkmrVm3zVghW22VpvhDW1LSgUqrVNl6WcyXWxgMQLka6fAUAsj9m2gaIkS6E8jgWjcCMAzyCG264rrv/3hvcSScel3wM+sgauaeeeiYxIa/wx18+bKBfFgKw5MNxJ57j/+56z103uIsuON39/vebeW8pgFh0G1Cj4jiBdFttuaknHe06vKVz58zw7T2IKkcLCy4x7pO1VHCq8HwMYzvx6HQJesaS4hA6+ICdvTB98skn/j/nWsHad1/ckq6EnRIqLQ8cKxJ43l9ka1ReAQFta59CDFzDhhDKC2M9QxgDSzql+elNi6ZppUFZ8M5oDpEplrZ5lCEBIrINmINJ6Natm/dW77XHVsm+kkrPIoRyarWfEJNZkRxAdJ4dUA612sYrph8PIcginP0Q0nLSdDysggUvQ4iRzR6vdkMY6xiEi/4wlurr0aOHfx8w+OLL3FnnDPZpNN1uu6WjWa6//iavxfjfOH9k7dChYmYDo00g3LnnX+77/zSyRaQDtOsYkeK1Wvk/HLgnHs9JP8zwU4t+97vfJe/WKGlvjvGL0Kpf8PqRt/sy2r9cGzIWVKTjA59y+vm+EtG7A9tu0vs2SMqWAJQOt3NpQ0KFECpLe19BeeEx9psrDUQ6Ymk8fRNV8MQlJWklR9rmK1bgOMgoLYj5ydSs9u3b+fJjsMTqa27sRxHpWezzAMmsSEesdHgsCJ0rQo01nj05Xz9eISzxguUfHMQ+YjEfX7ACl0U+gNm5845bl9eUjbwj49DDT3EPPvyka9W6g9doaDreGdL99faH3c0jL/HtQv1EhJEnV1w10i9OxHkMRm7Rsq1v7/X5/eY50kEu5tDhTDntlNT5wj3ffjt1hvz1pksTQq7qBYYugiuvusMddWT6Xwe0LNrukIP2yA3Itjhn4GWu75Ybe+IKaZlUbtuJVIWQRUT/F9QMzUis72BDiFi+BF4BLFzUxms8K2OqcAHfzG7HII+iNKAISEWF9qGr6LyzDvAjfpo0seMwA9ksJ5+F5GjJ5SsrNB6o0348apIshA1nW7jAajjAA6qxLlR83MomZfQj8oLULn5fRQ2qANingvvsyynurrvu9h3qA444w3366Vhvej768M25GQYI/k1/vT/RjBe5FVbonntffnxy3sArEqJUzHXDU3rFsHO8GUn5EEQ6Rruwwpm6DgAezdNPPcbXwgjI2LFfuJNPu8CbkZAME/LSy/6a1N4tc0QUMD/xqJ52wiH+b7XvfTjel1WsjELTktA4ETal80Hkiy3sAwqdH0Ps2wHMN+SjSaOZ5TkVwMkye/YsHxhFRExeltUlIKPSPhCZaVgzZkxPyrTErb322v5bseQ95EMW9QwWMfIByZFgNZ41Nauq8YryatJgxXbO8mqWzk+XRgMh6WxneOxD6KPGzMolCBqcL6JlQT9UKStbmLzXL27llXt617zac4CZC3QHDB1ylttgg/W9pqNwMf1eevkt/5EAhOO3x0w8BRBr7tz5fjY6k1RxpIiMQLVvuixfWiPz22U0Xb+9t/U/O6GsTz71XH+f8849xq+nSV5paakbcd1I9/fnP3APjb7aExQvK6ucfT9xWnK9pF1T3rajfDTMqXWrZdy80iSvXIhwcgG25fBSnkW+ZQ4E1pn0WrHcUwiyzuO7hQjzll1uBXfIwXu4vn3W82WGjE2cOMk1aP+jG/fefPd942fdSg129X9GkvcwHyDn5Mk/+fVyAKOUVPZ45Mn/8N//dg898rKb9nPFAISwHadyatOmk/dqLiid69dH/VW8moVQcdPKpKsclwtD+QfIqok5jmBJFxIOZJHOPoM0X/MWLd0pp5zg7r/3pkqkQ5uMvPkhP1Od/j40HbUlv/zC9OOjMJXngoGnJmTZ1ZOOMmEUDF7Ks84d6ttu7N98s038Pgt9+HHjvvFttMFDrvdDw8468zS/f8yYJzzp8Jzu3z91sowdO9Zts31/341w312X+64IKkHGnXKvmLaDEGi8kHSkQ9Jpv0XWtxCySBc7J0Y6oG+pGI3XLqkoVGbIGe2zV/79mBvbbLib2+hjN27xE36JxhkzZnjNIu0SxgJmINYGYe7ceX4xYBYPJp8BCYweWrZLxY9E80EyF8rer+7VBNbMlMBDNJEtBhU8kGkpYbL7UoGqMBmJQ5NS4N4KdlvHnnDsvm5AUruqYJh9wE9IPhv7rW97aU7chAkT3YmnDnZfjWN9lBI/FpP2GoOb+ZgQbtzXX/s2H1qSFcKGDjk9NxsdoOkYKQOJn376OT/+84ST/+w9rGecOsD/mYjnwIzExGzVqq0bdsm5Po/RMUcfP9DNmzc7ue6ZfpD0xInf+yFqn376TSLsdFAnGq5c2wEJv0gmxNI2DgOwpqkCkClKrCDTllhpjuf5wiAoTVz2n05u+uzU2GIbcs1q/oEnnED6XzPucWUt0j/4YjpCNsiqdjsxAUcLGqh79265wL8G+RYAWWaNUpyCklGClRugsgBUvPnaeNbU5B2q0sbLa2qC2bNn+3Q+UxOTbvbsdNUrSzpb6CD3ISNmZYiwpgnJBmyBCVzL1roUHmMlt9ysl1u0TGv3j1dfcj9NmeMOPXB7t8suO3uC8H78S+GiITd6occ83mevHfxYTMAHfuPNf/p3ZokFZgv022trr+UECDd16hT38Sefu3ff/9i9++6H/vm4PwQ+6shDciNiIBj9i5jod95+pR8OJlOS6x9z5H7uhBOO8ccxE/79D75KyrjUv5sqIA0LQ+i9wCcCgxDQNJAwKC0HQBZCjWhjiyzT0mpCITw21ITdurbw7WHmQUKoKVN+co/9e2gl4gnrdN7PbdT9j/5daPMBvhnWhORU7XKZ+EB5gPxXXv/M3XPXLbn1b9QMinW0t2tPX2+6Sp7tQKePkO4KmZoQXlpb7cxisATxBF5IbbyskStTfkYYGuSIZ0kHsogHQpMphIgXIxwQ6UQ0XSNMAxUoz0k/Wb9+6Q8sRTqcKMzi5ng+wsorLe/OOSv91RbjMG++9VFPSAjHb5ZxU9OG4Hw+6Geff+6efPolP0aU87kfDpxddurrNt5ow1yXAUDbolV5luGX/8mPUKGyO/O8S9zzf3/BbZeQffjQdJVqRrLgmWPQ95dfpquI2bZd05LmOdIBEc7CEhFUlYxNG83PmbAiYr42YbFtwDVWW87ttMuebodtNvTvAvE+njrG/fun+8uPStFi0Vpuq3X2cN1bbZKYjT+4dz9ItR8oLS3z5b0oKe/FppJokDxr4waLXafOnd06ayzvV2KDsK+99rq7bdToHPEEEU/g+0E8ZI/KEcvGtvFat27ju5pq0sYrqPFo9GY5VyzxEEwLPYgQE4rwmOpoufAaMfChKcydEw13wtH7JEK3yK8sRjvt7tEvualT0l9dCb17r+xW793Dm6KMeGF76z4b+I50C9oReDRffe0dv81oCX7x3KfPFkt0C1CeDE/De7rn7tu6U085LnfM6Psf8B3yeN5uu+XaSjUnJulhR56T03QiHbUxJh/mIYiVbzEohohZmlDtvJBgIh/Pt6hsyTYR36Pzcj3dsYdt79tevA9r5vww/333/dSvcuQT6dq61b1w4xF+/98TXOncSQmRKjywk6fNdy2TYmAUEDFo1qpr0gTo5bbaYnVvsmNR/OMfr7vrb37CTfr+S/8MFlbrUcZt2nb05U1zKmvIGA4zDcgANdJ4lnhoPI2jqwrxLBn0YYgLmZhWy8UG3BZDOvIoVO0jrUK2ms/H5d5OHU8Mybp0budXDWMBI/13Ds1mTRcWMGIkCZ3aIZEsmOaDRn3sidf9rIIBh+zhTjrxeF/GgOUCz//LVW7A4Ye5U45PHSyA7/DNN+PdkccOSr4B7ZK0LKyJaUnXOCFEWUKIrDgfLPmqQkIhptmsQyYkIN0WzVqv5InHWE0E18raDPdZ+ZEplmu2vn8u/meBs4RjAbNA6ITHSaP2In2DGoq24gqYhV2Tdl6r5Nql7uWXX3a33/mI++qr9IehkgvBaj6IR+U2b+7MShovNDXrVOPlMzUBDVCIp5sLIpudTSABt8daTReSDVjCxc4H4XYIziFY8rFNR/rvN+vtNt1k/dwalYLSNKjxZhHzDwNGqOCN7Lv1pn4BXM1UFxjryXQeFjT6bkLq3gaUx913XOXbdLTf7h79d/f448+4SwefnPvTLOXOwrv02T355PM50knTEcJ2HYBgMYh8Nl2IiKAYEgJLQJBFQkGV8CortfeeYks8GwM0CPLIdxLZtC8GyYaFvd6zL77rRt1+u7diJC/2eEu89h06+zKPdSdYU7PW2nihxqPgs0xN1o+kzYF28v+bTl7CEoACTuMKMtn9ANJBXF3HEi/UcCA8f4nrJffUx7UxUCETQ8CePTq6M087LkcwtdkArm3elTLgfVktGiKpfcCiSfTFCZgyd911n3vgb6/42QPcd+VV13UH7LuFn2l+1fV3utdefsM/r56D/jzGjzLRlkHRo0eP9qav1XDAko7rQjyRzhJumYZN3H9+WZiLbZ5giQiKIWMhEsbagSCLhOR37b6q++M+W+XaeGgkOszpRx0//0Xnfuzlll+rYc7MlFZBNpFRoZCGkQLhO7755huJlXJ/TuMJIfnwVegHMbE2Xm304xXUePm8mjI1RTwB4QjNSqCHA1Vtz9lzhVge9xZCU0ckpKAJVww93S27LAvRpl7N519936/ITCe1ff7cTIByQeq73VbuikvOS45JC/mNN95yfx50g585QCc97UHm2+HFVI3NdB5qT9Cj1+pu0PkD/CK8gDl2fxn8Vz/TIUY4AdMnRjrIZWHJFyNjCEu+mpBQZmjZwgW57xCST9pPGi/Wxhs36RPv3ez8w2Fuw227evKpLSUNRhyD3SdNBMh76bUPvMaDeFYWuL8lH4B4VuOxMBU/Dc1yroBa03ggH/HQeCKQiFdJ8PNoOmDbdCFEOhVKeH64HRIuBn10XMScf/45h/mJrM+98A/vsvf7Fpb6v/+sstp6rlVJqZtf1tLNmTnBT9FB2HCA3HTDcO8CL7Z2o6OemeftOiznTjp2j9z0I4aLXX3NSL/4EYhVNIpj5mWTppV/EpMPIp9FjIjFkrAqWhAihui8bM+cxkNgKYt//fC3TK/miu238MPI6GulPWfbcsIyv8xwc0pTErRo0dQtv2wL16tXTz/tChl+9dVXvcb7+uv099a2UgiJ17IVQ/yWbONlOVf0nWpF41FLULDFmpoA4YBwYbtOCNtzhcxLey5gOySiSAfh+Gd1+MP4GNTY1+JGXO+IATu6nXbccQknyai7HnPXXHO912Y33TA0Kez0+nqGWGEjSG++M9aNvu9Ov0bKfv37ueOP6perFXGqjLjxseTDzlrinSqum5RleSUSOlJCEhWLUAsqL4ZiNWAIaT6lBSvoK/Vs4zXellv+3m/n68fbeY3zfXfCl19+6f7x1ljvhFm0IP2zEsP2BLyaAM8m07h6rby+227rdfz3RJ7VxhPxQBb5ZGriC7BtvDrrx4sRL8u5IuIBFlfNESBD04l0xbbp7Lkg3JZgypy00LM0LynzNS9AGBAEFbbaGxT4X847qtLvuYDaXQwro9bTzHVAYUMuZrfTLcHfehbOm+V/9/X559/5Z+V9qTUxaTUgGy/n8Ktvcp9+XtGXVKmMyt9Jz281XBbhWO9f/3WzcXVgiRlDVTWgSEisb0GZo/EOO2ALb2oWo/FW6bSV9/J+9uVkt6g0Jd30WUnl3rB58h3n5eKyxak80Y+36kpdEgtljSU03jffpD9/CZsQAvLQrv2ySX7Zr9fGy9ePZzXegtL0Q+czL0NtJ8QIF2q1Ja4lkkeIp33A1rwSAGK1Qyh0tN+OO26d1I7p0un0z73zwXj31JMvJqb2NLdd3/X9n2YxLSjkd955J9GCD+U6tVVT2mfUux591CGJSbWDe/vtd/0/Dhj4bI/DhLTPzzPpmfMRTj/XACKbTWflFYt8BMynCWMaEFDuFr1WaJlr40E8KrkJs/9ZqR8PMGplrY67ea0lWbTdOhaSWWme1BRslZMnabx8xJPctWzVxm9L49V5G0+QxsvXj2c1HuuuAIinF40JIgjbdPk0nU0LlnQWyrcEKwS1P6z2I1DbtWzVwZ1z+oFupZV6+mPQ+oOGjHLfjv/Mbd5nY7fOmmu5363Ty/FzSbxx77//gRt25Sh/LO8Yttn0LjxnrKKwhEOwgSVcFqGErO18cTGIkbAYMxRkmaLdVujt9thlo5xXkzLHnzClLP1nPQRcvmO6SBT9eBJuOU7yQdoXqP3F9SEepj8WSYjwOSEe32/O7Olu+W7ta72NV5kBCRYnGk/ggjA6q4YJIW0Xkk4ICQeyhNOC6wE6XrNIZ5GPdPogQm5gcHI97zEsfwY6qnGEQDoqnsefesudfPplfjl2BjDj1WTgNfO9qI27dVvemz68ox9VkrwX12HlspKSFj6P63snSXIv7sm9CTxr06StwLM1o82QbCPoBBEpjIFNg6xtG4fkU34+iHS2EpBjRxVEiCzNJzRxE33HtwXaCScKYds1j3S9u2ztA6ai5AKZLBQgKTEOMJ0HYUsazUsUCd0FlZ859UfE5clacKDOZqBbqHaxncpZ0APyUnoxabl82s5CBBN0HcWlC9OPHdN0KjiEuBDpiG3geBEQYkAS7nn/ox+6YZdf5845b2jS1nvAO2Ig1DrrrJnEaSHjBn/y72/6sZa3j7o/OTe19yEcYym5XtNmaSyiESAa0DMgwAgzwl3SvK3fVywxioG0m71mVUhoyae0IPJZEvJOipUWKO/Zpe2S8kzJqbJE3mjrfT3tdTd28st+kAEmqDUhY4HyjuVbQMTSRRXvJpkCkt2QfFg9MkcFOzsBqILheouN0iqEvMTjYQvNx6N9lw+WdBYIsLQdD61gt4G0nA9oCkM65YMswunDhx/fQvtFQBHlx0S7fTlumpsxM6ktS9K2AoTq1/9Ut80Oh/iwZ78T3WWXjXAfvD/W74e0IpxIxrUhGtqMtLRa8xZtPNlEOCv0IQG4Zr64EGKEyke2WB7PKIiASlvS2bSF/QYd2ld2aADaeAyUZk4egTR5tOvyIUvTkK8AtLhSTCatZkvlKn1W8mfPrZC52pqBvgTx7MnF2NPSYCJKFnScXigLXMdqPmm5LFiy2Qa8/cgWCIUEw6aBiAEsAZs0TfLRXImQ81FEMGICpqTyqBgs4QiWXIoltAAhl6C3bpP+09wSi4DzKl9sj1XaxvmQTxvavGJQiHSK58xr5WMBWbOd5wTS5NGxjlyiDRk0zgwPBWZwMIAhDOxjMWLIsbhcE9HvxyJLmmOn72fB9w29nK1aVGxbjYdWrTWNZ09G49HGywIEkcYjzc2LMS+tprNgW9cB0mb5NB0Q+UKNp48sIBRyBkAAIDJYMoqABDSVNKHIKCIS2zT7OAZIq+k+EuJYyIIlTRahbCzPcgw6LobwGazpGTNHLWwFYtO8u8rUQo6Pls1neyLoW0uAbT8eaXk4FydyydIOr77xmXv59U/c8y9/4J567j1338N/dw89/oIbNfrtSjH7PvroY68trcabW9qikmzaSj40Oa01Z/sLrc9DMsZ1aqTxLKTxspwrFFqo8eyM3SzCWeg8wW5T80A4PI6CrZEgROimBiHhLCQM1llg2y4KIiMBEoVkDAPPov0cq+sgrDGBBZY0CtouBEsype35VhNakGePi8E+b+zZ8xFQ760KLiQf5QPJ0Hg4V6zgo+HyAW3TfbkS16VDQ9dt2RLXvl1b13uVNVyPFVZ0a67WyXXq2NX1Xqmt32Yfy2ZwP4EZ6C1KKv96IJXhys8oIL9q42ldVWB9HtXVeDXqx2MNEP7DDaE0DrEYTQfsy4YvbjVdCPaJcIU0HAg/PEIReuiqCjkWdA1dL7xuKKBZgl6XCAmo7VgcQz7tRxwiLIuFyTF8g7D7oWfPdm73HbfM9eMhbzhVaNtZrad+PGaAIJs4s4RC/gdGlehPT1xf3Qn625JVErYCALS/Yx3oduRKTebj1UjjAdQxD1gI+dp24UvHAOGySBcjHLAf2sKSQ5BwxeIwD6+jrkEeaRsr+P2JUCv8Ggjvq+3Y80Tzyt8DkA5NTpsGKhdiyCdTO6wA0XjpMojptyOmG4FRKpCNwFAx+vI0hA+FQNeCAvk2oOHstv29GtfH1GQ9T6GyksjWfFriBNRZG89CXs183QloNZEqn7YTwpcLX5j2EohpOyHUdCAknz40MUIAASUUMViBCmMQ2xfLExBiQpYm+TVhn0nPaON80Dvm03qCyAdC05M2njSFgCDTb0cfnu3HEzkLoVAby69A1mhmpmxmKQB+fS2Eq4xJ7qraxqvRIGlMTf/b38bpojCobsiXZWLGSMcDK18mJhDxbB4INR3Pl6XxqG0xdVTrxhAKUpjOgiVVsUL73wD7HpaQxSIfEYGIiNWwdZ/1fJtMPw0FquRZX3PxtGV9WhYXMftjcQx2H7L8r48muL8/9w83/edJ3lITrMkJkEmZmoxBXqF7p6U/VjPftKCwjSfS8VIiX9ius0RTDLwpWe5IsdpOxCtGywHVqNS2lnRqc1ioxi5EMsES7P8L0YQswimOQWVnyRZuA5ENqK0H+B4d2yxwk39KF0PG1c/IEsVZYKA1A64By/XpBzpKEzNDhZkqgvJnzPpPrmkk8oVtPeSSxWxjbTyN1WQeJ8SutTVXhCyNx9LY48d/5559/lU/VhOySeMBq+3Cdp0lWkg6IYt0VXGm6OPmMy1D0uUjYCiQvyX0WqGVG/9dhYDVNooloRAjYwxUigtK5/vpZGVl872AZwHPovdwJ/IgjzYEAciR0iG0lAMzyj2ZmjZLLLRUJqQcssiHxkOmeV+N1ezRY3nXqWOHutV4xDyA9WpqOQQRz2q8kHgiHbUGaUs0YLdp14WaDlDQmkoSmpghbC0q7Zal5UA+ogErbMCmaxsheaq6bVEXRLSky0c+S7os8lntJ8QcYHJaCKp4icMObnU3haQUwm3rDMwyOfVTSiZGS+Ox+FXLls1d167dkjj9TVh15+PFW5kJwoeVN4e4WbPKwgyJIJwfuZGQTKQj3/6PW0EjASBc6Exp2TwdsEpHNAW9YFHlPjJLOsimAMFEsjAWwSzRYqQTsayQCTZdHUAIC7sdEqWq2xZZ+8L749woFlnlEpZJWM7ECoK+kwKwfaYEYL83QRUvsQYzICcEZAj5kTzxXMgiAXljmJ+VP2SSkCqEitXJ0YZYcGmTiVBBj5YJyQA/Jo2B4xdXwatZsI2HucnUIJbY5r8CrJbM31Cfefa13Hw0agdezhdERGsBFVwICjXmINEHAHygmPbKgv3QoJB2i4GxhD9PS59daQke2xryhAAXSv8ayLp/mJ/v+Xln++7MKFjouuXKwJZJdRDTkIrzoVitKYTaE2RpUE0PY0A8yz4AlgJZf73Vknbdsn4lOpaF5+9PmJjILRoP4hVrZoK8bbw0TonHfDPmo8ncnJ609SAfnZHMWeK/cdJ0McjkLAS7pHY+6Lhw9WoQnl/omvmuYe9jY4vY+YCPIctB54bQMcRCuB1C+wsdJ+gZQOw+dr99Nz1v+P5ZeSHCY2wM7HnKA+H1wvNAuA1iedUFv/RiTh4r0fFvQkjHDy71FyJNiiYAlWu123hgcbnK5INYBwvkQ+sxQxsnC+SbMT2pJZN8YMez1aMe/63Q8DDMy7btWiVxEpK2Hd5MaTvac9Vt34FMjQdiWo88kY9/ftOhyP75yX4LW5uGMcjaV91YCLdB7Ngwr6b7qhvba+ZLC7V9bCxd0/Oqco4Qnhs7tqpxvnPtPqUtGG8LIBztOsgI6XCq0I0QMzNRWDXWeLoQDyatxygWSz4AAYEmNTIQtR71+G+FdZ6kQ9pwztBfl/7rMCQdIL8qpAOZGk/mJgjJB/EYEUBsh9BkjSAIYUcU1AbC69nt2L2y7p/vufLtqy6qcj+7nW8fKLQdotB+i9ixVb1+oW2h0HULoSrXjT0TwIsvM5I8temq27YT8pqaIfkAbT0gAoKaFE496vFbhcgHRDSr6UBV23ZCQeJZk1NA+wHrpi00RaMe9fhvQjgBPCSc2nWgqmYmyEs8QZoP8tkGqQgo8GBhXj3q8d8MSzZBbTpQVcIJRRPPshuIhErXox7/n2AVjNLSctXRcCGKIp4QslzbvybCCqCYNDUW7dMw1jEh7Pm1ifBZKE+bFz6/fY6qpmsL4TXZDt/Bwu4v5hnD7Zogdq1C1xexlA7BvpqSDlSJeIJ9MPsgShcTg2KPzReHsPnFHBPCXh+E16qNGJC20H6LWJ5F1v4w394zlhZi+8M8QfssYudaxPKEcJ+2Y9csNgbF5BUTA9K1A+f+D17cZIOy/c/jAAAAAElFTkSuQmCC;" vertex="1" parent="1">
          <mxGeometry x="80" y="270" width="120" height="90.81" as="geometry" />
        </mxCell>
      </root>
    </mxGraphModel>
  </diagram>
</mxfile>
